victorianna_thin.ufo
<glyph name="exclam" format="1">
  <advance width="307"/>
  <unicode hex="0021"/>
  <outline>
    <contour>
      <point x="132" y="127" type="line" name="hr00"/>
      <point x="132" y="-183" type="line"/>
      <point x="170" y="-182" type="line"/>
      <point x="170" y="128" type="line"/>
    </contour>
    <contour>
      <point x="132" y="1600" type="line"/>
      <point x="170" y="1600" type="line"/>
      <point x="170" y="353" type="line"/>
      <point x="132" y="353" type="line"/>
    </contour>
  </outline>
</glyph>
<glyph name="quotedbl" format="1">
  <advance width="580"/>
  <unicode hex="0022"/>
  <outline>
    <contour>
      <point x="102" y="1114" type="line" name="hr00"/>
      <point x="127" y="1085" type="line"/>
      <point x="325" y="1255" type="line"/>
      <point x="325" y="1530" type="line"/>
      <point x="287" y="1530" type="line"/>
      <point x="287" y="1273" type="line"/>
    </contour>
    <contour>
      <point x="255" y="1114" type="line"/>
      <point x="280" y="1085" type="line"/>
      <point x="478" y="1255" type="line"/>
      <point x="478" y="1530" type="line"/>
      <point x="440" y="1530" type="line"/>
      <point x="440" y="1273" type="line"/>
    </contour>
  </outline>
</glyph>
<glyph name="numbersign" format="1">
  <advance width="1297"/>
  <unicode hex="0023"/>
  <outline>
    <contour>
      <point x="102" y="719" type="line" name="hr00"/>
      <point x="1220" y="719" type="line"/>
      <point x="1220" y="681" type="line"/>
      <point x="102" y="681" type="line"/>
    </contour>
    <contour>
      <point x="130" y="16" type="line"/>
      <point x="687" y="1627" type="line"/>
      <point x="723" y="1614" type="line"/>
      <point x="166" y="3" type="line"/>
    </contour>
    <contour>
      <point x="600" y="16" type="line"/>
      <point x="1156" y="1627" type="line"/>
      <point x="1192" y="1614" type="line"/>
      <point x="635" y="3" type="line"/>
    </contour>
    <contour>
      <point x="102" y="956" type="line"/>
      <point x="1220" y="956" type="line"/>
      <point x="1220" y="918" type="line"/>
      <point x="102" y="918" type="line"/>
    </contour>
  </outline>
</glyph>
<glyph name="dollar" format="1">
  <advance width="1126"/>
  <unicode hex="0024"/>
  <outline>
    <contour>
      <point x="27" y="331" type="line"/>
      <point x="159" y="-28" type="line"/>
      <point x="194" y="-14" type="line"/>
      <point x="156" y="90" type="line"/>
      <point x="259" y="27"/>
      <point x="378" y="-5"/>
      <point x="511" y="-5" type="curve" smooth="yes"/>
      <point x="770" y="-5"/>
      <point x="1099" y="162"/>
      <point x="1099" y="444" type="curve" smooth="yes"/>
      <point x="1099" y="1086"/>
      <point x="89" y="709"/>
      <point x="89" y="1255" type="curve" smooth="yes"/>
      <point x="89" y="1484"/>
      <point x="328" y="1593"/>
      <point x="511" y="1593" type="curve" smooth="yes"/>
      <point x="626" y="1593"/>
      <point x="724" y="1562"/>
      <point x="805" y="1500" type="curve"/>
      <point x="855" y="1320" type="line"/>
      <point x="891" y="1331" type="line"/>
      <point x="811" y="1617" type="line"/>
      <point x="775" y="1607" type="line"/>
      <point x="789" y="1557" type="line"/>
      <point x="708" y="1606"/>
      <point x="615" y="1631"/>
      <point x="511" y="1631" type="curve" smooth="yes"/>
      <point x="294" y="1631"/>
      <point x="51" y="1496"/>
      <point x="51" y="1255" type="curve" smooth="yes"/>
      <point x="51" y="670"/>
      <point x="1061" y="1042"/>
      <point x="1061" y="444" type="curve" smooth="yes"/>
      <point x="1061" y="186"/>
      <point x="751" y="32"/>
      <point x="511" y="32" type="curve" smooth="yes"/>
      <point x="365" y="32"/>
      <point x="239" y="72"/>
      <point x="133" y="151" type="curve"/>
      <point x="63" y="344" type="line"/>
    </contour>
    <contour>
      <point x="356" y="-108" type="line" name="hr01"/>
      <point x="394" y="-108" type="line" name="hr02"/>
      <point x="394" y="1779" type="line"/>
      <point x="356" y="1779" type="line" name="hr03"/>
    </contour>
    <contour>
      <point x="593" y="-108" type="line" name="hr04"/>
      <point x="632" y="-108" type="line" name="hr05"/>
      <point x="632" y="1779" type="line"/>
      <point x="593" y="1779" type="line" name="hr06"/>
    </contour>
  </outline>
</glyph>
<glyph name="percent" format="1">
  <advance width="682"/>
  <unicode hex="0025"/>
  <outline>
    <contour>
      <point x="68" y="16" type="line"/>
      <point x="625" y="1627" type="line"/>
      <point x="660" y="1614" type="line"/>
      <point x="104" y="3" type="line"/>
    </contour>
    <contour>
      <point x="274" y="191" type="curve" smooth="yes"/>
      <point x="252" y="169"/>
      <point x="241" y="142"/>
      <point x="241" y="111" type="curve" smooth="yes"/>
      <point x="241" y="80"/>
      <point x="252" y="53"/>
      <point x="274" y="31" type="curve" smooth="yes"/>
      <point x="296" y="9"/>
      <point x="323" y="-2"/>
      <point x="354" y="-2" type="curve" smooth="yes"/>
      <point x="385" y="-2"/>
      <point x="412" y="9"/>
      <point x="434" y="31" type="curve" smooth="yes"/>
      <point x="457" y="53"/>
      <point x="468" y="80"/>
      <point x="468" y="111" type="curve" smooth="yes"/>
      <point x="468" y="142"/>
      <point x="457" y="169"/>
      <point x="434" y="191" type="curve"/>
      <point x="412" y="214"/>
      <point x="385" y="225"/>
      <point x="354" y="225" type="curve" smooth="yes"/>
      <point x="323" y="225"/>
      <point x="296" y="214"/>
    </contour>
    <contour>
      <point x="274" y="1582" type="curve" smooth="yes"/>
      <point x="252" y="1560"/>
      <point x="241" y="1533"/>
      <point x="241" y="1502" type="curve" smooth="yes"/>
      <point x="241" y="1471"/>
      <point x="252" y="1444"/>
      <point x="274" y="1422" type="curve" smooth="yes"/>
      <point x="296" y="1400"/>
      <point x="323" y="1389"/>
      <point x="354" y="1389" type="curve" smooth="yes" name="hr01"/>
      <point x="385" y="1389"/>
      <point x="412" y="1400"/>
      <point x="434" y="1422" type="curve" smooth="yes"/>
      <point x="457" y="1444"/>
      <point x="468" y="1471"/>
      <point x="468" y="1502" type="curve" smooth="yes"/>
      <point x="468" y="1533"/>
      <point x="457" y="1560"/>
      <point x="434" y="1582" type="curve"/>
      <point x="412" y="1605"/>
      <point x="385" y="1616"/>
      <point x="354" y="1616" type="curve" smooth="yes"/>
      <point x="323" y="1616"/>
      <point x="296" y="1605"/>
    </contour>
    <contour>
      <point x="429" y="111" type="curve" smooth="yes"/>
      <point x="429" y="70"/>
      <point x="395" y="36"/>
      <point x="354" y="36" type="curve" smooth="yes"/>
      <point x="313" y="36"/>
      <point x="279" y="70"/>
      <point x="279" y="111" type="curve" smooth="yes"/>
      <point x="279" y="152"/>
      <point x="313" y="187"/>
      <point x="354" y="187" type="curve" smooth="yes"/>
      <point x="395" y="187"/>
      <point x="429" y="154"/>
    </contour>
    <contour>
      <point x="354" y="1577" type="curve"/>
      <point x="397" y="1577"/>
      <point x="429" y="1545"/>
      <point x="429" y="1502" type="curve"/>
      <point x="433" y="1438"/>
      <point x="344" y="1401"/>
      <point x="301" y="1449" type="curve"/>
      <point x="253" y="1492"/>
      <point x="290" y="1581"/>
    </contour>
  </outline>
</glyph>
<glyph name="ampersand" format="1">
  <advance width="1740"/>
  <unicode hex="0026"/>
  <outline>
    <contour>
      <point x="102" y="457" type="curve" smooth="yes" name="hr00"/>
      <point x="102" y="133"/>
      <point x="364" y="-16"/>
      <point x="659" y="-16" type="curve" smooth="yes"/>
      <point x="861" y="-16"/>
      <point x="1057" y="105"/>
      <point x="1150" y="260" type="curve"/>
      <point x="1258" y="117" type="line" smooth="yes"/>
      <point x="1336" y="14"/>
      <point x="1377" y="-16"/>
      <point x="1454" y="-16" type="curve" smooth="yes"/>
      <point x="1536" y="-16"/>
      <point x="1590" y="8"/>
      <point x="1692" y="59" type="curve"/>
      <point x="1673" y="92" type="line"/>
      <point x="1596" y="48"/>
      <point x="1521" y="23"/>
      <point x="1454" y="23" type="curve" smooth="yes"/>
      <point x="1394" y="23"/>
      <point x="1365" y="43"/>
      <point x="1283" y="150" type="curve" smooth="yes"/>
      <point x="1172" y="294" type="line"/>
      <point x="1253" y="426"/>
      <point x="1307" y="582"/>
      <point x="1307" y="739" type="curve"/>
      <point x="1177" y="914" type="line"/>
      <point x="1146" y="891" type="line"/>
      <point x="1268" y="726" type="line"/>
      <point x="1267" y="597"/>
      <point x="1226" y="464"/>
      <point x="1147" y="328" type="curve"/>
      <point x="610" y="1092" type="line"/>
      <point x="774" y="1237"/>
      <point x="908" y="1384"/>
      <point x="997" y="1612" type="curve"/>
      <point x="217" y="1612" type="line"/>
      <point x="559" y="1099" type="line"/>
      <point x="293" y="881"/>
      <point x="102" y="703"/>
    </contour>
    <contour>
      <point x="141" y="457" type="curve" smooth="yes"/>
      <point x="141" y="688"/>
      <point x="344" y="877"/>
      <point x="581" y="1067" type="curve"/>
      <point x="1125" y="292" type="line"/>
      <point x="1017" y="131"/>
      <point x="857" y="23"/>
      <point x="659" y="23" type="curve" smooth="yes"/>
      <point x="374" y="23"/>
      <point x="141" y="169"/>
    </contour>
    <contour>
      <point x="288" y="1574" type="line"/>
      <point x="940" y="1574" type="line"/>
      <point x="859" y="1384"/>
      <point x="746" y="1256"/>
      <point x="589" y="1124" type="curve"/>
    </contour>
  </outline>
</glyph>
<glyph name="quotesingle" format="1">
  <advance width="443"/>
  <unicode hex="0027"/>
  <outline>
    <contour>
      <point x="102" y="1114" type="line" name="hr00"/>
      <point x="127" y="1085" type="line"/>
      <point x="325" y="1255" type="line"/>
      <point x="325" y="1530" type="line"/>
      <point x="287" y="1530" type="line"/>
      <point x="287" y="1273" type="line"/>
    </contour>
  </outline>
</glyph>
<glyph name="parenleft" format="1">
  <advance width="477"/>
  <unicode hex="0028"/>
  <outline>
    <contour>
      <point x="102" y="818" type="curve" smooth="yes" name="hr00"/>
      <point x="102" y="597"/>
      <point x="135" y="406"/>
      <point x="202" y="245" type="curve" smooth="yes"/>
      <point x="269" y="86"/>
      <point x="358" y="-1"/>
      <point x="455" y="-1" type="curve"/>
      <point x="455" y="37" type="line"/>
      <point x="414" y="37"/>
      <point x="376" y="56"/>
      <point x="339" y="94" type="curve" smooth="yes"/>
      <point x="302" y="133"/>
      <point x="268" y="188"/>
      <point x="237" y="260" type="curve" smooth="yes"/>
      <point x="172" y="415"/>
      <point x="140" y="601"/>
      <point x="140" y="818" type="curve" smooth="yes"/>
      <point x="140" y="1035"/>
      <point x="172" y="1222"/>
      <point x="237" y="1377" type="curve" smooth="yes"/>
      <point x="268" y="1450"/>
      <point x="302" y="1505"/>
      <point x="339" y="1542" type="curve" smooth="yes"/>
      <point x="376" y="1580"/>
      <point x="414" y="1599"/>
      <point x="455" y="1599" type="curve"/>
      <point x="455" y="1637" type="line"/>
      <point x="358" y="1637"/>
      <point x="267" y="1550"/>
      <point x="202" y="1391" type="curve"/>
      <point x="135" y="1232"/>
      <point x="102" y="1041"/>
    </contour>
  </outline>
</glyph>
<glyph name="parenright" format="1">
  <advance width="512"/>
  <unicode hex="0029"/>
  <outline>
    <contour>
      <point x="102" y="1" type="line" name="hr00"/>
      <point x="199" y="1"/>
      <point x="291" y="88"/>
      <point x="356" y="247" type="curve"/>
      <point x="422" y="405"/>
      <point x="455" y="596"/>
      <point x="455" y="820" type="curve" smooth="yes"/>
      <point x="455" y="1043"/>
      <point x="422" y="1234"/>
      <point x="356" y="1393" type="curve" smooth="yes"/>
      <point x="291" y="1550"/>
      <point x="199" y="1639"/>
      <point x="102" y="1639" type="curve"/>
      <point x="102" y="1601" type="line"/>
      <point x="143" y="1601"/>
      <point x="182" y="1582"/>
      <point x="219" y="1544" type="curve" smooth="yes"/>
      <point x="256" y="1505"/>
      <point x="290" y="1450"/>
      <point x="321" y="1378" type="curve" smooth="yes"/>
      <point x="386" y="1223"/>
      <point x="418" y="1037"/>
      <point x="418" y="820" type="curve" smooth="yes"/>
      <point x="418" y="603"/>
      <point x="386" y="417"/>
      <point x="321" y="262" type="curve" smooth="yes"/>
      <point x="290" y="188"/>
      <point x="256" y="133"/>
      <point x="219" y="96" type="curve" smooth="yes"/>
      <point x="182" y="58"/>
      <point x="143" y="39"/>
      <point x="102" y="39" type="curve"/>
    </contour>
  </outline>
</glyph>
<glyph name="asterisk" format="1">
  <advance width="614"/>
  <unicode hex="002A"/>
  <outline>
    <contour>
      <point x="102" y="1370" type="line" name="hr00"/>
      <point x="287" y="1370" type="line"/>
      <point x="157" y="1239" type="line"/>
      <point x="183" y="1212" type="line"/>
      <point x="314" y="1342" type="line"/>
      <point x="314" y="1158" type="line"/>
      <point x="352" y="1158" type="line"/>
      <point x="352" y="1342" type="line"/>
      <point x="482" y="1212" type="line"/>
      <point x="509" y="1239" type="line"/>
      <point x="379" y="1370" type="line"/>
      <point x="563" y="1370" type="line"/>
      <point x="563" y="1407" type="line"/>
      <point x="379" y="1407" type="line"/>
      <point x="509" y="1538" type="line"/>
      <point x="482" y="1564" type="line"/>
      <point x="352" y="1434" type="line"/>
      <point x="352" y="1619" type="line"/>
      <point x="314" y="1619" type="line"/>
      <point x="314" y="1434" type="line"/>
      <point x="183" y="1564" type="line"/>
      <point x="157" y="1538" type="line"/>
      <point x="287" y="1407" type="line"/>
      <point x="102" y="1407" type="line"/>
    </contour>
  </outline>
</glyph>
<glyph name="plus" format="1">
  <advance width="955"/>
  <unicode hex="002B"/>
  <outline>
    <contour>
      <point x="68" y="800" type="line" name="hr00"/>
      <point x="456" y="800" type="line"/>
      <point x="456" y="411" type="line"/>
      <point x="494" y="411" type="line"/>
      <point x="494" y="800" type="line"/>
      <point x="882" y="800" type="line"/>
      <point x="882" y="837" type="line"/>
      <point x="494" y="837" type="line"/>
      <point x="494" y="1225" type="line"/>
      <point x="456" y="1225" type="line"/>
      <point x="456" y="837" type="line"/>
      <point x="68" y="837" type="line"/>
    </contour>
  </outline>
</glyph>
<glyph name="comma" format="1">
  <advance width="409"/>
  <unicode hex="002C"/>
  <outline>
    <contour>
      <point x="68" y="-140" type="line" name="hr00"/>
      <point x="93" y="-170" type="line"/>
      <point x="291" y="0" type="line"/>
      <point x="291" y="275" type="line"/>
      <point x="253" y="275" type="line"/>
      <point x="253" y="18" type="line"/>
    </contour>
  </outline>
</glyph>
<glyph name="hyphen" format="1">
  <advance width="1058"/>
  <unicode hex="002D"/>
  <outline>
    <contour>
      <point x="137" y="800" type="line"/>
      <point x="951" y="800" type="line"/>
      <point x="951" y="837" type="line" name="hr01"/>
      <point x="137" y="837" type="line"/>
    </contour>
  </outline>
</glyph>
<glyph name="period" format="1">
  <advance width="477"/>
  <unicode hex="002E"/>
  <outline>
    <contour>
      <point x="170" y="193" type="curve" smooth="yes" name="hr00"/>
      <point x="148" y="171"/>
      <point x="137" y="144"/>
      <point x="137" y="113" type="curve" smooth="yes"/>
      <point x="137" y="82"/>
      <point x="148" y="55"/>
      <point x="170" y="32" type="curve" smooth="yes"/>
      <point x="192" y="10"/>
      <point x="219" y="-1"/>
      <point x="250" y="-1" type="curve" smooth="yes"/>
      <point x="281" y="-1"/>
      <point x="308" y="10"/>
      <point x="330" y="32" type="curve" smooth="yes"/>
      <point x="352" y="55"/>
      <point x="363" y="82"/>
      <point x="363" y="113" type="curve" smooth="yes"/>
      <point x="363" y="144"/>
      <point x="352" y="171"/>
      <point x="330" y="193" type="curve" smooth="yes"/>
      <point x="308" y="215"/>
      <point x="281" y="226"/>
      <point x="250" y="226" type="curve" smooth="yes"/>
      <point x="219" y="226"/>
      <point x="192" y="215"/>
    </contour>
    <contour>
      <point x="197" y="60" type="curve" smooth="yes"/>
      <point x="168" y="89"/>
      <point x="168" y="137"/>
      <point x="197" y="166" type="curve" smooth="yes"/>
      <point x="226" y="195"/>
      <point x="274" y="195"/>
      <point x="303" y="166" type="curve" smooth="yes"/>
      <point x="332" y="137"/>
      <point x="332" y="89"/>
      <point x="303" y="60" type="curve" smooth="yes"/>
      <point x="274" y="31"/>
      <point x="226" y="31"/>
    </contour>
  </outline>
</glyph>
<glyph name="slash" format="1">
  <advance width="682"/>
  <unicode hex="002F"/>
  <outline>
    <contour>
      <point x="68" y="16" type="line" name="hr00"/>
      <point x="625" y="1627" type="line"/>
      <point x="660" y="1614" type="line"/>
      <point x="104" y="3" type="line"/>
    </contour>
  </outline>
</glyph>
<glyph name="zero" format="1">
  <advance width="1399"/>
  <unicode hex="0030"/>
  <outline>
    <contour>
      <point x="100" y="820" type="curve" smooth="yes" name="hr00"/>
      <point x="100" y="454"/>
      <point x="305" y="-15"/>
      <point x="697" y="-15" type="curve" smooth="yes"/>
      <point x="1106" y="-15"/>
      <point x="1298" y="468"/>
      <point x="1298" y="820" type="curve" smooth="yes"/>
      <point x="1298" y="1197"/>
      <point x="1090" y="1628"/>
      <point x="700" y="1630" type="curve" smooth="yes"/>
      <point x="327" y="1635"/>
      <point x="100" y="1231"/>
    </contour>
    <contour>
      <point x="138" y="820" type="curve" smooth="yes"/>
      <point x="138" y="1173"/>
      <point x="330" y="1593"/>
      <point x="699" y="1593" type="curve" smooth="yes"/>
      <point x="1067" y="1593"/>
      <point x="1260" y="1179"/>
      <point x="1260" y="820" type="curve" smooth="yes"/>
      <point x="1260" y="470"/>
      <point x="1070" y="23"/>
      <point x="699" y="23" type="curve" smooth="yes"/>
      <point x="330" y="23"/>
      <point x="138" y="463"/>
    </contour>
  </outline>
</glyph>
<glyph name="one" format="1">
  <advance width="648"/>
  <unicode hex="0031"/>
  <outline>
    <contour>
      <point x="68" y="1276" type="line" name="hr00"/>
      <point x="490" y="1662" type="line"/>
      <point x="490" y="157" type="line" smooth="yes"/>
      <point x="490" y="113"/>
      <point x="469" y="58"/>
      <point x="429" y="38" type="curve"/>
      <point x="616" y="38" type="line"/>
      <point x="616" y="0" type="line"/>
      <point x="236" y="0" type="line"/>
      <point x="236" y="38" type="line"/>
      <point x="291" y="38" type="line" smooth="yes"/>
      <point x="371" y="38"/>
      <point x="452" y="73"/>
      <point x="452" y="157" type="curve" smooth="yes"/>
      <point x="452" y="1575" type="line"/>
      <point x="94" y="1248" type="line"/>
    </contour>
  </outline>
</glyph>
<glyph name="two" format="1">
  <advance width="1228"/>
  <unicode hex="0032"/>
  <outline>
    <contour>
      <point x="102" y="0" type="line" name="hr00"/>
      <point x="102" y="373"/>
      <point x="262" y="579"/>
      <point x="637" y="839" type="curve" smooth="yes"/>
      <point x="809" y="958"/>
      <point x="1017" y="1100"/>
      <point x="1017" y="1323" type="curve" smooth="yes"/>
      <point x="1017" y="1515"/>
      <point x="850" y="1590"/>
      <point x="686" y="1593" type="curve" smooth="yes"/>
      <point x="553" y="1593"/>
      <point x="432" y="1561"/>
      <point x="325" y="1516" type="curve"/>
      <point x="203" y="1304" type="line"/>
      <point x="169" y="1324" type="line"/>
      <point x="298" y="1546" type="line"/>
      <point x="422" y="1596"/>
      <point x="544" y="1631"/>
      <point x="669" y="1631" type="curve" smooth="yes"/>
      <point x="872" y="1633"/>
      <point x="1056" y="1536"/>
      <point x="1056" y="1323" type="curve" smooth="yes"/>
      <point x="1056" y="1126"/>
      <point x="934" y="1001"/>
      <point x="659" y="808" type="curve" smooth="yes"/>
      <point x="364" y="601"/>
      <point x="141" y="410"/>
      <point x="141" y="38" type="curve"/>
      <point x="986" y="38" type="line"/>
      <point x="1174" y="208" type="line"/>
      <point x="1200" y="180" type="line"/>
      <point x="1000" y="0" type="line"/>
    </contour>
  </outline>
</glyph>
<glyph name="three" format="1">
  <advance width="1092"/>
  <unicode hex="0033"/>
  <outline>
    <contour>
      <point x="68" y="243" type="line" name="hr00"/>
      <point x="77" y="92"/>
      <point x="233" y="-15"/>
      <point x="393" y="-15" type="curve" smooth="yes"/>
      <point x="730" y="-15"/>
      <point x="1048" y="289"/>
      <point x="1048" y="636" type="curve" smooth="yes"/>
      <point x="1048" y="890"/>
      <point x="886" y="1056"/>
      <point x="632" y="1004" type="curve"/>
      <point x="836" y="1120"/>
      <point x="900" y="1225"/>
      <point x="900" y="1343" type="curve" smooth="yes"/>
      <point x="900" y="1521"/>
      <point x="709" y="1636"/>
      <point x="541" y="1636" type="curve" smooth="yes"/>
      <point x="382" y="1636"/>
      <point x="247" y="1543"/>
      <point x="158" y="1422" type="curve"/>
      <point x="189" y="1399" type="line"/>
      <point x="286" y="1529"/>
      <point x="411" y="1599"/>
      <point x="541" y="1598" type="curve" smooth="yes"/>
      <point x="690" y="1598"/>
      <point x="861" y="1490"/>
      <point x="861" y="1340" type="curve" smooth="yes"/>
      <point x="861" y="1213"/>
      <point x="774" y="1130"/>
      <point x="573" y="1005" type="curve" smooth="yes"/>
      <point x="307" y="840" type="line"/>
      <point x="318" y="824" type="line"/>
      <point x="328" y="808" type="line"/>
      <point x="485" y="905" type="line" smooth="yes"/>
      <point x="752" y="1070"/>
      <point x="1009" y="938"/>
      <point x="1009" y="635" type="curve" smooth="yes"/>
      <point x="1009" y="287"/>
      <point x="693" y="24"/>
      <point x="395" y="24" type="curve" smooth="yes"/>
      <point x="255" y="24"/>
      <point x="104" y="131"/>
      <point x="107" y="243" type="curve"/>
    </contour>
  </outline>
</glyph>
<glyph name="four" format="1">
  <advance width="1262"/>
  <unicode hex="0034"/>
  <outline>
    <contour>
      <point x="68" y="596" type="line" name="hr00"/>
      <point x="798" y="1904" type="line"/>
      <point x="832" y="1885" type="line"/>
      <point x="134" y="635" type="line"/>
      <point x="862" y="635" type="line"/>
      <point x="862" y="1311" type="line"/>
      <point x="900" y="1311" type="line"/>
      <point x="900" y="635" type="line"/>
      <point x="1193" y="635" type="line"/>
      <point x="1193" y="596" type="line"/>
      <point x="900" y="596" type="line"/>
      <point x="900" y="235" type="line" smooth="yes"/>
      <point x="900" y="142"/>
      <point x="847" y="76"/>
      <point x="770" y="39" type="curve"/>
      <point x="1193" y="39" type="line"/>
      <point x="1193" y="0" type="line"/>
      <point x="568" y="0" type="line"/>
      <point x="569" y="39" type="line"/>
      <point x="717" y="43"/>
      <point x="862" y="89"/>
      <point x="862" y="235" type="curve" smooth="yes"/>
      <point x="862" y="596" type="line"/>
    </contour>
  </outline>
</glyph>
<glyph name="five" format="1">
  <advance width="1092"/>
  <unicode hex="0035"/>
  <outline>
    <contour>
      <point x="68" y="-132" type="curve" name="hr00"/>
      <point x="68" y="-171" type="line"/>
      <point x="557" y="-193"/>
      <point x="1032" y="168"/>
      <point x="1032" y="663" type="curve" smooth="yes"/>
      <point x="1032" y="1006"/>
      <point x="720" y="1086"/>
      <point x="444" y="1086" type="curve" smooth="yes"/>
      <point x="361" y="1086"/>
      <point x="278" y="1078"/>
      <point x="195" y="1064" type="curve"/>
      <point x="195" y="1588" type="line"/>
      <point x="1016" y="1755" type="line"/>
      <point x="1008" y="1793" type="line"/>
      <point x="157" y="1619" type="line"/>
      <point x="157" y="1017" type="line"/>
      <point x="207" y="1028"/>
      <point x="316" y="1048"/>
      <point x="445" y="1048" type="curve" smooth="yes"/>
      <point x="718" y="1048"/>
      <point x="993" y="966"/>
      <point x="993" y="663" type="curve" smooth="yes"/>
      <point x="993" y="169"/>
      <point x="543" y="-141"/>
    </contour>
  </outline>
</glyph>
<glyph name="seven" format="1">
  <advance width="1262"/>
  <unicode hex="0037"/>
  <outline>
    <contour>
      <point x="68" y="1347" type="line" name="hr00"/>
      <point x="200" y="1614" type="line"/>
      <point x="1239" y="1614" type="line"/>
      <point x="425" y="-210" type="line"/>
      <point x="390" y="-195" type="line"/>
      <point x="1180" y="1575" type="line"/>
      <point x="225" y="1575" type="line"/>
      <point x="102" y="1330" type="line"/>
    </contour>
  </outline>
</glyph>
<glyph name="nine" format="1">
  <advance width="1024"/>
  <unicode hex="0039"/>
  <outline>
    <contour>
      <point x="957" y="1098" type="curve" smooth="yes" name="hr00"/>
      <point x="957" y="1390"/>
      <point x="818" y="1630"/>
      <point x="506" y="1630" type="curve" smooth="yes"/>
      <point x="273" y="1630"/>
      <point x="80" y="1394"/>
      <point x="80" y="1104" type="curve" smooth="yes"/>
      <point x="80" y="864"/>
      <point x="243" y="656"/>
      <point x="513" y="656" type="curve" smooth="yes"/>
      <point x="621" y="656"/>
      <point x="715" y="707"/>
      <point x="774" y="791" type="curve"/>
      <point x="745" y="811" type="line"/>
      <point x="692" y="733"/>
      <point x="606" y="695"/>
      <point x="512" y="695" type="curve" smooth="yes"/>
      <point x="265" y="695"/>
      <point x="118" y="884"/>
      <point x="118" y="1105" type="curve" smooth="yes"/>
      <point x="118" y="1369"/>
      <point x="301" y="1588"/>
      <point x="506" y="1591" type="curve" smooth="yes"/>
      <point x="729" y="1595"/>
      <point x="918" y="1448"/>
      <point x="918" y="1099" type="curve" smooth="yes"/>
      <point x="918" y="485"/>
      <point x="611" y="48"/>
      <point x="85" y="4" type="curve"/>
      <point x="87" y="-34" type="line"/>
      <point x="623" y="4"/>
      <point x="957" y="477"/>
    </contour>
  </outline>
</glyph>
<glyph name="colon" format="1">
  <advance width="477"/>
  <unicode hex="003A"/>
  <outline>
    <contour>
      <point x="137" y="111" type="curve" smooth="yes"/>
      <point x="137" y="48"/>
      <point x="190" y="-2"/>
      <point x="250" y="-2" type="curve" smooth="yes"/>
      <point x="313" y="-2"/>
      <point x="364" y="51"/>
      <point x="364" y="111" type="curve" smooth="yes"/>
      <point x="364" y="174"/>
      <point x="310" y="225"/>
      <point x="250" y="225" type="curve" smooth="yes"/>
      <point x="187" y="225"/>
      <point x="137" y="171"/>
    </contour>
    <contour>
      <point x="137" y="474" type="curve" smooth="yes"/>
      <point x="137" y="411"/>
      <point x="190" y="361"/>
      <point x="250" y="361" type="curve" smooth="yes"/>
      <point x="313" y="361"/>
      <point x="364" y="414"/>
      <point x="364" y="474" type="curve" smooth="yes"/>
      <point x="364" y="537"/>
      <point x="310" y="588"/>
      <point x="250" y="588" type="curve" smooth="yes"/>
      <point x="187" y="588"/>
      <point x="137" y="534"/>
    </contour>
    <contour>
      <point x="325" y="111" type="curve" smooth="yes"/>
      <point x="325" y="70"/>
      <point x="291" y="36"/>
      <point x="250" y="36" type="curve" smooth="yes"/>
      <point x="209" y="36"/>
      <point x="175" y="70"/>
      <point x="175" y="111" type="curve" smooth="yes"/>
      <point x="175" y="152"/>
      <point x="209" y="187"/>
      <point x="250" y="187" type="curve" smooth="yes" name="hr01"/>
      <point x="291" y="187"/>
      <point x="325" y="154"/>
    </contour>
    <contour>
      <point x="250" y="399" type="curve" smooth="yes"/>
      <point x="209" y="399"/>
      <point x="175" y="433"/>
      <point x="175" y="474" type="curve" smooth="yes"/>
      <point x="175" y="515"/>
      <point x="209" y="549"/>
      <point x="250" y="549" type="curve" smooth="yes"/>
      <point x="291" y="549"/>
      <point x="325" y="515"/>
      <point x="325" y="474" type="curve" smooth="yes"/>
      <point x="325" y="433"/>
      <point x="291" y="399"/>
    </contour>
  </outline>
</glyph>
<glyph name="semicolon" format="1">
  <advance width="443"/>
  <unicode hex="003B"/>
  <outline>
    <contour>
      <point x="68" y="-140" type="line" name="hr00"/>
      <point x="93" y="-170" type="line"/>
      <point x="291" y="0" type="line"/>
      <point x="291" y="275" type="line"/>
      <point x="253" y="275" type="line"/>
      <point x="253" y="18" type="line"/>
    </contour>
    <contour>
      <point x="158" y="474" type="curve" smooth="yes"/>
      <point x="158" y="411"/>
      <point x="211" y="361"/>
      <point x="271" y="361" type="curve" smooth="yes"/>
      <point x="334" y="361"/>
      <point x="385" y="414"/>
      <point x="385" y="474" type="curve" smooth="yes"/>
      <point x="385" y="537"/>
      <point x="331" y="588"/>
      <point x="271" y="588" type="curve" smooth="yes"/>
      <point x="208" y="588"/>
      <point x="158" y="534"/>
    </contour>
    <contour>
      <point x="271" y="399" type="curve" smooth="yes"/>
      <point x="230" y="399"/>
      <point x="196" y="433"/>
      <point x="196" y="474" type="curve" smooth="yes"/>
      <point x="196" y="515"/>
      <point x="230" y="549"/>
      <point x="271" y="549" type="curve" smooth="yes"/>
      <point x="312" y="549"/>
      <point x="346" y="515"/>
      <point x="346" y="474" type="curve" smooth="yes"/>
      <point x="346" y="433"/>
      <point x="312" y="399"/>
    </contour>
  </outline>
</glyph>
<glyph name="less" format="1">
  <advance width="580"/>
  <unicode hex="003C"/>
  <outline>
    <contour>
      <point x="102" y="850" type="line" name="hr00"/>
      <point x="492" y="460" type="line"/>
      <point x="519" y="487" type="line"/>
      <point x="156" y="850" type="line"/>
      <point x="519" y="1212" type="line"/>
      <point x="492" y="1239" type="line"/>
    </contour>
  </outline>
</glyph>
<glyph name="equal" format="1">
  <advance width="1024"/>
  <unicode hex="003D"/>
  <outline>
    <contour>
      <point x="102" y="681" type="line" name="hr00"/>
      <point x="917" y="681" type="line"/>
      <point x="917" y="719" type="line"/>
      <point x="102" y="719" type="line"/>
    </contour>
    <contour>
      <point x="102" y="918" type="line"/>
      <point x="917" y="918" type="line"/>
      <point x="917" y="956" type="line"/>
      <point x="102" y="956" type="line"/>
    </contour>
  </outline>
</glyph>
<glyph name="greater" format="1">
  <advance width="546"/>
  <unicode hex="003E"/>
  <outline>
    <contour>
      <point x="102" y="487" type="line" name="hr00"/>
      <point x="130" y="460" type="line"/>
      <point x="519" y="850" type="line"/>
      <point x="130" y="1239" type="line"/>
      <point x="102" y="1212" type="line"/>
      <point x="465" y="850" type="line"/>
    </contour>
  </outline>
</glyph>
<glyph name="question" format="1">
  <advance width="1160"/>
  <unicode hex="003F"/>
  <outline>
    <contour>
      <point x="69" y="1200" type="curve" smooth="yes" name="hr00"/>
      <point x="297" y="1026" type="line"/>
      <point x="321" y="1056" type="line"/>
      <point x="107" y="1219" type="line"/>
      <point x="119" y="1490"/>
      <point x="343" y="1590"/>
      <point x="581" y="1590" type="curve" smooth="yes"/>
      <point x="893" y="1590"/>
      <point x="1067" y="1455"/>
      <point x="1082" y="1080" type="curve"/>
      <point x="777" y="959"/>
      <point x="579" y="713"/>
      <point x="575" y="395" type="curve"/>
      <point x="614" y="395" type="line"/>
      <point x="595" y="693"/>
      <point x="838" y="952"/>
      <point x="1107" y="1048" type="curve"/>
      <point x="1121" y="1053" type="line"/>
      <point x="1106" y="1440"/>
      <point x="970" y="1628"/>
      <point x="581" y="1628" type="curve" smooth="yes"/>
      <point x="296" y="1628"/>
      <point x="69" y="1490"/>
    </contour>
    <contour>
      <point x="580" y="127" type="line"/>
      <point x="585" y="-183" type="line"/>
      <point x="624" y="-182" type="line"/>
      <point x="618" y="128" type="line"/>
    </contour>
  </outline>
</glyph>
<glyph name="at" format="1">
  <advance width="1570"/>
  <unicode hex="0040"/>
  <outline>
    <contour>
      <point x="1228" y="-23" type="curve" smooth="yes"/>
      <point x="1456" y="-23"/>
      <point x="1506" y="321"/>
      <point x="1506" y="521" type="curve" smooth="yes"/>
      <point x="1506" y="922"/>
      <point x="1184" y="1223"/>
      <point x="804" y="1223" type="curve" smooth="yes"/>
      <point x="410" y="1223"/>
      <point x="102" y="896"/>
      <point x="102" y="521" type="curve" smooth="yes"/>
      <point x="102" y="113"/>
      <point x="409" y="-198"/>
      <point x="822" y="-167" type="curve"/>
      <point x="822" y="-130" type="line"/>
      <point x="421" y="-158"/>
      <point x="140" y="146"/>
      <point x="140" y="521" type="curve" smooth="yes"/>
      <point x="140" y="887"/>
      <point x="448" y="1186"/>
      <point x="804" y="1186" type="curve" smooth="yes"/>
      <point x="1177" y="1186"/>
      <point x="1468" y="864"/>
      <point x="1468" y="521" type="curve" smooth="yes"/>
      <point x="1468" y="352"/>
      <point x="1424" y="15"/>
      <point x="1228" y="15" type="curve" smooth="yes"/>
      <point x="1101" y="26"/>
      <point x="1094" y="207"/>
      <point x="1094" y="279" type="curve"/>
      <point x="1083" y="282" type="line"/>
      <point x="1001" y="122"/>
      <point x="804" y="23"/>
      <point x="660" y="23" type="curve" smooth="yes"/>
      <point x="531" y="23"/>
      <point x="452" y="137"/>
      <point x="452" y="253" type="curve" smooth="yes"/>
      <point x="452" y="498"/>
      <point x="774" y="538"/>
      <point x="952" y="538" type="curve" smooth="yes" name="hr01"/>
      <point x="1102" y="538" type="line"/>
      <point x="1095" y="851"/>
      <point x="1081" y="1016"/>
      <point x="803" y="1016" type="curve" smooth="yes"/>
      <point x="658" y="1016"/>
      <point x="527" y="963"/>
      <point x="422" y="857" type="curve"/>
      <point x="488" y="726" type="line"/>
      <point x="522" y="743" type="line"/>
      <point x="468" y="851" type="line"/>
      <point x="556" y="939"/>
      <point x="683" y="978"/>
      <point x="803" y="978" type="curve" smooth="yes" name="hr02"/>
      <point x="1059" y="978"/>
      <point x="1050" y="815"/>
      <point x="1064" y="575" type="curve"/>
      <point x="953" y="575" type="line" smooth="yes"/>
      <point x="734" y="575"/>
      <point x="414" y="519"/>
      <point x="414" y="253" type="curve" smooth="yes"/>
      <point x="414" y="111"/>
      <point x="507" y="-15"/>
      <point x="659" y="-15" type="curve" smooth="yes"/>
      <point x="804" y="-15"/>
      <point x="963" y="67"/>
      <point x="1059" y="183" type="curve"/>
      <point x="1072" y="98"/>
      <point x="1113" y="-23"/>
    </contour>
  </outline>
</glyph>
<glyph name="A" format="1">
  <advance width="1435"/>
  <unicode hex="0041"/>
  <outline>
    <contour>
      <point x="50" y="-1" type="line" name="hr00"/>
      <point x="300" y="-1" type="line"/>
      <point x="300" y="37" type="line"/>
      <point x="156" y="37" type="line"/>
      <point x="347" y="679" type="line"/>
      <point x="706" y="529" type="line"/>
      <point x="1068" y="677" type="line"/>
      <point x="1256" y="37" type="line"/>
      <point x="1136" y="37" type="line"/>
      <point x="1136" y="-1" type="line"/>
      <point x="1385" y="-1" type="line"/>
      <point x="1385" y="37" type="line"/>
      <point x="1296" y="37" type="line"/>
      <point x="842" y="1576" type="line"/>
      <point x="965" y="1576" type="line"/>
      <point x="1004" y="1433" type="line"/>
      <point x="1041" y="1444" type="line"/>
      <point x="979" y="1666" type="line"/>
      <point x="942" y="1656" type="line"/>
      <point x="954" y="1614" type="line"/>
      <point x="464" y="1614" type="line"/>
      <point x="476" y="1656" type="line"/>
      <point x="439" y="1666" type="line"/>
      <point x="377" y="1444" type="line"/>
      <point x="414" y="1433" type="line"/>
      <point x="453" y="1576" type="line"/>
      <point x="574" y="1576" type="line"/>
      <point x="117" y="37" type="line"/>
      <point x="50" y="37" type="line"/>
    </contour>
    <contour>
      <point x="358" y="716" type="line"/>
      <point x="613" y="1576" type="line"/>
      <point x="802" y="1576" type="line"/>
      <point x="1056" y="714" type="line"/>
      <point x="706" y="570" type="line"/>
    </contour>
  </outline>
</glyph>
<glyph name="B" format="1">
  <advance width="1325"/>
  <unicode hex="0042"/>
  <outline>
    <contour>
      <point x="70" y="-1" type="line" name="hr00"/>
      <point x="718" y="-1" type="line" smooth="yes"/>
      <point x="862" y="-1"/>
      <point x="999" y="58"/>
      <point x="1094" y="153" type="curve" smooth="yes"/>
      <point x="1189" y="248"/>
      <point x="1249" y="385"/>
      <point x="1249" y="529" type="curve" smooth="yes"/>
      <point x="1249" y="684"/>
      <point x="1182" y="829"/>
      <point x="1066" y="930" type="curve"/>
      <point x="1102" y="999"/>
      <point x="1120" y="1071"/>
      <point x="1120" y="1147" type="curve" smooth="yes"/>
      <point x="1120" y="1405"/>
      <point x="911" y="1614"/>
      <point x="653" y="1614" type="curve" smooth="yes"/>
      <point x="70" y="1614" type="line"/>
      <point x="70" y="1576" type="line"/>
      <point x="187" y="1576" type="line"/>
      <point x="187" y="37" type="line"/>
      <point x="70" y="37" type="line"/>
    </contour>
    <contour>
      <point x="225" y="37" type="line"/>
      <point x="225" y="1576" type="line"/>
      <point x="653" y="1576" type="line" smooth="yes"/>
      <point x="772" y="1576"/>
      <point x="873" y="1534"/>
      <point x="956" y="1450" type="curve"/>
      <point x="1040" y="1367"/>
      <point x="1082" y="1266"/>
      <point x="1082" y="1147" type="curve" smooth="yes"/>
      <point x="1082" y="1071"/>
      <point x="1063" y="1000"/>
      <point x="1026" y="935" type="curve" smooth="yes"/>
      <point x="1018" y="921" type="line"/>
      <point x="1030" y="911" type="line" smooth="yes"/>
      <point x="1145" y="816"/>
      <point x="1211" y="678"/>
      <point x="1211" y="529" type="curve"/>
      <point x="1217" y="263"/>
      <point x="984" y="31"/>
      <point x="718" y="37" type="curve"/>
    </contour>
  </outline>
</glyph>
<glyph name="C" format="1">
  <advance width="1155"/>
  <unicode hex="0043"/>
  <outline>
    <contour>
      <point x="80" y="798" type="curve" smooth="yes" name="hr00"/>
      <point x="80" y="424"/>
      <point x="289" y="-15"/>
      <point x="679" y="-15" type="curve" smooth="yes"/>
      <point x="840" y="-15"/>
      <point x="991" y="68"/>
      <point x="1104" y="220" type="curve"/>
      <point x="1074" y="243" type="line"/>
      <point x="969" y="102"/>
      <point x="828" y="23"/>
      <point x="679" y="23" type="curve" smooth="yes"/>
      <point x="310" y="23"/>
      <point x="118" y="442"/>
      <point x="118" y="798" type="curve" smooth="yes"/>
      <point x="118" y="1149"/>
      <point x="309" y="1592"/>
      <point x="679" y="1592" type="curve" smooth="yes"/>
      <point x="794" y="1592"/>
      <point x="900" y="1546"/>
      <point x="996" y="1454" type="curve"/>
      <point x="838" y="1296" type="line"/>
      <point x="864" y="1269" type="line"/>
      <point x="1050" y="1454" type="line"/>
      <point x="1036" y="1468" type="line" smooth="yes"/>
      <point x="930" y="1576"/>
      <point x="811" y="1630"/>
      <point x="679" y="1630" type="curve" smooth="yes"/>
      <point x="273" y="1630"/>
      <point x="80" y="1154"/>
    </contour>
  </outline>
</glyph>
<glyph name="D" format="1">
  <advance width="1246"/>
  <unicode hex="0044"/>
  <outline>
    <contour>
      <point x="70" y="0" type="line" name="hr00"/>
      <point x="676" y="0" type="line" smooth="yes"/>
      <point x="1042" y="0"/>
      <point x="1166" y="418"/>
      <point x="1166" y="702" type="curve" smooth="yes"/>
      <point x="1166" y="1033"/>
      <point x="1069" y="1614"/>
      <point x="653" y="1614" type="curve" smooth="yes"/>
      <point x="70" y="1614" type="line"/>
      <point x="70" y="1576" type="line"/>
      <point x="187" y="1576" type="line"/>
      <point x="187" y="36" type="line"/>
      <point x="70" y="36" type="line"/>
    </contour>
    <contour>
      <point x="224" y="36" type="line"/>
      <point x="224" y="1576" type="line"/>
      <point x="653" y="1576" type="line" smooth="yes"/>
      <point x="1055" y="1576"/>
      <point x="1128" y="985"/>
      <point x="1128" y="702" type="curve" smooth="yes"/>
      <point x="1128" y="417"/>
      <point x="1006" y="36"/>
      <point x="676" y="36" type="curve" smooth="yes"/>
    </contour>
  </outline>
</glyph>
<glyph name="E" format="1">
  <advance width="1338"/>
  <unicode hex="0045"/>
  <outline>
    <contour>
      <point x="70" y="0" type="line" name="hr00"/>
      <point x="1024" y="0" type="line"/>
      <point x="972" y="-51" type="line"/>
      <point x="998" y="-78" type="line"/>
      <point x="1298" y="212" type="line"/>
      <point x="1271" y="239" type="line"/>
      <point x="1064" y="38" type="line"/>
      <point x="224" y="38" type="line"/>
      <point x="224" y="879" type="line"/>
      <point x="767" y="879" type="line"/>
      <point x="767" y="781" type="line"/>
      <point x="805" y="781" type="line"/>
      <point x="805" y="1030" type="line"/>
      <point x="767" y="1030" type="line"/>
      <point x="767" y="917" type="line"/>
      <point x="224" y="917" type="line"/>
      <point x="224" y="1576" type="line"/>
      <point x="890" y="1576" type="line"/>
      <point x="1086" y="1424" type="line"/>
      <point x="1110" y="1453" type="line"/>
      <point x="798" y="1696" type="line"/>
      <point x="774" y="1666" type="line"/>
      <point x="842" y="1614" type="line"/>
      <point x="70" y="1614" type="line"/>
      <point x="70" y="1576" type="line"/>
      <point x="187" y="1576" type="line"/>
      <point x="187" y="38" type="line"/>
      <point x="70" y="38" type="line"/>
    </contour>
  </outline>
</glyph>
<glyph name="F" format="1">
  <advance width="1214"/>
  <unicode hex="0046"/>
  <outline>
    <contour>
      <point x="70" y="-2" type="line" name="hr00"/>
      <point x="397" y="-2" type="line"/>
      <point x="397" y="36" type="line"/>
      <point x="246" y="36" type="line"/>
      <point x="246" y="879" type="line"/>
      <point x="808" y="879" type="line"/>
      <point x="808" y="781" type="line"/>
      <point x="845" y="781" type="line"/>
      <point x="845" y="1030" type="line"/>
      <point x="808" y="1030" type="line"/>
      <point x="808" y="917" type="line"/>
      <point x="246" y="917" type="line"/>
      <point x="246" y="1576" type="line"/>
      <point x="954" y="1576" type="line"/>
      <point x="1151" y="1424" type="line"/>
      <point x="1174" y="1453" type="line"/>
      <point x="967" y="1614" type="line"/>
      <point x="92" y="1614" type="line"/>
      <point x="92" y="1576" type="line"/>
      <point x="208" y="1576" type="line"/>
      <point x="208" y="36" type="line"/>
      <point x="70" y="36" type="line"/>
    </contour>
  </outline>
</glyph>
<glyph name="G" format="1">
  <advance width="1270"/>
  <unicode hex="0047"/>
  <outline>
    <contour>
      <point x="80" y="706" type="curve" smooth="yes" name="hr00"/>
      <point x="80" y="268"/>
      <point x="252" y="-16"/>
      <point x="679" y="-16" type="curve" smooth="yes"/>
      <point x="947" y="-16"/>
      <point x="1105" y="213"/>
      <point x="1152" y="400" type="curve"/>
      <point x="1152" y="120" type="line"/>
      <point x="1190" y="120" type="line"/>
      <point x="1190" y="732" type="line"/>
      <point x="920" y="732" type="line"/>
      <point x="920" y="694" type="line"/>
      <point x="1148" y="694" type="line"/>
      <point x="1148" y="622" type="line" smooth="yes"/>
      <point x="1148" y="293"/>
      <point x="953" y="22"/>
      <point x="679" y="22" type="curve" smooth="yes"/>
      <point x="260" y="22"/>
      <point x="118" y="310"/>
      <point x="118" y="706" type="curve" smooth="yes"/>
      <point x="118" y="1158"/>
      <point x="256" y="1592"/>
      <point x="679" y="1592" type="curve" smooth="yes"/>
      <point x="830" y="1592"/>
      <point x="968" y="1529"/>
      <point x="1024" y="1407" type="curve"/>
      <point x="903" y="1187" type="line"/>
      <point x="936" y="1169" type="line"/>
      <point x="1067" y="1408" type="line"/>
      <point x="988" y="1573"/>
      <point x="834" y="1630"/>
      <point x="679" y="1630" type="curve" smooth="yes"/>
      <point x="226" y="1630"/>
      <point x="80" y="1161"/>
    </contour>
  </outline>
</glyph>
<glyph name="H" format="1">
  <advance width="1463"/>
  <unicode hex="0048"/>
  <outline>
    <contour>
      <point x="70" y="0" type="line" name="hr00"/>
      <point x="397" y="0" type="line"/>
      <point x="397" y="38" type="line"/>
      <point x="246" y="38" type="line"/>
      <point x="246" y="842" type="line"/>
      <point x="718" y="696" type="line"/>
      <point x="724" y="695" type="line"/>
      <point x="1218" y="844" type="line"/>
      <point x="1218" y="38" type="line"/>
      <point x="1066" y="38" type="line"/>
      <point x="1066" y="0" type="line"/>
      <point x="1393" y="0" type="line"/>
      <point x="1393" y="38" type="line"/>
      <point x="1256" y="38" type="line"/>
      <point x="1256" y="1576" type="line"/>
      <point x="1393" y="1576" type="line"/>
      <point x="1393" y="1614" type="line"/>
      <point x="1066" y="1614" type="line"/>
      <point x="1066" y="1576" type="line"/>
      <point x="1218" y="1576" type="line"/>
      <point x="1218" y="884" type="line"/>
      <point x="724" y="734" type="line"/>
      <point x="246" y="881" type="line"/>
      <point x="246" y="1576" type="line"/>
      <point x="397" y="1576" type="line"/>
      <point x="397" y="1614" type="line"/>
      <point x="70" y="1614" type="line"/>
      <point x="70" y="1576" type="line"/>
      <point x="208" y="1576" type="line"/>
      <point x="208" y="38" type="line"/>
      <point x="70" y="38" type="line"/>
    </contour>
  </outline>
</glyph>
<glyph name="J" format="1">
  <advance width="1024"/>
  <unicode hex="004A"/>
  <outline>
    <contour>
      <point x="68" y="378" type="curve" name="hr00"/>
      <point x="228" y="478" type="line"/>
      <point x="248" y="446" type="line"/>
      <point x="106" y="358" type="line"/>
      <point x="116" y="153"/>
      <point x="249" y="23"/>
      <point x="450" y="23" type="curve" smooth="yes"/>
      <point x="672" y="23"/>
      <point x="772" y="182"/>
      <point x="772" y="426" type="curve" smooth="yes"/>
      <point x="772" y="1576" type="line"/>
      <point x="627" y="1576" type="line"/>
      <point x="627" y="1614" type="line"/>
      <point x="954" y="1614" type="line"/>
      <point x="954" y="1576" type="line"/>
      <point x="810" y="1576" type="line"/>
      <point x="810" y="426" type="line" smooth="yes"/>
      <point x="810" y="165"/>
      <point x="685" y="-14"/>
      <point x="450" y="-14" type="curve" smooth="yes"/>
      <point x="218" y="-14"/>
      <point x="68" y="150"/>
    </contour>
  </outline>
</glyph>
<glyph name="K" format="1">
  <advance width="1281"/>
  <unicode hex="004B"/>
  <outline>
    <contour>
      <point x="70" y="0" type="line" name="hr00"/>
      <point x="397" y="0" type="line"/>
      <point x="397" y="38" type="line"/>
      <point x="253" y="38" type="line"/>
      <point x="253" y="738" type="line"/>
      <point x="438" y="924" type="line"/>
      <point x="1014" y="38" type="line"/>
      <point x="884" y="38" type="line"/>
      <point x="884" y="0" type="line"/>
      <point x="1218" y="0" type="line"/>
      <point x="1218" y="38" type="line"/>
      <point x="1060" y="38" type="line"/>
      <point x="465" y="952" type="line"/>
      <point x="1083" y="1576" type="line"/>
      <point x="1230" y="1576" type="line"/>
      <point x="1230" y="1614" type="line"/>
      <point x="903" y="1614" type="line"/>
      <point x="903" y="1576" type="line"/>
      <point x="1030" y="1576" type="line"/>
      <point x="253" y="792" type="line"/>
      <point x="253" y="1576" type="line"/>
      <point x="397" y="1576" type="line"/>
      <point x="397" y="1614" type="line"/>
      <point x="70" y="1614" type="line"/>
      <point x="70" y="1576" type="line"/>
      <point x="215" y="1576" type="line"/>
      <point x="215" y="754" type="line"/>
      <point x="212" y="750" type="line"/>
      <point x="215" y="746" type="line"/>
      <point x="215" y="38" type="line"/>
      <point x="70" y="38" type="line"/>
    </contour>
  </outline>
</glyph>
<glyph name="L" format="1">
  <advance width="1318"/>
  <unicode hex="004C"/>
  <outline>
    <contour>
      <point x="70" y="0" type="line" name="hr00"/>
      <point x="70" y="38" type="line"/>
      <point x="215" y="38" type="line"/>
      <point x="215" y="1576" type="line"/>
      <point x="70" y="1576" type="line"/>
      <point x="70" y="1614" type="line"/>
      <point x="397" y="1614" type="line"/>
      <point x="397" y="1576" type="line"/>
      <point x="253" y="1576" type="line"/>
      <point x="253" y="38" type="line"/>
      <point x="1092" y="38" type="line"/>
      <point x="1092" y="33" type="line"/>
      <point x="1237" y="230" type="line"/>
      <point x="1268" y="207" type="line"/>
      <point x="1040" y="-101" type="line"/>
      <point x="1010" y="-78" type="line"/>
      <point x="1068" y="0" type="line"/>
    </contour>
  </outline>
</glyph>
<glyph name="M" format="1">
  <advance width="1774"/>
  <unicode hex="004D"/>
  <outline>
    <contour>
      <point x="28" y="0" type="line" name="hr00"/>
      <point x="28" y="38" type="line"/>
      <point x="136" y="38" type="line"/>
      <point x="396" y="1670" type="line"/>
      <point x="886" y="327" type="line"/>
      <point x="1401" y="1669" type="line"/>
      <point x="1638" y="38" type="line"/>
      <point x="1745" y="38" type="line"/>
      <point x="1745" y="0" type="line"/>
      <point x="1496" y="0" type="line"/>
      <point x="1496" y="38" type="line"/>
      <point x="1599" y="38" type="line"/>
      <point x="1384" y="1520" type="line"/>
      <point x="885" y="219" type="line"/>
      <point x="410" y="1520" type="line"/>
      <point x="174" y="38" type="line"/>
      <point x="278" y="38" type="line"/>
      <point x="278" y="0" type="line"/>
    </contour>
  </outline>
</glyph>
<glyph name="N" format="1">
  <advance width="1486"/>
  <unicode hex="004E"/>
  <outline>
    <contour>
      <point x="70" y="0" type="line" name="hr00"/>
      <point x="70" y="38" type="line"/>
      <point x="214" y="38" type="line"/>
      <point x="214" y="1576" type="line"/>
      <point x="70" y="1576" type="line"/>
      <point x="70" y="1614" type="line"/>
      <point x="280" y="1614" type="line"/>
      <point x="1244" y="82" type="line"/>
      <point x="1243" y="1576" type="line"/>
      <point x="1099" y="1576" type="line"/>
      <point x="1099" y="1614" type="line"/>
      <point x="1426" y="1614" type="line"/>
      <point x="1426" y="1576" type="line"/>
      <point x="1281" y="1576" type="line"/>
      <point x="1282" y="-49" type="line"/>
      <point x="260" y="1576" type="line"/>
      <point x="252" y="1576" type="line"/>
      <point x="252" y="38" type="line"/>
      <point x="397" y="38" type="line"/>
      <point x="397" y="0" type="line"/>
    </contour>
  </outline>
</glyph>
<glyph name="O" format="1">
  <advance width="1358"/>
  <unicode hex="004F"/>
  <outline>
    <contour>
      <point x="80" y="820" type="curve" smooth="yes" name="hr00"/>
      <point x="80" y="454"/>
      <point x="285" y="-15"/>
      <point x="677" y="-15" type="curve" smooth="yes"/>
      <point x="1086" y="-15"/>
      <point x="1278" y="468"/>
      <point x="1278" y="820" type="curve" smooth="yes"/>
      <point x="1278" y="1197"/>
      <point x="1070" y="1628"/>
      <point x="680" y="1630" type="curve" smooth="yes"/>
      <point x="307" y="1635"/>
      <point x="80" y="1231"/>
    </contour>
    <contour>
      <point x="118" y="820" type="curve" smooth="yes"/>
      <point x="118" y="1173"/>
      <point x="310" y="1593"/>
      <point x="679" y="1593" type="curve" smooth="yes"/>
      <point x="1047" y="1593"/>
      <point x="1240" y="1179"/>
      <point x="1240" y="820" type="curve" smooth="yes"/>
      <point x="1240" y="470"/>
      <point x="1050" y="23"/>
      <point x="679" y="23" type="curve" smooth="yes"/>
      <point x="310" y="23"/>
      <point x="118" y="463"/>
    </contour>
  </outline>
</glyph>
<glyph name="P" format="1">
  <advance width="1259"/>
  <unicode hex="0050"/>
  <outline>
    <contour>
      <point x="70" y="0" type="line" name="hr00"/>
      <point x="398" y="0" type="line"/>
      <point x="398" y="38" type="line"/>
      <point x="248" y="38" type="line"/>
      <point x="248" y="696" type="line"/>
      <point x="699" y="696" type="line" smooth="yes"/>
      <point x="975" y="696"/>
      <point x="1189" y="865"/>
      <point x="1189" y="1146" type="curve" smooth="yes"/>
      <point x="1189" y="1458"/>
      <point x="960" y="1614"/>
      <point x="676" y="1614" type="curve" smooth="yes"/>
      <point x="94" y="1614" type="line"/>
      <point x="94" y="1576" type="line"/>
      <point x="210" y="1576" type="line"/>
      <point x="210" y="38" type="line"/>
      <point x="70" y="38" type="line"/>
    </contour>
    <contour>
      <point x="248" y="734" type="line"/>
      <point x="248" y="1576" type="line"/>
      <point x="680" y="1576" type="line" smooth="yes"/>
      <point x="960" y="1576"/>
      <point x="1151" y="1422"/>
      <point x="1151" y="1146" type="curve" smooth="yes"/>
      <point x="1151" y="913"/>
      <point x="991" y="734"/>
      <point x="700" y="734" type="curve" smooth="yes"/>
    </contour>
  </outline>
</glyph>
<glyph name="Q" format="1">
  <advance width="1421"/>
  <unicode hex="0051"/>
  <outline>
    <contour>
      <point x="714" y="692" type="line" name="hr00"/>
      <point x="688" y="666" type="line"/>
      <point x="1570" y="-217" type="line"/>
      <point x="1416" y="-390" type="line"/>
      <point x="1444" y="-416" type="line"/>
      <point x="1610" y="-229" type="line"/>
      <point x="1610" y="-203" type="line"/>
    </contour>
    <contour>
      <point x="97" y="820" type="curve" smooth="yes"/>
      <point x="97" y="454"/>
      <point x="302" y="-15"/>
      <point x="694" y="-15" type="curve" smooth="yes"/>
      <point x="1103" y="-15"/>
      <point x="1295" y="468"/>
      <point x="1295" y="820" type="curve" smooth="yes"/>
      <point x="1295" y="1197"/>
      <point x="1087" y="1628"/>
      <point x="697" y="1630" type="curve"/>
      <point x="324" y="1635"/>
      <point x="97" y="1231"/>
    </contour>
    <contour>
      <point x="135" y="820" type="curve" smooth="yes"/>
      <point x="135" y="1173"/>
      <point x="327" y="1593"/>
      <point x="696" y="1593" type="curve" smooth="yes"/>
      <point x="1064" y="1593"/>
      <point x="1257" y="1179"/>
      <point x="1257" y="820" type="curve" smooth="yes"/>
      <point x="1257" y="470"/>
      <point x="1067" y="23"/>
      <point x="696" y="23" type="curve" smooth="yes"/>
      <point x="327" y="23"/>
      <point x="135" y="463"/>
    </contour>
  </outline>
</glyph>
<glyph name="R" format="1">
  <advance width="1340"/>
  <unicode hex="0052"/>
  <outline>
    <contour>
      <point x="70" y="0" type="line" name="hr00"/>
      <point x="398" y="0" type="line"/>
      <point x="398" y="38" type="line"/>
      <point x="256" y="38" type="line"/>
      <point x="256" y="696" type="line"/>
      <point x="696" y="697" type="line"/>
      <point x="1035" y="0" type="line"/>
      <point x="1262" y="0" type="line"/>
      <point x="1262" y="38" type="line"/>
      <point x="1058" y="38" type="line"/>
      <point x="738" y="696" type="line"/>
      <point x="1023" y="706"/>
      <point x="1198" y="889"/>
      <point x="1198" y="1146" type="curve" smooth="yes"/>
      <point x="1198" y="1436"/>
      <point x="975" y="1614"/>
      <point x="685" y="1614" type="curve" smooth="yes"/>
      <point x="102" y="1614" type="line"/>
      <point x="102" y="1576" type="line"/>
      <point x="218" y="1576" type="line"/>
      <point x="218" y="38" type="line"/>
      <point x="70" y="38" type="line"/>
    </contour>
    <contour>
      <point x="256" y="734" type="line"/>
      <point x="256" y="1576" type="line"/>
      <point x="684" y="1576" type="line" smooth="yes"/>
      <point x="956" y="1576"/>
      <point x="1160" y="1410"/>
      <point x="1160" y="1146" type="curve" smooth="yes"/>
      <point x="1160" y="903"/>
      <point x="1002" y="733"/>
      <point x="708" y="734" type="curve" smooth="yes"/>
    </contour>
  </outline>
</glyph>
<glyph name="S" format="1">
  <advance width="1232"/>
  <unicode hex="0053"/>
  <outline>
    <contour>
      <point x="90" y="331" type="line" name="hr00"/>
      <point x="222" y="-28" type="line"/>
      <point x="257" y="-14" type="line"/>
      <point x="219" y="90" type="line"/>
      <point x="322" y="27"/>
      <point x="441" y="-5"/>
      <point x="574" y="-5" type="curve" smooth="yes"/>
      <point x="833" y="-5"/>
      <point x="1162" y="162"/>
      <point x="1162" y="444" type="curve" smooth="yes"/>
      <point x="1162" y="1086"/>
      <point x="152" y="709"/>
      <point x="152" y="1255" type="curve" smooth="yes"/>
      <point x="152" y="1484"/>
      <point x="391" y="1593"/>
      <point x="574" y="1593" type="curve" smooth="yes"/>
      <point x="689" y="1593"/>
      <point x="787" y="1562"/>
      <point x="868" y="1500" type="curve"/>
      <point x="918" y="1320" type="line"/>
      <point x="954" y="1331" type="line"/>
      <point x="874" y="1617" type="line"/>
      <point x="838" y="1607" type="line"/>
      <point x="852" y="1557" type="line"/>
      <point x="771" y="1606"/>
      <point x="678" y="1631"/>
      <point x="574" y="1631" type="curve" smooth="yes"/>
      <point x="357" y="1631"/>
      <point x="114" y="1496"/>
      <point x="114" y="1255" type="curve" smooth="yes"/>
      <point x="114" y="670"/>
      <point x="1124" y="1042"/>
      <point x="1124" y="444" type="curve" smooth="yes"/>
      <point x="1124" y="186"/>
      <point x="814" y="32"/>
      <point x="574" y="32" type="curve" smooth="yes"/>
      <point x="428" y="32"/>
      <point x="302" y="72"/>
      <point x="196" y="151" type="curve"/>
      <point x="126" y="344" type="line"/>
    </contour>
  </outline>
</glyph>
<glyph name="T" format="1">
  <advance width="1140"/>
  <unicode hex="0054"/>
  <outline>
    <contour>
      <point x="30" y="1444" type="line" name="hr00"/>
      <point x="91" y="1666" type="line"/>
      <point x="128" y="1656" type="line"/>
      <point x="117" y="1614" type="line"/>
      <point x="1023" y="1614" type="line"/>
      <point x="1012" y="1656" type="line"/>
      <point x="1048" y="1666" type="line"/>
      <point x="1110" y="1444" type="line"/>
      <point x="1073" y="1433" type="line"/>
      <point x="1030" y="1576" type="line"/>
      <point x="589" y="1576" type="line"/>
      <point x="589" y="37" type="line"/>
      <point x="733" y="37" type="line"/>
      <point x="733" y="-1" type="line"/>
      <point x="407" y="-1" type="line"/>
      <point x="407" y="37" type="line"/>
      <point x="551" y="37" type="line"/>
      <point x="551" y="1576" type="line"/>
      <point x="106" y="1576" type="line"/>
      <point x="67" y="1433" type="line"/>
    </contour>
  </outline>
</glyph>
<glyph name="U" format="1">
  <advance width="1411"/>
  <unicode hex="0055"/>
  <outline>
    <contour>
      <point x="70" y="1576" type="line" name="hr00"/>
      <point x="70" y="1614" type="line"/>
      <point x="397" y="1614" type="line"/>
      <point x="397" y="1576" type="line"/>
      <point x="257" y="1576" type="line"/>
      <point x="257" y="446" type="line" smooth="yes"/>
      <point x="257" y="168"/>
      <point x="479" y="36"/>
      <point x="709" y="36" type="curve" smooth="yes"/>
      <point x="976" y="36"/>
      <point x="1155" y="198"/>
      <point x="1155" y="458" type="curve" smooth="yes"/>
      <point x="1155" y="1576" type="line"/>
      <point x="1015" y="1576" type="line"/>
      <point x="1015" y="1614" type="line"/>
      <point x="1341" y="1614" type="line"/>
      <point x="1341" y="1576" type="line"/>
      <point x="1193" y="1576" type="line"/>
      <point x="1193" y="460" type="line" smooth="yes"/>
      <point x="1193" y="161"/>
      <point x="986" y="-2"/>
      <point x="709" y="-2" type="curve" smooth="yes"/>
      <point x="462" y="-2"/>
      <point x="219" y="129"/>
      <point x="219" y="446" type="curve" smooth="yes"/>
      <point x="219" y="1576" type="line"/>
    </contour>
  </outline>
</glyph>
<glyph name="V" format="1">
  <advance width="1532"/>
  <unicode hex="0056"/>
  <outline>
    <contour>
      <point x="40" y="1576" type="line" name="hr00"/>
      <point x="40" y="1614" type="line"/>
      <point x="367" y="1614" type="line"/>
      <point x="367" y="1576" type="line"/>
      <point x="226" y="1576" type="line"/>
      <point x="766" y="57" type="line"/>
      <point x="1310" y="1576" type="line"/>
      <point x="1165" y="1576" type="line"/>
      <point x="1165" y="1614" type="line"/>
      <point x="1492" y="1614" type="line"/>
      <point x="1492" y="1576" type="line"/>
      <point x="1350" y="1576" type="line"/>
      <point x="781" y="-14" type="line"/>
      <point x="750" y="-14" type="line"/>
      <point x="186" y="1576" type="line"/>
    </contour>
  </outline>
</glyph>
<glyph name="W" format="1">
  <advance width="1740"/>
  <unicode hex="0057"/>
  <outline>
    <contour>
      <point x="35" y="1576" type="line" name="hr00"/>
      <point x="35" y="1614" type="line"/>
      <point x="305" y="1614" type="line"/>
      <point x="305" y="1576" type="line"/>
      <point x="192" y="1576" type="line"/>
      <point x="633" y="88" type="line"/>
      <point x="855" y="1056" type="line"/>
      <point x="891" y="1056" type="line"/>
      <point x="1107" y="88" type="line"/>
      <point x="1551" y="1576" type="line"/>
      <point x="1434" y="1576" type="line"/>
      <point x="1434" y="1614" type="line"/>
      <point x="1704" y="1614" type="line"/>
      <point x="1704" y="1576" type="line"/>
      <point x="1591" y="1576" type="line"/>
      <point x="1131" y="38" type="line"/>
      <point x="1244" y="38" type="line"/>
      <point x="1244" y="0" type="line"/>
      <point x="974" y="0" type="line"/>
      <point x="974" y="38" type="line"/>
      <point x="1079" y="38" type="line"/>
      <point x="873" y="966" type="line"/>
      <point x="660" y="38" type="line"/>
      <point x="775" y="38" type="line"/>
      <point x="775" y="0" type="line"/>
      <point x="505" y="0" type="line"/>
      <point x="505" y="38" type="line"/>
      <point x="608" y="38" type="line"/>
      <point x="153" y="1576" type="line"/>
    </contour>
  </outline>
</glyph>
<glyph name="Y" format="1">
  <advance width="1331"/>
  <unicode hex="0059"/>
  <outline>
    <contour>
      <point x="34" y="1576" type="line" name="hr00"/>
      <point x="174" y="1576" type="line"/>
      <point x="642" y="907" type="line"/>
      <point x="642" y="38" type="line"/>
      <point x="526" y="38" type="line"/>
      <point x="526" y="0" type="line"/>
      <point x="796" y="0" type="line"/>
      <point x="796" y="38" type="line"/>
      <point x="680" y="38" type="line"/>
      <point x="680" y="908" type="line"/>
      <point x="1148" y="1576" type="line"/>
      <point x="1296" y="1576" type="line"/>
      <point x="1296" y="1614" type="line"/>
      <point x="1026" y="1614" type="line"/>
      <point x="1026" y="1576" type="line"/>
      <point x="1102" y="1576" type="line"/>
      <point x="661" y="946" type="line"/>
      <point x="221" y="1576" type="line"/>
      <point x="304" y="1576" type="line"/>
      <point x="304" y="1614" type="line"/>
      <point x="34" y="1614" type="line"/>
    </contour>
  </outline>
</glyph>
<glyph name="bracketleft" format="1">
  <advance width="546"/>
  <unicode hex="005B"/>
  <outline>
    <contour>
      <point x="171" y="-1" type="line" name="hr00"/>
      <point x="171" y="1614" type="line"/>
      <point x="501" y="1614" type="line"/>
      <point x="501" y="1576" type="line"/>
      <point x="208" y="1576" type="line"/>
      <point x="208" y="37" type="line"/>
      <point x="501" y="37" type="line"/>
      <point x="501" y="-1" type="line"/>
    </contour>
  </outline>
</glyph>
<glyph name="bracketright" format="1">
  <advance width="580"/>
  <unicode hex="005D"/>
  <outline>
    <contour>
      <point x="102" y="-2" type="line" name="hr00"/>
      <point x="102" y="36" type="line"/>
      <point x="395" y="36" type="line"/>
      <point x="395" y="1576" type="line"/>
      <point x="102" y="1576" type="line"/>
      <point x="102" y="1614" type="line"/>
      <point x="433" y="1614" type="line"/>
      <point x="433" y="-2" type="line"/>
    </contour>
  </outline>
</glyph>
<glyph name="asciicircum" format="1">
  <advance width="921"/>
  <unicode hex="005E"/>
  <outline>
    <contour>
      <point x="205" y="1856" type="line" name="hr00"/>
      <point x="227" y="1824" type="line"/>
      <point x="469" y="2000" type="line"/>
      <point x="733" y="1824" type="line"/>
      <point x="754" y="1856" type="line"/>
      <point x="468" y="2046" type="line"/>
    </contour>
  </outline>
</glyph>
<glyph name="underscore" format="1">
  <advance width="1058"/>
  <unicode hex="005F"/>
  <outline>
    <contour>
      <point x="137" y="-1" type="line"/>
      <point x="951" y="-1" type="line"/>
      <point x="951" y="37" type="line" name="hr01"/>
      <point x="137" y="37" type="line"/>
    </contour>
  </outline>
</glyph>
<glyph name="grave" format="1">
  <advance width="1024"/>
  <unicode hex="0060"/>
  <outline>
    <contour>
      <point x="205" y="2018" type="line" name="hr00"/>
      <point x="855" y="1814" type="line"/>
      <point x="866" y="1851" type="line"/>
      <point x="216" y="2055" type="line"/>
    </contour>
  </outline>
</glyph>
<glyph name="a" format="1">
  <advance width="929"/>
  <unicode hex="0061"/>
  <outline>
    <contour>
      <point x="80" y="253" type="curve" smooth="yes"/>
      <point x="80" y="111"/>
      <point x="173" y="-15"/>
      <point x="325" y="-15" type="curve" smooth="yes"/>
      <point x="470" y="-15"/>
      <point x="629" y="67"/>
      <point x="725" y="183" type="curve"/>
      <point x="738" y="98"/>
      <point x="773" y="0"/>
      <point x="864" y="0" type="curve" name="hr01"/>
      <point x="864" y="38" type="line"/>
      <point x="758" y="41"/>
      <point x="760" y="210"/>
      <point x="760" y="279" type="curve"/>
      <point x="749" y="282" type="line"/>
      <point x="667" y="122"/>
      <point x="470" y="23"/>
      <point x="326" y="23" type="curve" smooth="yes"/>
      <point x="197" y="23"/>
      <point x="118" y="137"/>
      <point x="118" y="253" type="curve" smooth="yes"/>
      <point x="118" y="498"/>
      <point x="440" y="538"/>
      <point x="618" y="538" type="curve" smooth="yes"/>
      <point x="768" y="538" type="line"/>
      <point x="761" y="851"/>
      <point x="747" y="1016"/>
      <point x="469" y="1016" type="curve" smooth="yes"/>
      <point x="324" y="1016"/>
      <point x="193" y="963"/>
      <point x="88" y="857" type="curve"/>
      <point x="154" y="726" type="line"/>
      <point x="188" y="743" type="line"/>
      <point x="134" y="851" type="line"/>
      <point x="222" y="939"/>
      <point x="349" y="978"/>
      <point x="469" y="978" type="curve" smooth="yes"/>
      <point x="725" y="978"/>
      <point x="716" y="815"/>
      <point x="730" y="575" type="curve"/>
      <point x="619" y="575" type="line" smooth="yes"/>
      <point x="400" y="575"/>
      <point x="80" y="519"/>
    </contour>
  </outline>
</glyph>
<glyph name="b" format="1">
  <advance width="1001"/>
  <unicode hex="0062"/>
  <outline>
    <contour>
      <point x="25" y="1528" type="line"/>
      <point x="201" y="1611" type="line"/>
      <point x="201" y="190" type="line"/>
      <point x="270" y="54"/>
      <point x="404" y="23"/>
      <point x="515" y="23" type="curve" smooth="yes"/>
      <point x="806" y="24"/>
      <point x="904" y="344"/>
      <point x="904" y="573" type="curve" smooth="yes"/>
      <point x="904" y="747"/>
      <point x="825" y="984"/>
      <point x="622" y="984" type="curve" smooth="yes"/>
      <point x="504" y="984"/>
      <point x="401" y="906"/>
      <point x="325" y="830" type="curve"/>
      <point x="299" y="856" type="line"/>
      <point x="390" y="944"/>
      <point x="498" y="1022"/>
      <point x="622" y="1022" type="curve" smooth="yes"/>
      <point x="854" y="1022"/>
      <point x="941" y="772"/>
      <point x="941" y="573" type="curve" smooth="yes"/>
      <point x="941" y="308"/>
      <point x="825" y="-15"/>
      <point x="519" y="-15" type="curve" smooth="yes"/>
      <point x="399" y="-15"/>
      <point x="256" y="32"/>
      <point x="201" y="123" type="curve"/>
      <point x="201" y="0" type="line" name="hr01"/>
      <point x="164" y="0" type="line"/>
      <point x="164" y="1552" type="line"/>
      <point x="41" y="1494" type="line"/>
    </contour>
  </outline>
</glyph>
<glyph name="c" format="1">
  <advance width="964"/>
  <unicode hex="0063"/>
  <outline>
    <contour>
      <point x="541" y="-15" type="curve" smooth="yes" name="hr00"/>
      <point x="694" y="-15"/>
      <point x="831" y="66"/>
      <point x="914" y="187" type="curve"/>
      <point x="883" y="208" type="line"/>
      <point x="798" y="91"/>
      <point x="674" y="23"/>
      <point x="538" y="23" type="curve" smooth="yes"/>
      <point x="256" y="23"/>
      <point x="98" y="260"/>
      <point x="98" y="518" type="curve" smooth="yes"/>
      <point x="98" y="769"/>
      <point x="296" y="978"/>
      <point x="521" y="978" type="curve" smooth="yes"/>
      <point x="631" y="978"/>
      <point x="735" y="933"/>
      <point x="812" y="860" type="curve"/>
      <point x="726" y="712" type="line"/>
      <point x="759" y="694" type="line"/>
      <point x="859" y="867" type="line"/>
      <point x="760" y="966"/>
      <point x="641" y="1017"/>
      <point x="525" y="1015" type="curve" smooth="yes"/>
      <point x="261" y="1015"/>
      <point x="60" y="778"/>
      <point x="60" y="517" type="curve" smooth="yes"/>
      <point x="60" y="221"/>
      <point x="253" y="-15"/>
    </contour>
  </outline>
</glyph>
<glyph name="d" format="1">
  <advance width="1045"/>
  <unicode hex="0064"/>
  <outline>
    <contour>
      <point x="60" y="566" type="curve" smooth="yes" name="hr00"/>
      <point x="60" y="573" type="line" smooth="yes"/>
      <point x="60" y="804"/>
      <point x="219" y="1003"/>
      <point x="453" y="1003" type="curve" smooth="yes"/>
      <point x="553" y="1003"/>
      <point x="646" y="965"/>
      <point x="712" y="897" type="curve"/>
      <point x="685" y="871" type="line"/>
      <point x="622" y="936"/>
      <point x="540" y="966"/>
      <point x="455" y="966" type="curve" smooth="yes"/>
      <point x="233" y="966"/>
      <point x="98" y="780"/>
      <point x="98" y="573" type="curve" smooth="yes"/>
      <point x="98" y="226"/>
      <point x="246" y="23"/>
      <point x="529" y="23" type="curve" smooth="yes"/>
      <point x="646" y="23"/>
      <point x="753" y="86"/>
      <point x="800" y="185" type="curve"/>
      <point x="800" y="1555" type="line"/>
      <point x="636" y="1493" type="line"/>
      <point x="623" y="1529" type="line"/>
      <point x="838" y="1609" type="line"/>
      <point x="838" y="45" type="line"/>
      <point x="984" y="92" type="line"/>
      <point x="995" y="56" type="line"/>
      <point x="800" y="-6" type="line"/>
      <point x="800" y="122" type="line"/>
      <point x="774" y="79"/>
      <point x="668" y="-15"/>
      <point x="529" y="-15" type="curve" smooth="yes"/>
      <point x="208" y="-15"/>
      <point x="60" y="225"/>
    </contour>
  </outline>
</glyph>
<glyph name="e" format="1">
  <advance width="962"/>
  <unicode hex="0065"/>
  <outline>
    <contour>
      <point x="539" y="-15" type="curve" smooth="yes" name="hr00"/>
      <point x="691" y="-15"/>
      <point x="829" y="69"/>
      <point x="912" y="190" type="curve"/>
      <point x="881" y="211" type="line"/>
      <point x="796" y="94"/>
      <point x="672" y="23"/>
      <point x="536" y="23" type="curve" smooth="yes"/>
      <point x="281" y="23"/>
      <point x="97" y="267"/>
      <point x="97" y="525" type="curve" smooth="yes"/>
      <point x="97" y="768"/>
      <point x="285" y="979"/>
      <point x="521" y="979" type="curve" smooth="yes"/>
      <point x="630" y="979"/>
      <point x="729" y="933"/>
      <point x="805" y="866" type="curve"/>
      <point x="255" y="451" type="line"/>
      <point x="277" y="421" type="line"/>
      <point x="863" y="862" type="line"/>
      <point x="757" y="968"/>
      <point x="639" y="1017"/>
      <point x="523" y="1017" type="curve" smooth="yes"/>
      <point x="252" y="1017"/>
      <point x="60" y="776"/>
      <point x="60" y="523" type="curve" smooth="yes"/>
      <point x="60" y="231"/>
      <point x="273" y="-15"/>
    </contour>
  </outline>
</glyph>
<glyph name="f" format="1">
  <advance width="655"/>
  <unicode hex="0066"/>
  <outline>
    <contour>
      <point x="35" y="961" type="line" name="hr00"/>
      <point x="121" y="959"/>
      <point x="296" y="927"/>
      <point x="296" y="821" type="curve" smooth="yes"/>
      <point x="296" y="177" type="line" smooth="yes"/>
      <point x="296" y="116"/>
      <point x="322" y="69"/>
      <point x="373" y="38" type="curve"/>
      <point x="120" y="38" type="line"/>
      <point x="120" y="0" type="line"/>
      <point x="510" y="0" type="line"/>
      <point x="510" y="38" type="line"/>
      <point x="424" y="41"/>
      <point x="334" y="84"/>
      <point x="334" y="177" type="curve" smooth="yes"/>
      <point x="334" y="821" type="line" smooth="yes"/>
      <point x="334" y="882"/>
      <point x="296" y="928"/>
      <point x="219" y="961" type="curve"/>
      <point x="537" y="961" type="line"/>
      <point x="537" y="999" type="line"/>
      <point x="374" y="1025"/>
      <point x="236" y="1115"/>
      <point x="236" y="1300" type="curve" smooth="yes"/>
      <point x="236" y="1447"/>
      <point x="334" y="1593"/>
      <point x="516" y="1593" type="curve" smooth="yes"/>
      <point x="569" y="1593"/>
      <point x="679" y="1577"/>
      <point x="713" y="1520" type="curve"/>
      <point x="645" y="1468" type="line"/>
      <point x="667" y="1438" type="line"/>
      <point x="755" y="1505" type="line"/>
      <point x="755" y="1515" type="line"/>
      <point x="713" y="1613"/>
      <point x="581" y="1631"/>
      <point x="514" y="1631" type="curve" smooth="yes"/>
      <point x="312" y="1631"/>
      <point x="199" y="1459"/>
      <point x="199" y="1300" type="curve" smooth="yes"/>
      <point x="199" y="1174"/>
      <point x="262" y="1057"/>
      <point x="408" y="999" type="curve"/>
      <point x="35" y="999" type="line"/>
    </contour>
  </outline>
</glyph>
<glyph name="g" format="1">
  <advance width="975"/>
  <unicode hex="0067"/>
  <outline>
    <contour>
      <point x="68" y="-335" type="line" name="hr00"/>
      <point x="68" y="-562"/>
      <point x="251" y="-735"/>
      <point x="458" y="-735" type="curve" smooth="yes"/>
      <point x="677" y="-735"/>
      <point x="849" y="-552"/>
      <point x="849" y="-344" type="curve" smooth="yes"/>
      <point x="849" y="-125"/>
      <point x="721" y="46"/>
      <point x="458" y="46" type="curve" smooth="yes"/>
      <point x="337" y="46"/>
      <point x="234" y="56"/>
      <point x="234" y="136" type="curve" smooth="yes"/>
      <point x="234" y="245"/>
      <point x="385" y="242"/>
      <point x="458" y="242" type="curve" smooth="yes"/>
      <point x="677" y="242"/>
      <point x="849" y="424"/>
      <point x="849" y="632" type="curve" smooth="yes"/>
      <point x="849" y="734"/>
      <point x="797" y="870"/>
      <point x="716" y="924" type="curve"/>
      <point x="950" y="924" type="line"/>
      <point x="950" y="962" type="line"/>
      <point x="666" y="962" type="line"/>
      <point x="603" y="1002"/>
      <point x="534" y="1022"/>
      <point x="458" y="1022" type="curve" smooth="yes"/>
      <point x="240" y="1022"/>
      <point x="68" y="839"/>
      <point x="68" y="632" type="curve" smooth="yes"/>
      <point x="68" y="469"/>
      <point x="173" y="321"/>
      <point x="318" y="268" type="curve"/>
      <point x="246" y="249"/>
      <point x="196" y="211"/>
      <point x="196" y="136" type="curve" smooth="yes"/>
      <point x="196" y="20"/>
      <point x="323" y="8"/>
      <point x="459" y="8" type="curve" smooth="yes"/>
      <point x="702" y="8"/>
      <point x="811" y="-156"/>
      <point x="811" y="-344" type="curve" smooth="yes"/>
      <point x="811" y="-542"/>
      <point x="646" y="-697"/>
      <point x="458" y="-697" type="curve" smooth="yes"/>
      <point x="265" y="-697"/>
      <point x="111" y="-536"/>
      <point x="106" y="-353" type="curve"/>
      <point x="242" y="-243" type="line"/>
      <point x="218" y="-213" type="line"/>
    </contour>
    <contour>
      <point x="106" y="632" type="curve" smooth="yes"/>
      <point x="106" y="829"/>
      <point x="271" y="984"/>
      <point x="458" y="984" type="curve" smooth="yes"/>
      <point x="656" y="984"/>
      <point x="811" y="820"/>
      <point x="811" y="632" type="curve" smooth="yes"/>
      <point x="811" y="433"/>
      <point x="647" y="279"/>
      <point x="458" y="279" type="curve" smooth="yes"/>
      <point x="261" y="279"/>
      <point x="106" y="445"/>
    </contour>
  </outline>
</glyph>
<glyph name="h" format="1">
  <advance width="1116"/>
  <unicode hex="0068"/>
  <outline>
    <contour>
      <point x="50" y="1543" type="line" name="hr00"/>
      <point x="60" y="1507" type="line"/>
      <point x="237" y="1557" type="line"/>
      <point x="237" y="154" type="line" smooth="yes"/>
      <point x="237" y="70"/>
      <point x="150" y="38"/>
      <point x="80" y="38" type="curve" smooth="yes"/>
      <point x="56" y="38" type="line"/>
      <point x="54" y="0" type="line"/>
      <point x="397" y="0" type="line"/>
      <point x="397" y="38" type="line"/>
      <point x="214" y="38" type="line"/>
      <point x="254" y="65"/>
      <point x="274" y="108"/>
      <point x="274" y="154" type="curve" smooth="yes"/>
      <point x="274" y="796" type="line"/>
      <point x="383" y="903"/>
      <point x="524" y="977"/>
      <point x="676" y="977" type="curve" smooth="yes"/>
      <point x="824" y="977"/>
      <point x="897" y="869"/>
      <point x="897" y="735" type="curve"/>
      <point x="897" y="734" type="line"/>
      <point x="897" y="162" type="line" smooth="yes"/>
      <point x="897" y="79"/>
      <point x="821" y="38"/>
      <point x="750" y="38" type="curve"/>
      <point x="750" y="0" type="line"/>
      <point x="1036" y="0" type="line"/>
      <point x="1036" y="38" type="line"/>
      <point x="873" y="38" type="line"/>
      <point x="914" y="67"/>
      <point x="934" y="108"/>
      <point x="934" y="162" type="curve" smooth="yes"/>
      <point x="934" y="733" type="line" smooth="yes"/>
      <point x="934" y="897"/>
      <point x="838" y="1015"/>
      <point x="676" y="1015" type="curve" smooth="yes"/>
      <point x="519" y="1015"/>
      <point x="375" y="942"/>
      <point x="274" y="848" type="curve"/>
      <point x="274" y="1607" type="line"/>
    </contour>
  </outline>
</glyph>
<glyph name="i" format="1">
  <advance width="507"/>
  <unicode hex="0069"/>
  <outline>
    <contour>
      <point x="80" y="948" type="line" name="hr00"/>
      <point x="90" y="912" type="line"/>
      <point x="267" y="962" type="line"/>
      <point x="267" y="153" type="line" smooth="yes"/>
      <point x="267" y="55"/>
      <point x="160" y="39"/>
      <point x="86" y="37" type="curve"/>
      <point x="84" y="0" type="line"/>
      <point x="427" y="0" type="line"/>
      <point x="427" y="37" type="line"/>
      <point x="244" y="37" type="line"/>
      <point x="283" y="63"/>
      <point x="304" y="107"/>
      <point x="304" y="153" type="curve" smooth="yes"/>
      <point x="304" y="1012" type="line"/>
    </contour>
    <contour>
      <point x="167" y="1284" type="curve" smooth="yes"/>
      <point x="167" y="1224"/>
      <point x="216" y="1175"/>
      <point x="276" y="1175" type="curve" smooth="yes"/>
      <point x="336" y="1175"/>
      <point x="386" y="1224"/>
      <point x="386" y="1284" type="curve" smooth="yes"/>
      <point x="386" y="1344"/>
      <point x="336" y="1393"/>
      <point x="276" y="1393" type="curve" smooth="yes"/>
      <point x="216" y="1393"/>
      <point x="167" y="1345"/>
    </contour>
    <contour>
      <point x="205" y="1284" type="curve" smooth="yes"/>
      <point x="205" y="1324"/>
      <point x="237" y="1356"/>
      <point x="276" y="1356" type="curve" smooth="yes"/>
      <point x="315" y="1356"/>
      <point x="347" y="1324"/>
      <point x="348" y="1284" type="curve" smooth="yes"/>
      <point x="348" y="1245"/>
      <point x="315" y="1213"/>
      <point x="276" y="1213" type="curve" smooth="yes"/>
      <point x="237" y="1213"/>
      <point x="205" y="1245"/>
    </contour>
  </outline>
</glyph>
<glyph name="j" format="1">
  <advance width="416"/>
  <unicode hex="006A"/>
  <outline>
    <contour>
      <point x="-135" y="-697" type="curve" name="hr00"/>
      <point x="-114" y="-728" type="line"/>
      <point x="146" y="-551"/>
      <point x="256" y="-274"/>
      <point x="256" y="26" type="curve" smooth="yes"/>
      <point x="256" y="1016" type="line"/>
      <point x="32" y="953" type="line"/>
      <point x="43" y="916" type="line"/>
      <point x="219" y="967" type="line"/>
      <point x="219" y="24" type="line" smooth="yes"/>
      <point x="219" y="-270"/>
      <point x="109" y="-534"/>
    </contour>
    <contour>
      <point x="128" y="1284" type="curve" smooth="yes"/>
      <point x="128" y="1224"/>
      <point x="177" y="1175"/>
      <point x="237" y="1175" type="curve" smooth="yes"/>
      <point x="297" y="1175"/>
      <point x="346" y="1224"/>
      <point x="346" y="1284" type="curve" smooth="yes"/>
      <point x="346" y="1345"/>
      <point x="297" y="1393"/>
      <point x="237" y="1393" type="curve" smooth="yes"/>
      <point x="177" y="1393"/>
      <point x="128" y="1345"/>
    </contour>
    <contour>
      <point x="166" y="1284" type="curve" smooth="yes"/>
      <point x="166" y="1324"/>
      <point x="198" y="1356"/>
      <point x="237" y="1356" type="curve" smooth="yes"/>
      <point x="276" y="1356"/>
      <point x="309" y="1324"/>
      <point x="309" y="1284" type="curve" smooth="yes"/>
      <point x="309" y="1245"/>
      <point x="276" y="1213"/>
      <point x="237" y="1213" type="curve" smooth="yes"/>
      <point x="198" y="1213"/>
      <point x="166" y="1245"/>
    </contour>
  </outline>
</glyph>
<glyph name="k" format="1">
  <advance width="1142"/>
  <unicode hex="006B"/>
  <outline>
    <contour>
      <point x="50" y="1543" type="line" name="hr00"/>
      <point x="60" y="1507" type="line"/>
      <point x="237" y="1557" type="line"/>
      <point x="237" y="154" type="line" smooth="yes"/>
      <point x="237" y="66"/>
      <point x="145" y="40"/>
      <point x="75" y="38" type="curve" smooth="yes"/>
      <point x="56" y="38" type="line"/>
      <point x="56" y="0" type="line"/>
      <point x="446" y="0" type="line"/>
      <point x="446" y="38" type="line"/>
      <point x="213" y="38" type="line"/>
      <point x="252" y="66"/>
      <point x="274" y="106"/>
      <point x="274" y="154" type="curve" smooth="yes"/>
      <point x="274" y="679" type="line"/>
      <point x="435" y="679" type="line"/>
      <point x="878" y="38" type="line"/>
      <point x="720" y="38" type="line"/>
      <point x="720" y="0" type="line"/>
      <point x="1110" y="0" type="line"/>
      <point x="1110" y="38" type="line"/>
      <point x="923" y="38" type="line"/>
      <point x="470" y="694" type="line"/>
      <point x="778" y="962" type="line"/>
      <point x="876" y="962" type="line"/>
      <point x="876" y="999" type="line"/>
      <point x="652" y="999" type="line"/>
      <point x="652" y="962" type="line"/>
      <point x="721" y="962" type="line"/>
      <point x="438" y="716" type="line"/>
      <point x="274" y="716" type="line"/>
      <point x="274" y="1607" type="line"/>
    </contour>
  </outline>
</glyph>
<glyph name="l" format="1">
  <advance width="447"/>
  <unicode hex="006C"/>
  <outline>
    <contour>
      <point x="50" y="1543" type="line" name="hr00"/>
      <point x="274" y="1607" type="line"/>
      <point x="274" y="153" type="line" smooth="yes"/>
      <point x="274" y="109"/>
      <point x="253" y="56"/>
      <point x="214" y="37" type="curve"/>
      <point x="397" y="37" type="line"/>
      <point x="397" y="0" type="line"/>
      <point x="57" y="0" type="line"/>
      <point x="56" y="37" type="line"/>
      <point x="158" y="42"/>
      <point x="237" y="71"/>
      <point x="237" y="153" type="curve" smooth="yes"/>
      <point x="237" y="1557" type="line"/>
      <point x="60" y="1507" type="line"/>
    </contour>
  </outline>
</glyph>
<glyph name="m" format="1">
  <advance width="1502"/>
  <unicode hex="006D"/>
  <outline>
    <contour>
      <point x="80" y="964" type="line" name="hr00"/>
      <point x="91" y="928" type="line"/>
      <point x="267" y="978" type="line"/>
      <point x="267" y="154" type="line" smooth="yes"/>
      <point x="267" y="65"/>
      <point x="172" y="40"/>
      <point x="102" y="37" type="curve" smooth="yes"/>
      <point x="91" y="37" type="line"/>
      <point x="90" y="0" type="line"/>
      <point x="481" y="0" type="line"/>
      <point x="481" y="37" type="line"/>
      <point x="242" y="37" type="line"/>
      <point x="284" y="60"/>
      <point x="304" y="109"/>
      <point x="304" y="154" type="curve" smooth="yes"/>
      <point x="304" y="760" type="line"/>
      <point x="378" y="860"/>
      <point x="489" y="978"/>
      <point x="618" y="978" type="curve" smooth="yes"/>
      <point x="749" y="978"/>
      <point x="763" y="803"/>
      <point x="763" y="710" type="curve" smooth="yes"/>
      <point x="763" y="154" type="line" smooth="yes"/>
      <point x="763" y="78"/>
      <point x="694" y="37"/>
      <point x="627" y="37" type="curve"/>
      <point x="627" y="0" type="line"/>
      <point x="936" y="0" type="line"/>
      <point x="936" y="37" type="line"/>
      <point x="745" y="37" type="line"/>
      <point x="782" y="64"/>
      <point x="800" y="103"/>
      <point x="800" y="154" type="curve" smooth="yes"/>
      <point x="800" y="758" type="line"/>
      <point x="872" y="859"/>
      <point x="983" y="978"/>
      <point x="1115" y="978" type="curve" smooth="yes"/>
      <point x="1245" y="978"/>
      <point x="1259" y="802"/>
      <point x="1259" y="710" type="curve" smooth="yes"/>
      <point x="1259" y="154" type="line" smooth="yes"/>
      <point x="1259" y="65"/>
      <point x="1139" y="37"/>
      <point x="1077" y="37" type="curve"/>
      <point x="1077" y="0" type="line"/>
      <point x="1422" y="0" type="line"/>
      <point x="1422" y="37" type="line"/>
      <point x="1227" y="37" type="line"/>
      <point x="1273" y="64"/>
      <point x="1296" y="103"/>
      <point x="1296" y="154" type="curve" smooth="yes"/>
      <point x="1296" y="708" type="line" smooth="yes"/>
      <point x="1296" y="865"/>
      <point x="1267" y="1016"/>
      <point x="1115" y="1016" type="curve" smooth="yes"/>
      <point x="978" y="1016"/>
      <point x="867" y="905"/>
      <point x="794" y="814" type="curve"/>
      <point x="775" y="912"/>
      <point x="728" y="1016"/>
      <point x="618" y="1016" type="curve" smooth="yes"/>
      <point x="515" y="1016"/>
      <point x="411" y="951"/>
      <point x="304" y="822" type="curve"/>
      <point x="304" y="1028" type="line"/>
    </contour>
  </outline>
</glyph>
<glyph name="n" format="1">
  <advance width="1158"/>
  <unicode hex="006E"/>
  <outline>
    <contour>
      <point x="80" y="964" type="line" name="hr00"/>
      <point x="90" y="928" type="line"/>
      <point x="267" y="978" type="line"/>
      <point x="267" y="154" type="line" smooth="yes"/>
      <point x="267" y="125"/>
      <point x="257" y="101"/>
      <point x="238" y="82" type="curve" smooth="yes"/>
      <point x="210" y="55"/>
      <point x="165" y="40"/>
      <point x="102" y="37" type="curve" smooth="yes"/>
      <point x="90" y="37" type="line"/>
      <point x="90" y="0" type="line"/>
      <point x="480" y="0" type="line"/>
      <point x="480" y="37" type="line"/>
      <point x="242" y="37" type="line"/>
      <point x="254" y="46"/>
      <point x="261" y="51"/>
      <point x="264" y="54" type="curve" smooth="yes"/>
      <point x="291" y="80"/>
      <point x="304" y="113"/>
      <point x="304" y="154" type="curve" smooth="yes"/>
      <point x="304" y="759" type="line"/>
      <point x="406" y="872"/>
      <point x="548" y="978"/>
      <point x="701" y="978" type="curve" smooth="yes"/>
      <point x="851" y="978"/>
      <point x="886" y="829"/>
      <point x="886" y="710" type="curve" smooth="yes"/>
      <point x="886" y="154" type="line" smooth="yes"/>
      <point x="886" y="107"/>
      <point x="858" y="74"/>
      <point x="802" y="53" type="curve" smooth="yes"/>
      <point x="770" y="42"/>
      <point x="740" y="37"/>
      <point x="712" y="37" type="curve"/>
      <point x="712" y="0" type="line"/>
      <point x="1078" y="0" type="line"/>
      <point x="1078" y="37" type="line"/>
      <point x="856" y="37" type="line"/>
      <point x="901" y="64"/>
      <point x="923" y="103"/>
      <point x="923" y="154" type="curve" smooth="yes"/>
      <point x="923" y="708" type="line" smooth="yes"/>
      <point x="923" y="867"/>
      <point x="868" y="1016"/>
      <point x="701" y="1016" type="curve" smooth="yes"/>
      <point x="544" y="1016"/>
      <point x="405" y="915"/>
      <point x="304" y="814" type="curve"/>
      <point x="304" y="1028" type="line"/>
    </contour>
  </outline>
</glyph>
<glyph name="o" format="1">
  <advance width="961"/>
  <unicode hex="006F"/>
  <outline>
    <contour>
      <point x="494" y="-16" type="curve" smooth="yes" name="hr00"/>
      <point x="742" y="-16"/>
      <point x="902" y="234"/>
      <point x="900" y="468" type="curve" smooth="yes"/>
      <point x="898" y="727"/>
      <point x="759" y="1015"/>
      <point x="468" y="1015" type="curve" smooth="yes"/>
      <point x="213" y="1015"/>
      <point x="60" y="736"/>
      <point x="61" y="515" type="curve" smooth="yes"/>
      <point x="62" y="255"/>
      <point x="228" y="-16"/>
    </contour>
    <contour>
      <point x="98" y="513" type="curve" smooth="yes"/>
      <point x="98" y="742"/>
      <point x="250" y="978"/>
      <point x="468" y="978" type="curve" smooth="yes"/>
      <point x="738" y="978"/>
      <point x="862" y="685"/>
      <point x="862" y="470" type="curve" smooth="yes"/>
      <point x="862" y="241"/>
      <point x="712" y="22"/>
      <point x="494" y="22" type="curve" smooth="yes"/>
      <point x="262" y="22"/>
      <point x="98" y="247"/>
    </contour>
  </outline>
</glyph>
<glyph name="p" format="1">
  <advance width="1060"/>
  <unicode hex="0070"/>
  <outline>
    <contour>
      <point x="34" y="952" type="line" name="hr00"/>
      <point x="44" y="916" type="line"/>
      <point x="220" y="966" type="line"/>
      <point x="220" y="-580" type="line" smooth="yes"/>
      <point x="220" y="-669"/>
      <point x="128" y="-692"/>
      <point x="43" y="-696" type="curve"/>
      <point x="43" y="-734" type="line"/>
      <point x="433" y="-734" type="line"/>
      <point x="433" y="-696" type="line"/>
      <point x="195" y="-696" type="line"/>
      <point x="236" y="-671"/>
      <point x="257" y="-627"/>
      <point x="257" y="-580" type="curve" smooth="yes"/>
      <point x="257" y="659" type="line"/>
      <point x="275" y="834"/>
      <point x="434" y="976"/>
      <point x="609" y="976" type="curve" smooth="yes"/>
      <point x="877" y="976"/>
      <point x="959" y="803"/>
      <point x="959" y="494" type="curve" smooth="yes"/>
      <point x="959" y="274"/>
      <point x="865" y="28"/>
      <point x="628" y="28" type="curve" smooth="yes"/>
      <point x="515" y="28"/>
      <point x="411" y="83"/>
      <point x="332" y="154" type="curve"/>
      <point x="305" y="124" type="line"/>
      <point x="406" y="33"/>
      <point x="513" y="-12"/>
      <point x="627" y="-12" type="curve" smooth="yes"/>
      <point x="901" y="-12"/>
      <point x="1000" y="264"/>
      <point x="1000" y="494" type="curve" smooth="yes"/>
      <point x="1000" y="810"/>
      <point x="908" y="1017"/>
      <point x="609" y="1017" type="curve" smooth="yes"/>
      <point x="452" y="1017"/>
      <point x="312" y="912"/>
      <point x="258" y="776" type="curve"/>
      <point x="258" y="1016" type="line"/>
    </contour>
  </outline>
</glyph>
<glyph name="q" format="1">
  <advance width="1022"/>
  <unicode hex="0071"/>
  <outline>
    <contour>
      <point x="60" y="519" type="curve" smooth="yes" name="hr00"/>
      <point x="60" y="282"/>
      <point x="207" y="-14"/>
      <point x="471" y="-14" type="curve" smooth="yes"/>
      <point x="570" y="-14"/>
      <point x="665" y="34"/>
      <point x="757" y="129" type="curve"/>
      <point x="728" y="157" type="line"/>
      <point x="644" y="70"/>
      <point x="559" y="26"/>
      <point x="472" y="26" type="curve" smooth="yes"/>
      <point x="229" y="26"/>
      <point x="100" y="299"/>
      <point x="100" y="516" type="curve" smooth="yes"/>
      <point x="100" y="804"/>
      <point x="285" y="975"/>
      <point x="561" y="975" type="curve" smooth="yes"/>
      <point x="646" y="975"/>
      <point x="718" y="956"/>
      <point x="779" y="917" type="curve"/>
      <point x="779" y="-580" type="line" smooth="yes"/>
      <point x="779" y="-670"/>
      <point x="683" y="-693"/>
      <point x="602" y="-696" type="curve"/>
      <point x="602" y="-734" type="line"/>
      <point x="992" y="-734" type="line"/>
      <point x="992" y="-696" type="line"/>
      <point x="754" y="-696" type="line"/>
      <point x="794" y="-671"/>
      <point x="816" y="-626"/>
      <point x="816" y="-580" type="curve" smooth="yes"/>
      <point x="816" y="930" type="line"/>
      <point x="973" y="978" type="line"/>
      <point x="962" y="1014" type="line"/>
      <point x="786" y="960" type="line"/>
      <point x="721" y="997"/>
      <point x="646" y="1015"/>
      <point x="561" y="1015" type="curve" smooth="yes"/>
      <point x="251" y="1015"/>
      <point x="60" y="807"/>
    </contour>
  </outline>
</glyph>
<glyph name="r" format="1">
  <advance width="831"/>
  <unicode hex="0072"/>
  <outline>
    <contour>
      <point x="80" y="0" type="line" name="hr00"/>
      <point x="466" y="0" type="line"/>
      <point x="466" y="37" type="line"/>
      <point x="224" y="37" type="line"/>
      <point x="269" y="65"/>
      <point x="292" y="104"/>
      <point x="292" y="154" type="curve" smooth="yes"/>
      <point x="292" y="720" type="line"/>
      <point x="367" y="846"/>
      <point x="482" y="978"/>
      <point x="632" y="978" type="curve" smooth="yes"/>
      <point x="689" y="978"/>
      <point x="745" y="957"/>
      <point x="800" y="914" type="curve"/>
      <point x="822" y="944" type="line"/>
      <point x="759" y="992"/>
      <point x="695" y="1016"/>
      <point x="630" y="1016" type="curve" smooth="yes"/>
      <point x="484" y="1016"/>
      <point x="365" y="898"/>
      <point x="292" y="784" type="curve"/>
      <point x="292" y="1002" type="line"/>
      <point x="255" y="1011" type="line"/>
      <point x="238" y="941"/>
      <point x="156" y="906"/>
      <point x="80" y="906" type="curve"/>
      <point x="80" y="868" type="line"/>
      <point x="134" y="870"/>
      <point x="230" y="893"/>
      <point x="254" y="941" type="curve"/>
      <point x="254" y="154" type="line" smooth="yes"/>
      <point x="254" y="63"/>
      <point x="145" y="40"/>
      <point x="80" y="37" type="curve"/>
    </contour>
  </outline>
</glyph>
<glyph name="s" format="1">
  <advance width="767"/>
  <unicode hex="0073"/>
  <outline>
    <contour>
      <point x="63" y="231" type="line" name="hr00"/>
      <point x="110" y="70"/>
      <point x="222" y="-16"/>
      <point x="375" y="-16" type="curve" smooth="yes"/>
      <point x="561" y="-16"/>
      <point x="702" y="123"/>
      <point x="702" y="292" type="curve" smooth="yes"/>
      <point x="702" y="714"/>
      <point x="153" y="624"/>
      <point x="153" y="841" type="curve" smooth="yes"/>
      <point x="153" y="934"/>
      <point x="251" y="979"/>
      <point x="344" y="979" type="curve" smooth="yes"/>
      <point x="419" y="979"/>
      <point x="491" y="961"/>
      <point x="556" y="934" type="curve"/>
      <point x="628" y="809" type="line"/>
      <point x="661" y="828" type="line"/>
      <point x="583" y="963" type="line"/>
      <point x="500" y="994"/>
      <point x="424" y="1016"/>
      <point x="348" y="1016" type="curve" smooth="yes"/>
      <point x="230" y="1016"/>
      <point x="116" y="951"/>
      <point x="116" y="841" type="curve" smooth="yes"/>
      <point x="116" y="588"/>
      <point x="665" y="681"/>
      <point x="665" y="293" type="curve" smooth="yes"/>
      <point x="665" y="195"/>
      <point x="590" y="21"/>
      <point x="375" y="21" type="curve" smooth="yes"/>
      <point x="240" y="21"/>
      <point x="142" y="102"/>
      <point x="105" y="224" type="curve"/>
      <point x="175" y="321" type="line"/>
      <point x="144" y="343" type="line"/>
    </contour>
  </outline>
</glyph>
<glyph name="t" format="1">
  <advance width="726"/>
  <unicode hex="0074"/>
  <outline>
    <contour>
      <point x="-73" y="962" type="line" name="hr00"/>
      <point x="207" y="962" type="line"/>
      <point x="207" y="111" type="line" smooth="yes"/>
      <point x="207" y="35"/>
      <point x="254" y="-16"/>
      <point x="337" y="-16" type="curve" smooth="yes"/>
      <point x="431" y="-16"/>
      <point x="517" y="53"/>
      <point x="559" y="128" type="curve"/>
      <point x="527" y="148" type="line"/>
      <point x="481" y="77"/>
      <point x="413" y="22"/>
      <point x="336" y="22" type="curve" smooth="yes"/>
      <point x="284" y="22"/>
      <point x="245" y="47"/>
      <point x="245" y="111" type="curve" smooth="yes"/>
      <point x="245" y="962" type="line"/>
      <point x="705" y="962" type="line"/>
      <point x="705" y="999" type="line"/>
      <point x="127" y="999" type="line"/>
      <point x="216" y="1067"/>
      <point x="262" y="1179"/>
      <point x="241" y="1283" type="curve"/>
      <point x="205" y="1277" type="line"/>
      <point x="205" y="1276" type="line"/>
      <point x="225" y="1124"/>
      <point x="127" y="995"/>
      <point x="-3" y="995" type="curve" smooth="yes"/>
      <point x="-73" y="995" type="line"/>
    </contour>
  </outline>
</glyph>
<glyph name="u" format="1">
  <advance width="1119"/>
  <unicode hex="0075"/>
  <outline>
    <contour>
      <point x="34" y="834" type="line" name="hr00"/>
      <point x="111" y="835"/>
      <point x="189" y="869"/>
      <point x="227" y="932" type="curve"/>
      <point x="227" y="291" type="line" smooth="yes"/>
      <point x="227" y="114"/>
      <point x="277" y="-16"/>
      <point x="449" y="-16" type="curve" smooth="yes"/>
      <point x="606" y="-16"/>
      <point x="744" y="85"/>
      <point x="845" y="186" type="curve"/>
      <point x="845" y="-28" type="line"/>
      <point x="1069" y="36" type="line"/>
      <point x="1059" y="72" type="line"/>
      <point x="883" y="21" type="line"/>
      <point x="883" y="1002" type="line"/>
      <point x="845" y="1012" type="line"/>
      <point x="845" y="1011" type="line"/>
      <point x="845" y="907"/>
      <point x="706" y="882"/>
      <point x="667" y="876" type="curve"/>
      <point x="671" y="839" type="line"/>
      <point x="740" y="852"/>
      <point x="802" y="868"/>
      <point x="845" y="915" type="curve"/>
      <point x="845" y="240" type="line"/>
      <point x="742" y="130"/>
      <point x="605" y="21"/>
      <point x="449" y="21" type="curve" smooth="yes"/>
      <point x="299" y="21"/>
      <point x="264" y="144"/>
      <point x="264" y="289" type="curve" smooth="yes"/>
      <point x="264" y="1004" type="line"/>
      <point x="228" y="1010" type="line"/>
      <point x="187" y="930"/>
      <point x="128" y="872"/>
      <point x="34" y="872" type="curve"/>
    </contour>
  </outline>
</glyph>
<glyph name="v" format="1">
  <advance width="1175"/>
  <unicode hex="0076"/>
  <outline>
    <contour>
      <point x="5" y="961" type="line" name="hr00"/>
      <point x="69" y="960"/>
      <point x="134" y="963"/>
      <point x="161" y="904" type="curve" smooth="yes"/>
      <point x="575" y="-15" type="line"/>
      <point x="600" y="-15" type="line"/>
      <point x="1014" y="904" type="line" smooth="yes"/>
      <point x="1042" y="965"/>
      <point x="1114" y="961"/>
      <point x="1170" y="961" type="curve"/>
      <point x="1170" y="999" type="line"/>
      <point x="858" y="999" type="line"/>
      <point x="858" y="961" type="line"/>
      <point x="1007" y="961" type="line"/>
      <point x="996" y="950"/>
      <point x="986" y="936"/>
      <point x="979" y="919" type="curve" smooth="yes"/>
      <point x="587" y="49" type="line"/>
      <point x="196" y="919" type="line" smooth="yes"/>
      <point x="189" y="936"/>
      <point x="179" y="950"/>
      <point x="168" y="961" type="curve"/>
      <point x="317" y="961" type="line"/>
      <point x="317" y="999" type="line"/>
      <point x="5" y="999" type="line"/>
    </contour>
  </outline>
</glyph>
<glyph name="w" format="1">
  <advance width="1834"/>
  <unicode hex="0077"/>
  <outline>
    <contour>
      <point x="5" y="961" type="line" name="hr00"/>
      <point x="69" y="960"/>
      <point x="134" y="963"/>
      <point x="161" y="904" type="curve" smooth="yes"/>
      <point x="575" y="-15" type="line"/>
      <point x="600" y="-15" type="line"/>
      <point x="917" y="691" type="line"/>
      <point x="1234" y="-15" type="line"/>
      <point x="1258" y="-15" type="line"/>
      <point x="1673" y="904" type="line" smooth="yes"/>
      <point x="1701" y="966"/>
      <point x="1773" y="960"/>
      <point x="1829" y="960" type="curve"/>
      <point x="1829" y="998" type="line"/>
      <point x="1517" y="999" type="line"/>
      <point x="1517" y="961" type="line"/>
      <point x="1666" y="961" type="line"/>
      <point x="1655" y="950"/>
      <point x="1645" y="936"/>
      <point x="1638" y="919" type="curve" smooth="yes"/>
      <point x="1246" y="49" type="line"/>
      <point x="938" y="736" type="line"/>
      <point x="1014" y="904" type="line" smooth="yes"/>
      <point x="1042" y="965"/>
      <point x="1114" y="961"/>
      <point x="1170" y="961" type="curve"/>
      <point x="1170" y="999" type="line"/>
      <point x="664" y="999" type="line"/>
      <point x="664" y="961" type="line"/>
      <point x="728" y="960"/>
      <point x="793" y="963"/>
      <point x="820" y="904" type="curve" smooth="yes"/>
      <point x="896" y="736" type="line"/>
      <point x="587" y="49" type="line"/>
      <point x="196" y="919" type="line" smooth="yes"/>
      <point x="189" y="936"/>
      <point x="179" y="950"/>
      <point x="168" y="961" type="curve"/>
      <point x="317" y="961" type="line"/>
      <point x="317" y="999" type="line"/>
      <point x="5" y="999" type="line"/>
    </contour>
    <contour>
      <point x="827" y="961" type="curve"/>
      <point x="1007" y="961" type="line"/>
      <point x="996" y="950"/>
      <point x="986" y="936"/>
      <point x="979" y="919" type="curve" smooth="yes"/>
      <point x="917" y="781" type="line"/>
      <point x="855" y="919" type="line" smooth="yes"/>
      <point x="848" y="936"/>
      <point x="838" y="950"/>
    </contour>
  </outline>
</glyph>
<glyph name="x" format="1">
  <advance width="946"/>
  <unicode hex="0078"/>
  <outline>
    <contour>
      <point x="25" y="0" type="line" name="hr00"/>
      <point x="226" y="0" type="line"/>
      <point x="226" y="38" type="line"/>
      <point x="150" y="38" type="line"/>
      <point x="476" y="477" type="line"/>
      <point x="803" y="38" type="line"/>
      <point x="721" y="38" type="line"/>
      <point x="721" y="0" type="line"/>
      <point x="921" y="0" type="line"/>
      <point x="921" y="38" type="line"/>
      <point x="851" y="38" type="line"/>
      <point x="499" y="509" type="line"/>
      <point x="833" y="961" type="line"/>
      <point x="915" y="961" type="line"/>
      <point x="915" y="999" type="line"/>
      <point x="715" y="999" type="line"/>
      <point x="715" y="961" type="line"/>
      <point x="787" y="961" type="line"/>
      <point x="476" y="541" type="line"/>
      <point x="164" y="961" type="line"/>
      <point x="232" y="961" type="line"/>
      <point x="232" y="999" type="line"/>
      <point x="31" y="999" type="line"/>
      <point x="31" y="961" type="line"/>
      <point x="117" y="961" type="line"/>
      <point x="453" y="509" type="line"/>
      <point x="103" y="38" type="line"/>
      <point x="25" y="38" type="line"/>
    </contour>
  </outline>
</glyph>
<glyph name="y" format="1">
  <advance width="1174"/>
  <unicode hex="0079"/>
  <outline>
    <contour>
      <point x="5" y="963" type="line" name="hr00"/>
      <point x="58" y="963"/>
      <point x="95" y="959"/>
      <point x="115" y="952" type="curve" smooth="yes"/>
      <point x="135" y="945"/>
      <point x="150" y="930"/>
      <point x="161" y="906" type="curve" smooth="yes"/>
      <point x="570" y="4" type="line"/>
      <point x="317" y="-562" type="line" smooth="yes"/>
      <point x="291" y="-619"/>
      <point x="240" y="-702"/>
      <point x="177" y="-702" type="curve" smooth="yes"/>
      <point x="127" y="-702"/>
      <point x="93" y="-681"/>
      <point x="74" y="-639" type="curve"/>
      <point x="38" y="-651" type="line"/>
      <point x="61" y="-710"/>
      <point x="118" y="-739"/>
      <point x="177" y="-739" type="curve" smooth="yes"/>
      <point x="265" y="-739"/>
      <point x="321" y="-644"/>
      <point x="351" y="-577" type="curve" smooth="yes"/>
      <point x="1013" y="906" type="line" smooth="yes"/>
      <point x="1024" y="930"/>
      <point x="1039" y="945"/>
      <point x="1059" y="952" type="curve" smooth="yes"/>
      <point x="1079" y="959"/>
      <point x="1116" y="963"/>
      <point x="1169" y="963" type="curve"/>
      <point x="1169" y="1000" type="line"/>
      <point x="857" y="1000" type="line"/>
      <point x="857" y="963" type="line"/>
      <point x="1006" y="963" type="line"/>
      <point x="995" y="952"/>
      <point x="986" y="938"/>
      <point x="979" y="921" type="curve" smooth="yes"/>
      <point x="590" y="50" type="line"/>
      <point x="195" y="921" type="line" smooth="yes"/>
      <point x="188" y="938"/>
      <point x="179" y="952"/>
      <point x="168" y="963" type="curve"/>
      <point x="317" y="963" type="line"/>
      <point x="317" y="1000" type="line"/>
      <point x="5" y="1000" type="line"/>
    </contour>
  </outline>
</glyph>
<glyph name="z" format="1">
  <advance width="950"/>
  <unicode hex="007A"/>
  <outline>
    <contour>
      <point x="70" y="0" type="line" name="hr00"/>
      <point x="846" y="0" type="line"/>
      <point x="930" y="180" type="line"/>
      <point x="898" y="195" type="line"/>
      <point x="823" y="36" type="line"/>
      <point x="141" y="36" type="line"/>
      <point x="839" y="1000" type="line"/>
      <point x="280" y="1000" type="line" smooth="yes"/>
      <point x="257" y="1000"/>
      <point x="237" y="1009"/>
      <point x="220" y="1026" type="curve"/>
      <point x="204" y="1053" type="line"/>
      <point x="74" y="813" type="line"/>
      <point x="106" y="796" type="line"/>
      <point x="209" y="987" type="line"/>
      <point x="230" y="972"/>
      <point x="253" y="964"/>
      <point x="280" y="964" type="curve" smooth="yes"/>
      <point x="768" y="964" type="line"/>
    </contour>
  </outline>
</glyph>
<glyph name="braceleft" format="1">
  <advance width="614"/>
  <unicode hex="007B"/>
  <outline>
    <contour>
      <point x="68" y="818" type="line" name="hr00"/>
      <point x="142" y="800" type="line"/>
      <point x="143" y="800" type="line"/>
      <point x="184" y="785"/>
      <point x="213" y="754"/>
      <point x="229" y="707" type="curve" smooth="yes"/>
      <point x="237" y="683"/>
      <point x="241" y="657"/>
      <point x="241" y="628" type="curve" smooth="yes"/>
      <point x="241" y="583"/>
      <point x="250" y="525"/>
      <point x="269" y="454" type="curve" smooth="yes"/>
      <point x="288" y="384"/>
      <point x="312" y="318"/>
      <point x="341" y="255" type="curve" smooth="yes"/>
      <point x="373" y="183"/>
      <point x="409" y="124"/>
      <point x="450" y="78" type="curve" smooth="yes"/>
      <point x="497" y="25"/>
      <point x="545" y="-1"/>
      <point x="595" y="-1" type="curve"/>
      <point x="595" y="37" type="line"/>
      <point x="523" y="37"/>
      <point x="443" y="122"/>
      <point x="375" y="270" type="curve" smooth="yes"/>
      <point x="346" y="335"/>
      <point x="322" y="401"/>
      <point x="305" y="468" type="curve" smooth="yes"/>
      <point x="288" y="535"/>
      <point x="280" y="589"/>
      <point x="280" y="628" type="curve" smooth="yes"/>
      <point x="280" y="701"/>
      <point x="259" y="757"/>
      <point x="217" y="798" type="curve" smooth="yes"/>
      <point x="210" y="805"/>
      <point x="202" y="811"/>
      <point x="191" y="818" type="curve"/>
      <point x="204" y="828"/>
      <point x="213" y="835"/>
      <point x="217" y="839" type="curve" smooth="yes"/>
      <point x="259" y="878"/>
      <point x="280" y="935"/>
      <point x="280" y="1008" type="curve" smooth="yes"/>
      <point x="280" y="1047"/>
      <point x="288" y="1100"/>
      <point x="305" y="1167" type="curve" smooth="yes"/>
      <point x="322" y="1235"/>
      <point x="346" y="1301"/>
      <point x="375" y="1366" type="curve" smooth="yes"/>
      <point x="443" y="1514"/>
      <point x="523" y="1599"/>
      <point x="595" y="1599" type="curve"/>
      <point x="595" y="1637" type="line"/>
      <point x="546" y="1637"/>
      <point x="497" y="1611"/>
      <point x="450" y="1559" type="curve" smooth="yes"/>
      <point x="409" y="1513"/>
      <point x="373" y="1454"/>
      <point x="341" y="1382" type="curve" smooth="yes"/>
      <point x="312" y="1319"/>
      <point x="288" y="1253"/>
      <point x="269" y="1182" type="curve" smooth="yes"/>
      <point x="250" y="1111"/>
      <point x="241" y="1053"/>
      <point x="241" y="1008" type="curve" smooth="yes"/>
      <point x="241" y="955"/>
      <point x="224" y="909"/>
      <point x="207" y="886" type="curve" smooth="yes"/>
      <point x="179" y="849"/>
      <point x="146" y="836"/>
      <point x="142" y="837" type="curve"/>
    </contour>
  </outline>
</glyph>
<glyph name="bar" format="1">
  <advance width="341"/>
  <unicode hex="007C"/>
  <outline>
    <contour>
      <point x="152" y="-108" type="line" name="hr00"/>
      <point x="152" y="1779" type="line"/>
      <point x="189" y="1779" type="line"/>
      <point x="189" y="-108" type="line"/>
    </contour>
  </outline>
</glyph>
<glyph name="braceright" format="1">
  <advance width="648"/>
  <unicode hex="007D"/>
  <outline>
    <contour>
      <point x="102" y="1" type="line" name="hr00"/>
      <point x="151" y="1"/>
      <point x="200" y="27"/>
      <point x="247" y="80" type="curve" smooth="yes"/>
      <point x="288" y="126"/>
      <point x="324" y="185"/>
      <point x="356" y="257" type="curve" smooth="yes"/>
      <point x="385" y="320"/>
      <point x="408" y="386"/>
      <point x="427" y="456" type="curve" smooth="yes"/>
      <point x="446" y="527"/>
      <point x="456" y="585"/>
      <point x="456" y="630" type="curve" smooth="yes"/>
      <point x="456" y="683"/>
      <point x="472" y="729"/>
      <point x="489" y="752" type="curve" smooth="yes"/>
      <point x="519" y="791"/>
      <point x="550" y="803"/>
      <point x="555" y="802" type="curve"/>
      <point x="629" y="820" type="line"/>
      <point x="555" y="838" type="line"/>
      <point x="554" y="838" type="line"/>
      <point x="513" y="853"/>
      <point x="484" y="884"/>
      <point x="468" y="931" type="curve" smooth="yes"/>
      <point x="460" y="955"/>
      <point x="456" y="981"/>
      <point x="456" y="1010" type="curve" smooth="yes"/>
      <point x="456" y="1055"/>
      <point x="446" y="1113"/>
      <point x="427" y="1183" type="curve" smooth="yes"/>
      <point x="408" y="1254"/>
      <point x="385" y="1320"/>
      <point x="356" y="1383" type="curve" smooth="yes"/>
      <point x="324" y="1455"/>
      <point x="288" y="1514"/>
      <point x="247" y="1560" type="curve" smooth="yes"/>
      <point x="200" y="1613"/>
      <point x="152" y="1639"/>
      <point x="102" y="1639" type="curve"/>
      <point x="102" y="1601" type="line"/>
      <point x="174" y="1601"/>
      <point x="254" y="1516"/>
      <point x="322" y="1368" type="curve" smooth="yes"/>
      <point x="351" y="1303"/>
      <point x="375" y="1237"/>
      <point x="392" y="1169" type="curve" smooth="yes"/>
      <point x="409" y="1102"/>
      <point x="418" y="1049"/>
      <point x="418" y="1010" type="curve" smooth="yes"/>
      <point x="418" y="938"/>
      <point x="439" y="882"/>
      <point x="481" y="841" type="curve" smooth="yes"/>
      <point x="490" y="832"/>
      <point x="498" y="825"/>
      <point x="507" y="820" type="curve"/>
      <point x="494" y="810"/>
      <point x="485" y="803"/>
      <point x="481" y="799" type="curve" smooth="yes"/>
      <point x="439" y="760"/>
      <point x="418" y="703"/>
      <point x="418" y="630" type="curve" smooth="yes"/>
      <point x="418" y="591"/>
      <point x="409" y="538"/>
      <point x="392" y="470" type="curve" smooth="yes"/>
      <point x="375" y="403"/>
      <point x="351" y="337"/>
      <point x="322" y="272" type="curve" smooth="yes"/>
      <point x="254" y="124"/>
      <point x="174" y="39"/>
      <point x="102" y="39" type="curve"/>
    </contour>
  </outline>
</glyph>
<glyph name="sterling" format="1">
  <advance width="1467"/>
  <unicode hex="00A3"/>
  <outline>
    <contour>
      <point x="70" y="205" type="curve" smooth="yes" name="hr00"/>
      <point x="70" y="60"/>
      <point x="155" y="-15"/>
      <point x="292" y="-15" type="curve" smooth="yes"/>
      <point x="454" y="-15"/>
      <point x="587" y="34"/>
      <point x="691" y="88" type="curve"/>
      <point x="801" y="6"/>
      <point x="939" y="-15"/>
      <point x="1092" y="-15" type="curve" smooth="yes"/>
      <point x="1290" y="-15"/>
      <point x="1440" y="100"/>
      <point x="1446" y="275" type="curve"/>
      <point x="1407" y="275" type="line"/>
      <point x="1400" y="113"/>
      <point x="1261" y="23"/>
      <point x="1089" y="23" type="curve" smooth="yes"/>
      <point x="957" y="23"/>
      <point x="827" y="38"/>
      <point x="728" y="109" type="curve"/>
      <point x="887" y="209"/>
      <point x="947" y="403"/>
      <point x="947" y="583" type="curve" smooth="yes"/>
      <point x="947" y="782"/>
      <point x="805" y="858"/>
      <point x="644" y="915" type="curve"/>
      <point x="1021" y="915" type="line"/>
      <point x="1021" y="953" type="line"/>
      <point x="555" y="953" type="line"/>
      <point x="387" y="1030"/>
      <point x="309" y="1135"/>
      <point x="309" y="1312" type="curve" smooth="yes"/>
      <point x="309" y="1509"/>
      <point x="488" y="1599"/>
      <point x="660" y="1599" type="curve" smooth="yes"/>
      <point x="849" y="1599"/>
      <point x="1014" y="1511"/>
      <point x="1004" y="1313" type="curve"/>
      <point x="1038" y="1311" type="line"/>
      <point x="1062" y="1525"/>
      <point x="873" y="1637"/>
      <point x="660" y="1637" type="curve" smooth="yes"/>
      <point x="449" y="1637"/>
      <point x="271" y="1518"/>
      <point x="271" y="1312" type="curve" smooth="yes"/>
      <point x="271" y="1128"/>
      <point x="349" y="1020"/>
      <point x="473" y="953" type="curve"/>
      <point x="207" y="953" type="line"/>
      <point x="207" y="915" type="line"/>
      <point x="547" y="915" type="line"/>
      <point x="718" y="845"/>
      <point x="909" y="798"/>
      <point x="909" y="583" type="curve" smooth="yes"/>
      <point x="909" y="377"/>
      <point x="838" y="217"/>
      <point x="693" y="132" type="curve"/>
      <point x="553" y="247"/>
      <point x="484" y="405"/>
      <point x="292" y="405" type="curve" smooth="yes"/>
      <point x="180" y="405"/>
      <point x="70" y="322"/>
    </contour>
    <contour>
      <point x="109" y="205" type="curve" smooth="yes"/>
      <point x="109" y="306"/>
      <point x="208" y="368"/>
      <point x="292" y="368" type="curve" smooth="yes"/>
      <point x="461" y="368"/>
      <point x="543" y="209"/>
      <point x="656" y="113" type="curve"/>
      <point x="563" y="68"/>
      <point x="441" y="23"/>
      <point x="292" y="23" type="curve" smooth="yes"/>
      <point x="168" y="23"/>
      <point x="109" y="88"/>
    </contour>
  </outline>
</glyph>
<glyph name="yen" format="1">
  <advance width="1365"/>
  <unicode hex="00A5"/>
  <outline>
    <contour>
      <point x="68" y="1576" type="line" name="hr00"/>
      <point x="209" y="1576" type="line"/>
      <point x="650" y="943" type="line"/>
      <point x="290" y="943" type="line"/>
      <point x="290" y="905" type="line"/>
      <point x="676" y="905" type="line"/>
      <point x="678" y="902" type="line"/>
      <point x="678" y="706" type="line"/>
      <point x="290" y="706" type="line"/>
      <point x="290" y="667" type="line"/>
      <point x="678" y="667" type="line"/>
      <point x="678" y="39" type="line"/>
      <point x="562" y="39" type="line"/>
      <point x="562" y="0" type="line"/>
      <point x="832" y="0" type="line"/>
      <point x="832" y="39" type="line"/>
      <point x="716" y="39" type="line"/>
      <point x="716" y="667" type="line"/>
      <point x="1104" y="667" type="line"/>
      <point x="1104" y="706" type="line"/>
      <point x="716" y="706" type="line"/>
      <point x="716" y="902" type="line"/>
      <point x="718" y="905" type="line"/>
      <point x="1104" y="905" type="line"/>
      <point x="1104" y="943" type="line"/>
      <point x="744" y="943" type="line"/>
      <point x="1185" y="1576" type="line"/>
      <point x="1334" y="1576" type="line"/>
      <point x="1334" y="1614" type="line"/>
      <point x="1063" y="1614" type="line"/>
      <point x="1063" y="1576" type="line"/>
      <point x="1139" y="1576" type="line"/>
      <point x="698" y="943" type="line"/>
      <point x="696" y="943" type="line"/>
      <point x="256" y="1576" type="line"/>
      <point x="339" y="1576" type="line"/>
      <point x="339" y="1614" type="line"/>
      <point x="68" y="1614" type="line"/>
    </contour>
  </outline>
</glyph>
<glyph name="questiondown" format="1">
  <advance width="1194"/>
  <unicode hex="00BF"/>
  <outline>
    <contour>
      <point x="1154" y="416" type="curve" name="hr00"/>
      <point x="926" y="590" type="line"/>
      <point x="902" y="560" type="line"/>
      <point x="1116" y="397" type="line"/>
      <point x="1104" y="126"/>
      <point x="880" y="26"/>
      <point x="642" y="26" type="curve" smooth="yes"/>
      <point x="330" y="26"/>
      <point x="156" y="161"/>
      <point x="141" y="536" type="curve"/>
      <point x="446" y="657"/>
      <point x="644" y="903"/>
      <point x="648" y="1221" type="curve"/>
      <point x="609" y="1221" type="line"/>
      <point x="628" y="923"/>
      <point x="385" y="664"/>
      <point x="116" y="568" type="curve" smooth="yes"/>
      <point x="102" y="563" type="line"/>
      <point x="117" y="176"/>
      <point x="253" y="-12"/>
      <point x="642" y="-12" type="curve" smooth="yes"/>
      <point x="927" y="-12"/>
      <point x="1154" y="126"/>
    </contour>
    <contour>
      <point x="643" y="1489" type="line"/>
      <point x="638" y="1799" type="line"/>
      <point x="599" y="1798" type="line"/>
      <point x="605" y="1488" type="line"/>
    </contour>
  </outline>
</glyph>
<glyph name="Agrave" format="1">
  <advance width="1453"/>
  <unicode hex="00C0"/>
  <outline>
    <contour>
      <point x="404" y="1982" type="line" name="hr00"/>
      <point x="1043" y="1781" type="line"/>
      <point x="1054" y="1817" type="line"/>
      <point x="416" y="2018" type="line"/>
    </contour>
    <component base="A"/>
  </outline>
</glyph>
<glyph name="Aacute" format="1">
  <advance width="1453"/>
  <unicode hex="00C1"/>
  <outline>
    <contour>
      <point x="391" y="1817" type="line" name="hr00"/>
      <point x="402" y="1780" type="line"/>
      <point x="1040" y="1982" type="line"/>
      <point x="1029" y="2018" type="line"/>
    </contour>
    <component base="A"/>
  </outline>
</glyph>
<glyph name="Acircumflex" format="1">
  <advance width="1453"/>
  <unicode hex="00C2"/>
  <outline>
    <contour>
      <point x="451" y="1822" type="line" name="hr00"/>
      <point x="473" y="1792" type="line"/>
      <point x="710" y="1963" type="line"/>
      <point x="970" y="1791" type="line"/>
      <point x="991" y="1822" type="line"/>
      <point x="709" y="2009" type="line"/>
    </contour>
    <component base="A"/>
  </outline>
</glyph>
<glyph name="Adieresis" format="1">
  <advance width="1453"/>
  <unicode hex="00C4"/>
  <outline>
    <contour>
      <point x="561" y="1789" type="line" name="hr00"/>
      <point x="599" y="1788" type="line"/>
      <point x="600" y="1951" type="line"/>
      <point x="563" y="1951" type="line"/>
    </contour>
    <contour>
      <point x="798" y="1789" type="line"/>
      <point x="835" y="1788" type="line"/>
      <point x="837" y="1951" type="line"/>
      <point x="799" y="1951" type="line"/>
    </contour>
    <component base="A"/>
  </outline>
</glyph>
<glyph name="Aring" format="1">
  <advance width="1453"/>
  <unicode hex="00C5"/>
  <outline>
    <contour>
      <point x="595" y="1807" type="curve" smooth="yes" name="hr00"/>
      <point x="595" y="1745"/>
      <point x="648" y="1695"/>
      <point x="707" y="1695" type="curve" smooth="yes"/>
      <point x="769" y="1695"/>
      <point x="818" y="1748"/>
      <point x="818" y="1807" type="curve" smooth="yes"/>
      <point x="818" y="1869"/>
      <point x="766" y="1918"/>
      <point x="707" y="1918" type="curve" smooth="yes"/>
      <point x="645" y="1918"/>
      <point x="595" y="1866"/>
    </contour>
    <contour>
      <point x="633" y="1807" type="curve" smooth="yes"/>
      <point x="633" y="1847"/>
      <point x="667" y="1880"/>
      <point x="707" y="1880" type="curve" smooth="yes"/>
      <point x="748" y="1880"/>
      <point x="780" y="1847"/>
      <point x="780" y="1807" type="curve" smooth="yes"/>
      <point x="780" y="1766"/>
      <point x="748" y="1733"/>
      <point x="707" y="1733" type="curve" smooth="yes"/>
      <point x="667" y="1733"/>
      <point x="633" y="1766"/>
    </contour>
    <component base="A"/>
  </outline>
</glyph>
<glyph name="AE" format="1">
  <advance width="1928"/>
  <unicode hex="00C6"/>
  <outline>
    <contour>
      <point x="50" y="0" type="line" name="hr00"/>
      <point x="299" y="0" type="line"/>
      <point x="299" y="38" type="line"/>
      <point x="156" y="38" type="line"/>
      <point x="346" y="678" type="line"/>
      <point x="704" y="529" type="line"/>
      <point x="1063" y="676" type="line"/>
      <point x="1251" y="38" type="line"/>
      <point x="1131" y="38" type="line"/>
      <point x="1131" y="0" type="line"/>
      <point x="1615" y="0" type="line"/>
      <point x="1564" y="-49" type="line"/>
      <point x="1590" y="-76" type="line"/>
      <point x="1888" y="212" type="line"/>
      <point x="1862" y="239" type="line"/>
      <point x="1654" y="38" type="line"/>
      <point x="1290" y="38" type="line"/>
      <point x="1042" y="879" type="line"/>
      <point x="1361" y="879" type="line"/>
      <point x="1361" y="782" type="line"/>
      <point x="1398" y="782" type="line"/>
      <point x="1398" y="1030" type="line"/>
      <point x="1361" y="1030" type="line"/>
      <point x="1361" y="916" type="line"/>
      <point x="1031" y="916" type="line"/>
      <point x="839" y="1575" type="line"/>
      <point x="1489" y="1574" type="line"/>
      <point x="1679" y="1425" type="line"/>
      <point x="1702" y="1455" type="line"/>
      <point x="1391" y="1696" type="line"/>
      <point x="1368" y="1667" type="line"/>
      <point x="1437" y="1613" type="line"/>
      <point x="462" y="1613" type="line"/>
      <point x="474" y="1655" type="line"/>
      <point x="437" y="1665" type="line"/>
      <point x="376" y="1443" type="line"/>
      <point x="413" y="1433" type="line"/>
      <point x="452" y="1575" type="line"/>
      <point x="572" y="1575" type="line"/>
      <point x="117" y="38" type="line"/>
      <point x="50" y="38" type="line"/>
    </contour>
    <contour>
      <point x="357" y="714" type="line"/>
      <point x="611" y="1575" type="line"/>
      <point x="799" y="1575" type="line"/>
      <point x="1052" y="712" type="line"/>
      <point x="704" y="570" type="line"/>
    </contour>
  </outline>
</glyph>
<glyph name="Ccedilla" format="1">
  <advance width="1177"/>
  <unicode hex="00C7"/>
  <outline>
    <contour>
      <point x="493" y="-552" type="line" name="hr00"/>
      <point x="518" y="-581" type="line"/>
      <point x="716" y="-411" type="line"/>
      <point x="716" y="-136" type="line"/>
      <point x="678" y="-136" type="line"/>
      <point x="678" y="-393" type="line"/>
    </contour>
    <component base="C"/>
  </outline>
</glyph>
<glyph name="Egrave" format="1">
  <advance width="1363"/>
  <unicode hex="00C8"/>
  <outline>
    <contour>
      <point x="153" y="1982" type="line" name="hr00"/>
      <point x="791" y="1781" type="line"/>
      <point x="802" y="1817" type="line"/>
      <point x="164" y="2018" type="line"/>
    </contour>
    <component base="E"/>
  </outline>
</glyph>
<glyph name="Eacute" format="1">
  <advance width="1363"/>
  <unicode hex="00C9"/>
  <outline>
    <contour>
      <point x="150" y="1817" type="line" name="hr00"/>
      <point x="161" y="1780" type="line"/>
      <point x="799" y="1982" type="line"/>
      <point x="788" y="2018" type="line"/>
    </contour>
    <component base="E"/>
  </outline>
</glyph>
<glyph name="Ecircumflex" format="1">
  <advance width="1363"/>
  <unicode hex="00CA"/>
  <outline>
    <contour>
      <point x="258" y="1822" type="line" name="hr00"/>
      <point x="280" y="1792" type="line"/>
      <point x="516" y="1963" type="line"/>
      <point x="777" y="1791" type="line"/>
      <point x="798" y="1822" type="line"/>
      <point x="515" y="2009" type="line"/>
    </contour>
    <component base="E"/>
  </outline>
</glyph>
<glyph name="Edieresis" format="1">
  <advance width="1363"/>
  <unicode hex="00CB"/>
  <outline>
    <contour>
      <point x="350" y="1789" type="line" name="hr00"/>
      <point x="388" y="1789" type="line"/>
      <point x="388" y="1951" type="line"/>
      <point x="350" y="1951" type="line"/>
    </contour>
    <contour>
      <point x="586" y="1789" type="line"/>
      <point x="624" y="1789" type="line"/>
      <point x="624" y="1951" type="line"/>
      <point x="585" y="1951" type="line"/>
    </contour>
    <component base="E"/>
  </outline>
</glyph>
<glyph name="Igrave" format="1">
  <advance width="467"/>
  <unicode hex="00CC"/>
  <outline>
    <contour>
      <point x="-256" y="1982" type="line" name="hr00"/>
      <point x="383" y="1781" type="line"/>
      <point x="394" y="1817" type="line"/>
      <point x="-244" y="2018" type="line"/>
    </contour>
    <component base="I"/>
  </outline>
</glyph>
<glyph name="Iacute" format="1">
  <advance width="467"/>
  <unicode hex="00CD"/>
  <outline>
    <contour>
      <point x="91" y="1817" type="line" name="hr00"/>
      <point x="102" y="1780" type="line"/>
      <point x="740" y="1982" type="line"/>
      <point x="729" y="2018" type="line"/>
    </contour>
    <component base="I"/>
  </outline>
</glyph>
<glyph name="Icircumflex" format="1">
  <advance width="467"/>
  <unicode hex="00CE"/>
  <outline>
    <contour>
      <point x="-36" y="1822" type="line" name="hr00"/>
      <point x="-14" y="1792" type="line"/>
      <point x="223" y="1963" type="line"/>
      <point x="483" y="1791" type="line"/>
      <point x="504" y="1822" type="line"/>
      <point x="222" y="2009" type="line"/>
    </contour>
    <component base="I"/>
  </outline>
</glyph>
<glyph name="Idieresis" format="1">
  <advance width="467"/>
  <unicode hex="00CF"/>
  <outline>
    <contour>
      <point x="98" y="1789" type="line" name="hr00"/>
      <point x="136" y="1788" type="line"/>
      <point x="138" y="1951" type="line"/>
      <point x="100" y="1951" type="line"/>
    </contour>
    <contour>
      <point x="335" y="1789" type="line"/>
      <point x="373" y="1788" type="line"/>
      <point x="374" y="1951" type="line"/>
      <point x="336" y="1951" type="line"/>
    </contour>
    <component base="I"/>
  </outline>
</glyph>
<glyph name="Ograve" format="1">
  <advance width="1358"/>
  <unicode hex="00D2"/>
  <outline>
    <contour>
      <point x="377" y="1982" type="line" name="hr00"/>
      <point x="1016" y="1781" type="line"/>
      <point x="1027" y="1817" type="line"/>
      <point x="389" y="2018" type="line"/>
    </contour>
    <component base="O"/>
  </outline>
</glyph>
<glyph name="Oacute" format="1">
  <advance width="1358"/>
  <unicode hex="00D3"/>
  <outline>
    <contour>
      <point x="364" y="1817" type="line" name="hr00"/>
      <point x="375" y="1780" type="line"/>
      <point x="1013" y="1982" type="line"/>
      <point x="1002" y="2018" type="line"/>
    </contour>
    <component base="O"/>
  </outline>
</glyph>
<glyph name="Ocircumflex" format="1">
  <advance width="1358"/>
  <unicode hex="00D4"/>
  <outline>
    <contour>
      <point x="448" y="1822" type="line" name="hr00"/>
      <point x="470" y="1792" type="line"/>
      <point x="707" y="1963" type="line"/>
      <point x="967" y="1791" type="line"/>
      <point x="988" y="1822" type="line"/>
      <point x="706" y="2009" type="line"/>
    </contour>
    <component base="O"/>
  </outline>
</glyph>
<glyph name="Odieresis" format="1">
  <advance width="1358"/>
  <unicode hex="00D6"/>
  <outline>
    <contour>
      <point x="547" y="1789" type="line" name="hr00"/>
      <point x="585" y="1788" type="line"/>
      <point x="586" y="1951" type="line"/>
      <point x="549" y="1951" type="line"/>
    </contour>
    <contour>
      <point x="784" y="1789" type="line"/>
      <point x="821" y="1788" type="line"/>
      <point x="823" y="1951" type="line"/>
      <point x="785" y="1951" type="line"/>
    </contour>
    <component base="O"/>
  </outline>
</glyph>
<glyph name="Ugrave" format="1">
  <advance width="1411"/>
  <unicode hex="00D9"/>
  <outline>
    <contour>
      <point x="350" y="1982" type="line" name="hr00"/>
      <point x="988" y="1781" type="line"/>
      <point x="999" y="1817" type="line"/>
      <point x="361" y="2018" type="line"/>
    </contour>
    <component base="U"/>
  </outline>
</glyph>
<glyph name="Uacute" format="1">
  <advance width="1411"/>
  <unicode hex="00DA"/>
  <outline>
    <contour>
      <point x="329" y="1817" type="line" name="hr00"/>
      <point x="340" y="1780" type="line"/>
      <point x="978" y="1982" type="line"/>
      <point x="967" y="2018" type="line"/>
    </contour>
    <component base="U"/>
  </outline>
</glyph>
<glyph name="Ucircumflex" format="1">
  <advance width="1411"/>
  <unicode hex="00DB"/>
  <outline>
    <contour>
      <point x="380" y="1822" type="line" name="hr00"/>
      <point x="402" y="1792" type="line"/>
      <point x="638" y="1963" type="line"/>
      <point x="899" y="1791" type="line"/>
      <point x="920" y="1822" type="line"/>
      <point x="637" y="2009" type="line"/>
    </contour>
    <component base="U"/>
  </outline>
</glyph>
<glyph name="Udieresis" format="1">
  <advance width="1411"/>
  <unicode hex="00DC"/>
  <outline>
    <contour>
      <point x="576" y="1789" type="line" name="hr00"/>
      <point x="614" y="1788" type="line"/>
      <point x="615" y="1951" type="line"/>
      <point x="578" y="1951" type="line"/>
    </contour>
    <contour>
      <point x="813" y="1789" type="line"/>
      <point x="850" y="1788" type="line"/>
      <point x="852" y="1951" type="line"/>
      <point x="814" y="1951" type="line"/>
    </contour>
    <component base="U"/>
  </outline>
</glyph>
<glyph name="Yacute" format="1">
  <advance width="1331"/>
  <unicode hex="00DD"/>
  <outline>
    <contour>
      <point x="360" y="1817" type="line" name="hr00"/>
      <point x="371" y="1780" type="line"/>
      <point x="1009" y="1982" type="line"/>
      <point x="998" y="2018" type="line"/>
    </contour>
    <component base="Y"/>
  </outline>
</glyph>
<glyph name="aacute" format="1">
  <advance width="921"/>
  <unicode hex="00E1"/>
  <outline>
    <contour>
      <point x="102" y="1123" type="line" name="hr00"/>
      <point x="113" y="1087" type="line"/>
      <point x="752" y="1288" type="line"/>
      <point x="740" y="1324" type="line"/>
    </contour>
    <component base="a" xOffset="22"/>
  </outline>
</glyph>
<glyph name="acircumflex" format="1">
  <advance width="921"/>
  <unicode hex="00E2"/>
  <outline>
    <contour>
      <point x="183" y="1129" type="line" name="hr00"/>
      <point x="205" y="1098" type="line"/>
      <point x="441" y="1270" type="line"/>
      <point x="702" y="1097" type="line"/>
      <point x="722" y="1129" type="line"/>
      <point x="440" y="1316" type="line"/>
    </contour>
    <component base="a" xOffset="22"/>
  </outline>
</glyph>
<glyph name="adieresis" format="1">
  <advance width="921"/>
  <unicode hex="00E4"/>
  <outline>
    <contour>
      <point x="366" y="1085" type="line" name="hr00"/>
      <point x="404" y="1085" type="line"/>
      <point x="406" y="1247" type="line"/>
      <point x="368" y="1247" type="line"/>
    </contour>
    <contour>
      <point x="603" y="1085" type="line"/>
      <point x="641" y="1085" type="line"/>
      <point x="642" y="1247" type="line"/>
      <point x="604" y="1247" type="line"/>
    </contour>
    <component base="a" xOffset="22"/>
  </outline>
</glyph>
<glyph name="aring" format="1">
  <advance width="921"/>
  <unicode hex="00E5"/>
  <outline>
    <contour>
      <point x="423" y="1277" type="curve" smooth="yes" name="hr00"/>
      <point x="401" y="1256"/>
      <point x="390" y="1230"/>
      <point x="390" y="1199" type="curve" smooth="yes"/>
      <point x="390" y="1168"/>
      <point x="401" y="1142"/>
      <point x="423" y="1120" type="curve" smooth="yes"/>
      <point x="445" y="1099"/>
      <point x="471" y="1088"/>
      <point x="502" y="1088" type="curve" smooth="yes"/>
      <point x="533" y="1088"/>
      <point x="559" y="1099"/>
      <point x="580" y="1120" type="curve" smooth="yes"/>
      <point x="602" y="1142"/>
      <point x="613" y="1168"/>
      <point x="613" y="1199" type="curve" smooth="yes"/>
      <point x="613" y="1230"/>
      <point x="602" y="1256"/>
      <point x="580" y="1277" type="curve"/>
      <point x="559" y="1299"/>
      <point x="533" y="1310"/>
      <point x="502" y="1310" type="curve" smooth="yes"/>
      <point x="471" y="1310"/>
      <point x="445" y="1299"/>
    </contour>
    <contour>
      <point x="575" y="1199" type="curve"/>
      <point x="575" y="1158"/>
      <point x="543" y="1126"/>
      <point x="502" y="1126" type="curve"/>
      <point x="440" y="1123"/>
      <point x="401" y="1209"/>
      <point x="450" y="1251" type="curve"/>
      <point x="492" y="1300"/>
      <point x="578" y="1261"/>
    </contour>
    <component base="a" xOffset="22"/>
  </outline>
</glyph>
<glyph name="ae" format="1">
  <advance width="1635"/>
  <unicode hex="00E6"/>
  <outline>
    <contour>
      <point x="1212" y="-15" type="curve" smooth="yes"/>
      <point x="1364" y="-15"/>
      <point x="1502" y="69"/>
      <point x="1585" y="190" type="curve"/>
      <point x="1554" y="211" type="line"/>
      <point x="1469" y="94"/>
      <point x="1345" y="23"/>
      <point x="1209" y="23" type="curve" smooth="yes"/>
      <point x="954" y="23"/>
      <point x="770" y="267"/>
      <point x="770" y="525" type="curve" smooth="yes"/>
      <point x="770" y="768"/>
      <point x="958" y="979"/>
      <point x="1194" y="979" type="curve" smooth="yes"/>
      <point x="1303" y="979"/>
      <point x="1402" y="933"/>
      <point x="1478" y="866" type="curve"/>
      <point x="928" y="451" type="line"/>
      <point x="950" y="421" type="line"/>
      <point x="1536" y="862" type="line"/>
      <point x="1430" y="968"/>
      <point x="1312" y="1017"/>
      <point x="1196" y="1017" type="curve" smooth="yes"/>
      <point x="987" y="1017"/>
      <point x="816" y="865"/>
      <point x="760" y="672" type="curve"/>
      <point x="753" y="891"/>
      <point x="696" y="1016"/>
      <point x="469" y="1016" type="curve" smooth="yes" name="hr01"/>
      <point x="324" y="1016"/>
      <point x="193" y="963"/>
      <point x="88" y="857" type="curve"/>
      <point x="154" y="726" type="line"/>
      <point x="188" y="743" type="line"/>
      <point x="134" y="851" type="line"/>
      <point x="222" y="939"/>
      <point x="349" y="978"/>
      <point x="469" y="978" type="curve" smooth="yes"/>
      <point x="725" y="978"/>
      <point x="716" y="815"/>
      <point x="730" y="575" type="curve"/>
      <point x="619" y="575" type="line" smooth="yes"/>
      <point x="400" y="575"/>
      <point x="80" y="519"/>
      <point x="80" y="253" type="curve" smooth="yes"/>
      <point x="80" y="111"/>
      <point x="173" y="-15"/>
      <point x="325" y="-15" type="curve" smooth="yes"/>
      <point x="470" y="-15"/>
      <point x="646" y="79"/>
      <point x="744" y="210" type="curve"/>
      <point x="718" y="232" type="line"/>
      <point x="624" y="102"/>
      <point x="454" y="23"/>
      <point x="326" y="23" type="curve" smooth="yes"/>
      <point x="197" y="23"/>
      <point x="118" y="137"/>
      <point x="118" y="253" type="curve" smooth="yes"/>
      <point x="118" y="498"/>
      <point x="440" y="538"/>
      <point x="618" y="538" type="curve" smooth="yes" name="hr02"/>
      <point x="733" y="538" type="line"/>
      <point x="733" y="523" type="line" smooth="yes"/>
      <point x="733" y="231"/>
      <point x="946" y="-15"/>
    </contour>
  </outline>
</glyph>
<glyph name="ccedilla" format="1">
  <advance width="921"/>
  <unicode hex="00E7"/>
  <outline>
    <contour>
      <point x="340" y="-552" type="line" name="hr00"/>
      <point x="365" y="-581" type="line"/>
      <point x="563" y="-411" type="line"/>
      <point x="563" y="-136" type="line"/>
      <point x="525" y="-136" type="line"/>
      <point x="525" y="-393" type="line"/>
    </contour>
    <component base="c" xOffset="6"/>
  </outline>
</glyph>
<glyph name="egrave" format="1">
  <advance width="921"/>
  <unicode hex="00E8"/>
  <outline>
    <contour>
      <point x="190" y="1289" type="line" name="hr00"/>
      <point x="828" y="1087" type="line"/>
      <point x="840" y="1124" type="line"/>
      <point x="202" y="1325" type="line"/>
    </contour>
    <component base="e" xOffset="8"/>
  </outline>
</glyph>
<glyph name="eacute" format="1">
  <advance width="921"/>
  <unicode hex="00E9"/>
  <outline>
    <contour>
      <point x="183" y="1123" type="line" name="hr00"/>
      <point x="194" y="1087" type="line"/>
      <point x="832" y="1288" type="line"/>
      <point x="821" y="1324" type="line"/>
    </contour>
    <component base="e" xOffset="8"/>
  </outline>
</glyph>
<glyph name="igrave" format="1">
  <advance width="507"/>
  <unicode hex="00EC"/>
  <outline>
    <contour>
      <point x="-266" y="1289" type="line" name="hr00"/>
      <point x="373" y="1087" type="line"/>
      <point x="384" y="1124" type="line"/>
      <point x="-254" y="1325" type="line"/>
    </contour>
    <component base="dotlessi"/>
  </outline>
</glyph>
<glyph name="iacute" format="1">
  <advance width="507"/>
  <unicode hex="00ED"/>
  <outline>
    <contour>
      <point x="136" y="1123" type="line" name="hr00"/>
      <point x="147" y="1087" type="line"/>
      <point x="785" y="1288" type="line"/>
      <point x="774" y="1324" type="line"/>
    </contour>
    <component base="dotlessi"/>
  </outline>
</glyph>
<glyph name="icircumflex" format="1">
  <advance width="531"/>
  <unicode hex="00EE"/>
  <outline>
    <contour>
      <point x="36" y="1129" type="line" name="hr00"/>
      <point x="58" y="1098" type="line"/>
      <point x="295" y="1270" type="line"/>
      <point x="555" y="1097" type="line"/>
      <point x="576" y="1129" type="line"/>
      <point x="294" y="1316" type="line"/>
    </contour>
    <component base="dotlessi"/>
  </outline>
</glyph>
<glyph name="idieresis" format="1">
  <advance width="529"/>
  <unicode hex="00EF"/>
  <outline>
    <contour>
      <point x="137" y="1085" type="line" name="hr00"/>
      <point x="175" y="1085" type="line"/>
      <point x="177" y="1247" type="line"/>
      <point x="139" y="1247" type="line"/>
    </contour>
    <contour>
      <point x="374" y="1085" type="line"/>
      <point x="412" y="1085" type="line"/>
      <point x="413" y="1247" type="line"/>
      <point x="375" y="1247" type="line"/>
    </contour>
    <component base="dotlessi"/>
  </outline>
</glyph>
<glyph name="ograve" format="1">
  <advance width="955"/>
  <unicode hex="00F2"/>
  <outline>
    <contour>
      <point x="166" y="1289" type="line" name="hr00"/>
      <point x="805" y="1087" type="line"/>
      <point x="816" y="1124" type="line"/>
      <point x="178" y="1325" type="line"/>
    </contour>
    <component base="o" xOffset="7"/>
  </outline>
</glyph>
<glyph name="oacute" format="1">
  <advance width="955"/>
  <unicode hex="00F3"/>
  <outline>
    <contour>
      <point x="183" y="1123" type="line" name="hr00"/>
      <point x="194" y="1087" type="line"/>
      <point x="832" y="1288" type="line"/>
      <point x="821" y="1324" type="line"/>
    </contour>
    <component base="o" xOffset="7"/>
  </outline>
</glyph>
<glyph name="ocircumflex" format="1">
  <advance width="955"/>
  <unicode hex="00F4"/>
  <outline>
    <contour>
      <point x="210" y="1129" type="line" name="hr00"/>
      <point x="232" y="1098" type="line"/>
      <point x="469" y="1270" type="line"/>
      <point x="729" y="1097" type="line"/>
      <point x="750" y="1129" type="line"/>
      <point x="467" y="1316" type="line"/>
    </contour>
    <component base="o" xOffset="7"/>
  </outline>
</glyph>
<glyph name="odieresis" format="1">
  <advance width="955"/>
  <unicode hex="00F6"/>
  <outline>
    <contour>
      <point x="322" y="1085" type="line" name="hr00"/>
      <point x="360" y="1085" type="line"/>
      <point x="361" y="1247" type="line"/>
      <point x="324" y="1247" type="line"/>
    </contour>
    <contour>
      <point x="559" y="1085" type="line"/>
      <point x="596" y="1085" type="line"/>
      <point x="598" y="1247" type="line"/>
      <point x="560" y="1247" type="line"/>
    </contour>
    <component base="o" xOffset="7"/>
  </outline>
</glyph>
<glyph name="ugrave" format="1">
  <advance width="1058"/>
  <unicode hex="00F9"/>
  <outline>
    <contour>
      <point x="227" y="1289" type="line" name="hr00"/>
      <point x="866" y="1087" type="line"/>
      <point x="877" y="1124" type="line"/>
      <point x="239" y="1325" type="line"/>
    </contour>
    <component base="u"/>
  </outline>
</glyph>
<glyph name="uacute" format="1">
  <advance width="1058"/>
  <unicode hex="00FA"/>
  <outline>
    <contour>
      <point x="228" y="1123" type="line" name="hr00"/>
      <point x="239" y="1087" type="line"/>
      <point x="877" y="1288" type="line"/>
      <point x="866" y="1324" type="line"/>
    </contour>
    <component base="u"/>
  </outline>
</glyph>
<glyph name="ucircumflex" format="1">
  <advance width="1058"/>
  <unicode hex="00FB"/>
  <outline>
    <contour>
      <point x="285" y="1129" type="line" name="hr00"/>
      <point x="307" y="1098" type="line"/>
      <point x="543" y="1270" type="line"/>
      <point x="804" y="1097" type="line"/>
      <point x="824" y="1129" type="line"/>
      <point x="542" y="1316" type="line"/>
    </contour>
    <component base="u"/>
  </outline>
</glyph>
<glyph name="udieresis" format="1">
  <advance width="1058"/>
  <unicode hex="00FC"/>
  <outline>
    <contour>
      <point x="400" y="1085" type="line" name="hr00"/>
      <point x="438" y="1085" type="line"/>
      <point x="440" y="1247" type="line"/>
      <point x="402" y="1247" type="line"/>
    </contour>
    <contour>
      <point x="637" y="1085" type="line"/>
      <point x="675" y="1085" type="line"/>
      <point x="676" y="1247" type="line"/>
      <point x="638" y="1247" type="line"/>
    </contour>
    <component base="u"/>
  </outline>
</glyph>
<glyph name="yacute" format="1">
  <advance width="1208"/>
  <unicode hex="00FD"/>
  <outline>
    <contour>
      <point x="311" y="1123" type="line" name="hr00"/>
      <point x="322" y="1087" type="line"/>
      <point x="960" y="1288" type="line"/>
      <point x="949" y="1324" type="line"/>
    </contour>
    <component base="y" xOffset="5"/>
  </outline>
</glyph>
<glyph name="ydieresis" format="1">
  <advance width="1208"/>
  <unicode hex="00FF"/>
  <outline>
    <contour>
      <point x="497" y="1085" type="line" name="hr00"/>
      <point x="535" y="1085" type="line"/>
      <point x="537" y="1247" type="line"/>
      <point x="499" y="1247" type="line"/>
    </contour>
    <contour>
      <point x="734" y="1085" type="line"/>
      <point x="772" y="1085" type="line"/>
      <point x="773" y="1247" type="line"/>
      <point x="735" y="1247" type="line"/>
    </contour>
    <component base="y" xOffset="5"/>
  </outline>
</glyph>
<glyph name="dotlessi" format="1">
  <advance width="507"/>
  <unicode hex="0131"/>
  <outline>
    <contour>
      <point x="80" y="948" type="line" name="hr00"/>
      <point x="90" y="912" type="line"/>
      <point x="267" y="962" type="line"/>
      <point x="267" y="153" type="line" smooth="yes"/>
      <point x="267" y="55"/>
      <point x="160" y="39"/>
      <point x="86" y="37" type="curve"/>
      <point x="84" y="0" type="line"/>
      <point x="427" y="0" type="line"/>
      <point x="427" y="37" type="line"/>
      <point x="244" y="37" type="line"/>
      <point x="283" y="63"/>
      <point x="304" y="107"/>
      <point x="304" y="153" type="curve" smooth="yes"/>
      <point x="304" y="1012" type="line"/>
    </contour>
  </outline>
</glyph>
<glyph name="OE" format="1">
  <advance width="1935"/>
  <unicode hex="0152"/>
  <outline>
    <contour>
      <point x="80" y="819" type="curve" smooth="yes" name="hr00"/>
      <point x="80" y="466"/>
      <point x="289" y="1"/>
      <point x="674" y="1" type="curve" smooth="yes"/>
      <point x="1623" y="0" type="line"/>
      <point x="1571" y="-51" type="line"/>
      <point x="1597" y="-78" type="line"/>
      <point x="1895" y="210" type="line"/>
      <point x="1869" y="237" type="line"/>
      <point x="1663" y="37" type="line"/>
      <point x="828" y="37" type="line"/>
      <point x="828" y="877" type="line"/>
      <point x="1368" y="878" type="line"/>
      <point x="1368" y="781" type="line"/>
      <point x="1405" y="781" type="line"/>
      <point x="1405" y="1029" type="line"/>
      <point x="1368" y="1029" type="line"/>
      <point x="1368" y="916" type="line"/>
      <point x="828" y="914" type="line"/>
      <point x="828" y="1577" type="line"/>
      <point x="1490" y="1577" type="line"/>
      <point x="1685" y="1425" type="line"/>
      <point x="1709" y="1455" type="line"/>
      <point x="1398" y="1696" type="line"/>
      <point x="1375" y="1667" type="line"/>
      <point x="1441" y="1614" type="line"/>
      <point x="676" y="1614" type="line" smooth="yes"/>
      <point x="270" y="1614"/>
      <point x="80" y="1161"/>
    </contour>
    <contour>
      <point x="118" y="819" type="curve" smooth="yes"/>
      <point x="118" y="1156"/>
      <point x="306" y="1581"/>
      <point x="674" y="1578" type="curve" smooth="yes"/>
      <point x="790" y="1577" type="line"/>
      <point x="790" y="37" type="line"/>
      <point x="676" y="37" type="line" smooth="yes"/>
      <point x="292" y="37"/>
      <point x="118" y="502"/>
    </contour>
  </outline>
</glyph>
<glyph name="oe" format="1">
  <advance width="1419"/>
  <unicode hex="0153"/>
  <outline>
    <contour>
      <point x="996" y="-15" type="curve" smooth="yes"/>
      <point x="1148" y="-15"/>
      <point x="1286" y="69"/>
      <point x="1369" y="190" type="curve"/>
      <point x="1338" y="211" type="line"/>
      <point x="1253" y="94"/>
      <point x="1129" y="23"/>
      <point x="993" y="23" type="curve" smooth="yes"/>
      <point x="738" y="23"/>
      <point x="554" y="267"/>
      <point x="554" y="525" type="curve" smooth="yes"/>
      <point x="554" y="768"/>
      <point x="742" y="979"/>
      <point x="978" y="979" type="curve" smooth="yes"/>
      <point x="1087" y="979"/>
      <point x="1186" y="933"/>
      <point x="1262" y="866" type="curve"/>
      <point x="712" y="451" type="line"/>
      <point x="734" y="421" type="line"/>
      <point x="1320" y="862" type="line"/>
      <point x="1214" y="968"/>
      <point x="1096" y="1017"/>
      <point x="980" y="1017" type="curve" smooth="yes"/>
      <point x="878" y="1017"/>
      <point x="787" y="982"/>
      <point x="713" y="926" type="curve"/>
      <point x="649" y="981"/>
      <point x="567" y="1015"/>
      <point x="468" y="1015" type="curve" smooth="yes" name="hr01"/>
      <point x="213" y="1015"/>
      <point x="60" y="736"/>
      <point x="61" y="515" type="curve" smooth="yes"/>
      <point x="62" y="255"/>
      <point x="228" y="-16"/>
      <point x="494" y="-16" type="curve" smooth="yes"/>
      <point x="586" y="-16"/>
      <point x="667" y="19"/>
      <point x="732" y="75" type="curve"/>
      <point x="807" y="18"/>
      <point x="898" y="-15"/>
    </contour>
    <contour>
      <point x="517" y="523" type="curve" smooth="yes"/>
      <point x="517" y="353"/>
      <point x="589" y="199"/>
      <point x="702" y="99" type="curve"/>
      <point x="644" y="51"/>
      <point x="573" y="22"/>
      <point x="494" y="22" type="curve" smooth="yes"/>
      <point x="262" y="22"/>
      <point x="98" y="247"/>
      <point x="98" y="513" type="curve" smooth="yes"/>
      <point x="98" y="742"/>
      <point x="250" y="978"/>
      <point x="468" y="978" type="curve" smooth="yes"/>
      <point x="554" y="978"/>
      <point x="624" y="947"/>
      <point x="682" y="900" type="curve"/>
      <point x="579" y="806"/>
      <point x="517" y="666"/>
    </contour>
  </outline>
</glyph>
<glyph name="quoteleft" format="1">
  <advance width="989"/>
  <unicode hex="2018"/>
  <outline>
    <contour>
      <point x="171" y="2018" type="line" name="hr00"/>
      <point x="821" y="1814" type="line"/>
      <point x="832" y="1851" type="line"/>
      <point x="182" y="2055" type="line"/>
    </contour>
  </outline>
</glyph>
<glyph name="euro" format="1">
  <advance width="1160"/>
  <unicode hex="20AC"/>
  <outline>
    <contour>
      <point x="95" y="798" type="curve" smooth="yes" name="hr00"/>
      <point x="95" y="405"/>
      <point x="304" y="-15"/>
      <point x="694" y="-15" type="curve" smooth="yes"/>
      <point x="855" y="-15"/>
      <point x="1022" y="87"/>
      <point x="1134" y="247" type="curve"/>
      <point x="921" y="423" type="line"/>
      <point x="898" y="394" type="line"/>
      <point x="1089" y="243" type="line"/>
      <point x="984" y="102"/>
      <point x="843" y="23"/>
      <point x="694" y="23" type="curve" smooth="yes"/>
      <point x="368" y="23"/>
      <point x="180" y="350"/>
      <point x="141" y="672" type="curve"/>
      <point x="691" y="674" type="line"/>
      <point x="691" y="577" type="line"/>
      <point x="729" y="577" type="line"/>
      <point x="729" y="990" type="line"/>
      <point x="690" y="990" type="line"/>
      <point x="690" y="876" type="line"/>
      <point x="136" y="875" type="line"/>
      <point x="161" y="1210"/>
      <point x="350" y="1592"/>
      <point x="694" y="1592" type="curve" smooth="yes"/>
      <point x="809" y="1592"/>
      <point x="915" y="1546"/>
      <point x="1011" y="1454" type="curve"/>
      <point x="853" y="1296" type="line"/>
      <point x="879" y="1269" type="line"/>
      <point x="1065" y="1454" type="line"/>
      <point x="1051" y="1468" type="line" smooth="yes"/>
      <point x="945" y="1576"/>
      <point x="826" y="1630"/>
      <point x="694" y="1630" type="curve" smooth="yes"/>
      <point x="288" y="1630"/>
      <point x="95" y="1154"/>
    </contour>
    <contour>
      <point x="691" y="839" type="line"/>
      <point x="691" y="712" type="line"/>
      <point x="136" y="710" type="line"/>
      <point x="134" y="739"/>
      <point x="133" y="769"/>
      <point x="133" y="798" type="curve" smooth="yes"/>
      <point x="133" y="810"/>
      <point x="133" y="825"/>
      <point x="134" y="837" type="curve"/>
    </contour>
  </outline>
</glyph>
<glyph name="uni25FC" format="1">
  <advance width="1024"/>
  <unicode hex="25FC"/>
  <outline>
    <contour>
      <point x="0" y="0" type="line" name="hr00"/>
      <point x="0" y="1024" type="line"/>
      <point x="1024" y="1024" type="line"/>
      <point x="1024" y="0" type="line"/>
    </contour>
  </outline>
</glyph>
<glyph name="ff" format="1">
  <advance width="1061"/>
  <unicode hex="FB00"/>
  <outline>
    <contour>
      <point x="916" y="0" type="line"/>
      <point x="916" y="38" type="line"/>
      <point x="830" y="41"/>
      <point x="740" y="84"/>
      <point x="740" y="177" type="curve" smooth="yes"/>
      <point x="740" y="821" type="line" smooth="yes"/>
      <point x="740" y="882"/>
      <point x="702" y="928"/>
      <point x="625" y="961" type="curve"/>
      <point x="943" y="961" type="line"/>
      <point x="943" y="999" type="line"/>
      <point x="780" y="1025"/>
      <point x="642" y="1115"/>
      <point x="642" y="1300" type="curve" smooth="yes" name="hr01"/>
      <point x="642" y="1447"/>
      <point x="740" y="1593"/>
      <point x="922" y="1593" type="curve" smooth="yes"/>
      <point x="975" y="1593"/>
      <point x="1085" y="1577"/>
      <point x="1119" y="1520" type="curve"/>
      <point x="1051" y="1468" type="line"/>
      <point x="1073" y="1438" type="line"/>
      <point x="1161" y="1505" type="line"/>
      <point x="1161" y="1515" type="line"/>
      <point x="1119" y="1613"/>
      <point x="987" y="1631"/>
      <point x="920" y="1631" type="curve" smooth="yes"/>
      <point x="840" y="1631"/>
      <point x="774" y="1604"/>
      <point x="723" y="1561" type="curve"/>
      <point x="666" y="1619"/>
      <point x="568" y="1631"/>
      <point x="514" y="1631" type="curve" smooth="yes"/>
      <point x="312" y="1631"/>
      <point x="199" y="1459"/>
      <point x="199" y="1300" type="curve" smooth="yes"/>
      <point x="199" y="1174"/>
      <point x="262" y="1057"/>
      <point x="408" y="999" type="curve"/>
      <point x="35" y="999" type="line"/>
      <point x="35" y="961" type="line"/>
      <point x="121" y="959"/>
      <point x="296" y="927"/>
      <point x="296" y="821" type="curve" smooth="yes" name="hr02"/>
      <point x="296" y="177" type="line" smooth="yes"/>
      <point x="296" y="116"/>
      <point x="322" y="69"/>
      <point x="373" y="38" type="curve"/>
      <point x="120" y="38" type="line"/>
      <point x="120" y="0" type="line"/>
    </contour>
    <contour>
      <point x="441" y="961" type="line"/>
      <point x="527" y="959"/>
      <point x="702" y="927"/>
      <point x="702" y="821" type="curve" smooth="yes"/>
      <point x="702" y="177" type="line" smooth="yes"/>
      <point x="702" y="116"/>
      <point x="728" y="69"/>
      <point x="779" y="38" type="curve"/>
      <point x="510" y="38" type="line"/>
      <point x="424" y="41"/>
      <point x="334" y="84"/>
      <point x="334" y="177" type="curve" smooth="yes"/>
      <point x="334" y="821" type="line" smooth="yes"/>
      <point x="334" y="882"/>
      <point x="296" y="928"/>
      <point x="219" y="961" type="curve"/>
    </contour>
    <contour>
      <point x="236" y="1300" type="curve" smooth="yes"/>
      <point x="236" y="1447"/>
      <point x="334" y="1593"/>
      <point x="516" y="1593" type="curve" smooth="yes"/>
      <point x="563" y="1593"/>
      <point x="654" y="1580"/>
      <point x="698" y="1538" type="curve"/>
      <point x="637" y="1474"/>
      <point x="605" y="1385"/>
      <point x="605" y="1300" type="curve" smooth="yes"/>
      <point x="605" y="1174"/>
      <point x="668" y="1057"/>
      <point x="814" y="999" type="curve"/>
      <point x="537" y="999" type="line"/>
      <point x="374" y="1025"/>
      <point x="236" y="1115"/>
    </contour>
  </outline>
</glyph>
<glyph name="fi" format="1">
  <advance width="933"/>
  <unicode hex="FB01"/>
  <outline>
    <contour>
      <point x="592" y="1284" type="curve" smooth="yes"/>
      <point x="592" y="1224"/>
      <point x="641" y="1175"/>
      <point x="701" y="1175" type="curve" smooth="yes"/>
      <point x="761" y="1175"/>
      <point x="811" y="1224"/>
      <point x="811" y="1284" type="curve" smooth="yes" name="hr01"/>
      <point x="811" y="1344"/>
      <point x="761" y="1393"/>
      <point x="701" y="1393" type="curve" smooth="yes"/>
      <point x="641" y="1393"/>
      <point x="592" y="1345"/>
    </contour>
    <contour>
      <point x="630" y="1284" type="curve" smooth="yes" name="hr03"/>
      <point x="630" y="1324"/>
      <point x="662" y="1356"/>
      <point x="701" y="1356" type="curve" smooth="yes"/>
      <point x="740" y="1356"/>
      <point x="772" y="1324"/>
      <point x="773" y="1284" type="curve" smooth="yes"/>
      <point x="773" y="1245"/>
      <point x="740" y="1213"/>
      <point x="701" y="1213" type="curve" smooth="yes"/>
      <point x="662" y="1213"/>
      <point x="630" y="1245"/>
    </contour>
    <contour>
      <point x="35" y="961" type="line"/>
      <point x="121" y="959"/>
      <point x="296" y="927"/>
      <point x="296" y="821" type="curve" smooth="yes" name="hr04"/>
      <point x="296" y="177" type="line" smooth="yes"/>
      <point x="296" y="116"/>
      <point x="322" y="70"/>
      <point x="373" y="39" type="curve"/>
      <point x="120" y="39" type="line"/>
      <point x="120" y="0" type="line"/>
      <point x="853" y="0" type="line"/>
      <point x="853" y="37" type="line"/>
      <point x="670" y="37" type="line"/>
      <point x="709" y="63"/>
      <point x="730" y="107"/>
      <point x="730" y="153" type="curve" smooth="yes"/>
      <point x="730" y="999" type="line"/>
      <point x="537" y="999" type="line"/>
      <point x="374" y="1025"/>
      <point x="236" y="1115"/>
      <point x="236" y="1300" type="curve" smooth="yes"/>
      <point x="236" y="1447"/>
      <point x="334" y="1595"/>
      <point x="516" y="1595" type="curve" smooth="yes"/>
      <point x="610" y="1595"/>
      <point x="687" y="1554"/>
      <point x="687" y="1480" type="curve" smooth="yes"/>
      <point x="687" y="1376" type="line"/>
      <point x="722" y="1378" type="line"/>
      <point x="722" y="1476" type="line" smooth="yes"/>
      <point x="722" y="1586"/>
      <point x="616" y="1631"/>
      <point x="514" y="1631" type="curve" smooth="yes"/>
      <point x="312" y="1631"/>
      <point x="199" y="1459"/>
      <point x="199" y="1300" type="curve" smooth="yes" name="hr05"/>
      <point x="199" y="1174"/>
      <point x="262" y="1057"/>
      <point x="408" y="999" type="curve"/>
      <point x="35" y="999" type="line"/>
    </contour>
    <contour>
      <point x="512" y="37" type="curve" smooth="yes"/>
      <point x="426" y="37"/>
      <point x="334" y="84"/>
      <point x="334" y="177" type="curve" smooth="yes"/>
      <point x="334" y="821" type="line" smooth="yes"/>
      <point x="334" y="882"/>
      <point x="296" y="928"/>
      <point x="219" y="961" type="curve"/>
      <point x="693" y="961" type="line"/>
      <point x="693" y="153" type="line" smooth="yes"/>
      <point x="693" y="55"/>
      <point x="586" y="37"/>
    </contour>
  </outline>
</glyph>
<glyph name="fl" format="1">
  <advance width="1084"/>
  <unicode hex="FB02"/>
  <outline>
    <contour>
      <point x="874" y="153" type="line" name="hr00"/>
      <point x="874" y="71"/>
      <point x="795" y="42"/>
      <point x="693" y="37" type="curve"/>
      <point x="694" y="0" type="line"/>
      <point x="1034" y="0" type="line"/>
      <point x="1034" y="37" type="line"/>
      <point x="851" y="37" type="line"/>
      <point x="890" y="56"/>
      <point x="911" y="109"/>
      <point x="911" y="153" type="curve" smooth="yes"/>
      <point x="911" y="1535" type="line"/>
      <point x="782" y="1600"/>
      <point x="689" y="1631"/>
      <point x="539" y="1631" type="curve" smooth="yes"/>
      <point x="312" y="1631"/>
      <point x="199" y="1459"/>
      <point x="199" y="1300" type="curve" smooth="yes"/>
      <point x="199" y="1174"/>
      <point x="262" y="1057"/>
      <point x="408" y="999" type="curve"/>
      <point x="35" y="999" type="line"/>
      <point x="35" y="961" type="line"/>
      <point x="121" y="959"/>
      <point x="296" y="927"/>
      <point x="296" y="821" type="curve" smooth="yes"/>
      <point x="296" y="177" type="line" smooth="yes"/>
      <point x="296" y="116"/>
      <point x="322" y="69"/>
      <point x="373" y="38" type="curve"/>
      <point x="120" y="38" type="line"/>
      <point x="120" y="0" type="line"/>
      <point x="510" y="0" type="line"/>
      <point x="510" y="38" type="line"/>
      <point x="424" y="41"/>
      <point x="334" y="84"/>
      <point x="334" y="177" type="curve" smooth="yes"/>
      <point x="334" y="821" type="line" smooth="yes"/>
      <point x="334" y="882"/>
      <point x="296" y="928"/>
      <point x="219" y="961" type="curve"/>
      <point x="537" y="961" type="line"/>
      <point x="537" y="999" type="line"/>
      <point x="374" y="1025"/>
      <point x="236" y="1115"/>
      <point x="236" y="1300" type="curve" smooth="yes"/>
      <point x="236" y="1447"/>
      <point x="334" y="1593"/>
      <point x="537" y="1593" type="curve" smooth="yes"/>
      <point x="672" y="1593"/>
      <point x="779" y="1561"/>
      <point x="874" y="1511" type="curve"/>
    </contour>
  </outline>
</glyph>
<glyph name="ffi" format="1">
  <advance width="1340"/>
  <unicode hex="FB03"/>
  <outline>
    <contour>
      <point x="1260" y="0" type="line"/>
      <point x="1260" y="37" type="line"/>
      <point x="1077" y="37" type="line"/>
      <point x="1116" y="63"/>
      <point x="1137" y="107"/>
      <point x="1137" y="153" type="curve" smooth="yes"/>
      <point x="1137" y="999" type="line"/>
      <point x="944" y="999" type="line"/>
      <point x="781" y="1025"/>
      <point x="643" y="1115"/>
      <point x="643" y="1300" type="curve" smooth="yes"/>
      <point x="643" y="1447"/>
      <point x="741" y="1595"/>
      <point x="923" y="1595" type="curve" smooth="yes"/>
      <point x="1017" y="1595"/>
      <point x="1094" y="1554"/>
      <point x="1094" y="1480" type="curve" smooth="yes"/>
      <point x="1094" y="1392" type="line"/>
      <point x="1040" y="1385"/>
      <point x="999" y="1340"/>
      <point x="999" y="1284" type="curve" smooth="yes" name="hr01"/>
      <point x="999" y="1224"/>
      <point x="1048" y="1175"/>
      <point x="1108" y="1175" type="curve" smooth="yes"/>
      <point x="1168" y="1175"/>
      <point x="1218" y="1224"/>
      <point x="1218" y="1284" type="curve" smooth="yes" name="hr02"/>
      <point x="1218" y="1337"/>
      <point x="1179" y="1381"/>
      <point x="1129" y="1391" type="curve"/>
      <point x="1129" y="1476" type="line" smooth="yes"/>
      <point x="1129" y="1586"/>
      <point x="1023" y="1631"/>
      <point x="921" y="1631" type="curve" smooth="yes"/>
      <point x="840" y="1631"/>
      <point x="774" y="1604"/>
      <point x="724" y="1561" type="curve"/>
      <point x="667" y="1619"/>
      <point x="568" y="1631"/>
      <point x="514" y="1631" type="curve" smooth="yes"/>
      <point x="312" y="1631"/>
      <point x="199" y="1459"/>
      <point x="199" y="1300" type="curve" smooth="yes"/>
      <point x="199" y="1174"/>
      <point x="262" y="1057"/>
      <point x="408" y="999" type="curve"/>
      <point x="35" y="999" type="line"/>
      <point x="35" y="961" type="line" name="hr03"/>
      <point x="121" y="959"/>
      <point x="296" y="927"/>
      <point x="296" y="821" type="curve" smooth="yes"/>
      <point x="296" y="177" type="line" smooth="yes"/>
      <point x="296" y="116"/>
      <point x="322" y="69"/>
      <point x="373" y="38" type="curve"/>
      <point x="120" y="38" type="line"/>
      <point x="120" y="0" type="line"/>
    </contour>
    <contour>
      <point x="442" y="961" type="line"/>
      <point x="528" y="959"/>
      <point x="703" y="927"/>
      <point x="703" y="821" type="curve" smooth="yes"/>
      <point x="703" y="177" type="line" smooth="yes"/>
      <point x="703" y="116"/>
      <point x="729" y="70"/>
      <point x="780" y="39" type="curve"/>
      <point x="503" y="39" type="line" smooth="yes"/>
      <point x="419" y="39"/>
      <point x="334" y="86"/>
      <point x="334" y="177" type="curve" smooth="yes"/>
      <point x="334" y="821" type="line" smooth="yes"/>
      <point x="334" y="882"/>
      <point x="296" y="928"/>
      <point x="219" y="961" type="curve"/>
    </contour>
    <contour>
      <point x="919" y="37" type="curve" smooth="yes"/>
      <point x="833" y="37"/>
      <point x="741" y="84"/>
      <point x="741" y="177" type="curve" smooth="yes" name="hr04"/>
      <point x="741" y="821" type="line" smooth="yes"/>
      <point x="741" y="882"/>
      <point x="703" y="928"/>
      <point x="626" y="961" type="curve"/>
      <point x="1100" y="961" type="line"/>
      <point x="1100" y="153" type="line" smooth="yes"/>
      <point x="1100" y="55"/>
      <point x="993" y="37"/>
    </contour>
    <contour>
      <point x="236" y="1300" type="curve" smooth="yes"/>
      <point x="236" y="1447"/>
      <point x="334" y="1593"/>
      <point x="516" y="1593" type="curve" smooth="yes"/>
      <point x="563" y="1593"/>
      <point x="655" y="1580"/>
      <point x="699" y="1537" type="curve"/>
      <point x="638" y="1473"/>
      <point x="606" y="1385"/>
      <point x="606" y="1300" type="curve" smooth="yes" name="hr05"/>
      <point x="606" y="1174"/>
      <point x="669" y="1057"/>
      <point x="815" y="999" type="curve"/>
      <point x="537" y="999" type="line"/>
      <point x="374" y="1025"/>
      <point x="236" y="1115"/>
    </contour>
    <contour>
      <point x="1037" y="1284" type="curve" smooth="yes"/>
      <point x="1037" y="1324"/>
      <point x="1069" y="1356"/>
      <point x="1108" y="1356" type="curve" smooth="yes"/>
      <point x="1147" y="1356"/>
      <point x="1179" y="1324"/>
      <point x="1180" y="1284" type="curve" smooth="yes"/>
      <point x="1180" y="1245"/>
      <point x="1147" y="1213"/>
      <point x="1108" y="1213" type="curve" smooth="yes"/>
      <point x="1069" y="1213"/>
      <point x="1037" y="1245"/>
    </contour>
  </outline>
</glyph>
<glyph name="s_t" format="1">
  <advance width="1511"/>
  <unicode hex="FB06"/>
  <outline>
    <contour>
      <point x="1032" y="1223" type="curve" smooth="yes"/>
      <point x="1032" y="1318"/>
      <point x="959" y="1437"/>
      <point x="759" y="1437" type="curve" smooth="yes"/>
      <point x="536" y="1437"/>
      <point x="480" y="1255"/>
      <point x="480" y="1147" type="curve" smooth="yes"/>
      <point x="480" y="1086"/>
      <point x="494" y="1024"/>
      <point x="517" y="988" type="curve"/>
      <point x="461" y="1005"/>
      <point x="407" y="1016"/>
      <point x="353" y="1016" type="curve" smooth="yes"/>
      <point x="235" y="1016"/>
      <point x="121" y="951"/>
      <point x="121" y="841" type="curve" smooth="yes" name="hr01"/>
      <point x="121" y="588"/>
      <point x="670" y="681"/>
      <point x="670" y="293" type="curve" smooth="yes"/>
      <point x="670" y="195"/>
      <point x="595" y="21"/>
      <point x="380" y="21" type="curve" smooth="yes"/>
      <point x="245" y="21"/>
      <point x="147" y="102"/>
      <point x="110" y="224" type="curve"/>
      <point x="180" y="321" type="line"/>
      <point x="149" y="343" type="line"/>
      <point x="68" y="231" type="line"/>
      <point x="115" y="70"/>
      <point x="227" y="-16"/>
      <point x="380" y="-16" type="curve" smooth="yes"/>
      <point x="566" y="-16"/>
      <point x="707" y="123"/>
      <point x="707" y="292" type="curve" smooth="yes" name="hr02"/>
      <point x="707" y="714"/>
      <point x="158" y="624"/>
      <point x="158" y="841" type="curve" smooth="yes"/>
      <point x="158" y="934"/>
      <point x="256" y="979"/>
      <point x="349" y="979" type="curve" smooth="yes"/>
      <point x="424" y="979"/>
      <point x="503" y="955"/>
      <point x="568" y="928" type="curve"/>
      <point x="588" y="963" type="line"/>
      <point x="545" y="1002"/>
      <point x="518" y="1051"/>
      <point x="518" y="1147" type="curve" smooth="yes" name="hr03"/>
      <point x="518" y="1292"/>
      <point x="609" y="1397"/>
      <point x="759" y="1397" type="curve" smooth="yes"/>
      <point x="907" y="1397"/>
      <point x="992" y="1318"/>
      <point x="993" y="1215" type="curve" smooth="yes"/>
      <point x="994" y="1097"/>
      <point x="896" y="996"/>
      <point x="782" y="996" type="curve" smooth="yes"/>
      <point x="712" y="997" type="line"/>
      <point x="712" y="963" type="line"/>
      <point x="992" y="963" type="line"/>
      <point x="992" y="112" type="line" smooth="yes"/>
      <point x="992" y="36"/>
      <point x="1039" y="-15"/>
      <point x="1122" y="-15" type="curve" smooth="yes"/>
      <point x="1216" y="-15"/>
      <point x="1302" y="54"/>
      <point x="1344" y="129" type="curve"/>
      <point x="1312" y="149" type="line"/>
      <point x="1266" y="78"/>
      <point x="1198" y="23"/>
      <point x="1121" y="23" type="curve" smooth="yes"/>
      <point x="1069" y="23"/>
      <point x="1030" y="48"/>
      <point x="1030" y="112" type="curve" smooth="yes"/>
      <point x="1030" y="963" type="line"/>
      <point x="1490" y="963" type="line"/>
      <point x="1490" y="999" type="line"/>
      <point x="902" y="999" type="line"/>
      <point x="996" y="1059"/>
      <point x="1032" y="1127"/>
    </contour>
  </outline>
</glyph>
<glyph name="A.2" format="1">
  <advance width="1422"/>
  <outline>
    <contour>
      <point x="50" y="1" type="line" name="hr00"/>
      <point x="297" y="1" type="line"/>
      <point x="297" y="39" type="line"/>
      <point x="156" y="39" type="line"/>
      <point x="269" y="433" type="line" smooth="yes"/>
      <point x="328" y="628"/>
      <point x="510" y="749"/>
      <point x="680" y="820" type="curve" smooth="yes"/>
      <point x="777" y="860"/>
      <point x="880" y="890"/>
      <point x="991" y="910" type="curve"/>
      <point x="1244" y="39" type="line"/>
      <point x="1125" y="39" type="line"/>
      <point x="1125" y="1" type="line"/>
      <point x="1372" y="1" type="line"/>
      <point x="1372" y="39" type="line"/>
      <point x="1284" y="39" type="line"/>
      <point x="834" y="1574" type="line"/>
      <point x="956" y="1574" type="line"/>
      <point x="995" y="1433" type="line"/>
      <point x="1031" y="1443" type="line"/>
      <point x="970" y="1664" type="line"/>
      <point x="934" y="1654" type="line"/>
      <point x="946" y="1612" type="line"/>
      <point x="460" y="1612" type="line"/>
      <point x="472" y="1654" type="line"/>
      <point x="435" y="1664" type="line"/>
      <point x="374" y="1443" type="line"/>
      <point x="410" y="1433" type="line"/>
      <point x="450" y="1574" type="line"/>
      <point x="569" y="1574" type="line"/>
      <point x="233" y="444" type="line"/>
      <point x="116" y="39" type="line"/>
      <point x="50" y="39" type="line"/>
    </contour>
    <contour>
      <point x="323" y="614" type="curve"/>
      <point x="608" y="1574" type="line"/>
      <point x="795" y="1574" type="line"/>
      <point x="980" y="946" type="line"/>
      <point x="867" y="925"/>
      <point x="763" y="895"/>
      <point x="666" y="855" type="curve" smooth="yes"/>
      <point x="532" y="798"/>
      <point x="408" y="723"/>
    </contour>
  </outline>
</glyph>
<glyph name="A.3" format="1">
  <advance width="1431"/>
  <outline>
    <contour>
      <point x="50" y="1" type="line" name="hr00"/>
      <point x="50" y="39" type="line"/>
      <point x="117" y="39" type="line"/>
      <point x="573" y="1575" type="line"/>
      <point x="452" y="1575" type="line"/>
      <point x="413" y="1433" type="line"/>
      <point x="377" y="1443" type="line"/>
      <point x="438" y="1666" type="line"/>
      <point x="474" y="1655" type="line"/>
      <point x="463" y="1613" type="line"/>
      <point x="952" y="1613" type="line"/>
      <point x="940" y="1655" type="line"/>
      <point x="977" y="1666" type="line"/>
      <point x="1038" y="1443" type="line"/>
      <point x="1002" y="1433" type="line"/>
      <point x="962" y="1575" type="line"/>
      <point x="839" y="1575" type="line"/>
      <point x="1292" y="39" type="line"/>
      <point x="1381" y="39" type="line"/>
      <point x="1381" y="1" type="line"/>
      <point x="1133" y="1" type="line"/>
      <point x="1133" y="39" type="line"/>
      <point x="1253" y="39" type="line"/>
      <point x="1064" y="677" type="line"/>
      <point x="740" y="545" type="line"/>
      <point x="852" y="433" type="line"/>
      <point x="708" y="289" type="line"/>
      <point x="564" y="433" type="line"/>
      <point x="674" y="543" type="line"/>
      <point x="347" y="679" type="line"/>
      <point x="157" y="39" type="line"/>
      <point x="299" y="39" type="line"/>
      <point x="299" y="1" type="line"/>
    </contour>
    <contour>
      <point x="358" y="715" type="line"/>
      <point x="705" y="569" type="line"/>
      <point x="1054" y="714" type="line"/>
      <point x="800" y="1575" type="line"/>
      <point x="612" y="1575" type="line"/>
    </contour>
    <contour>
      <point x="708" y="342" type="line"/>
      <point x="799" y="433" type="line"/>
      <point x="708" y="524" type="line"/>
      <point x="617" y="433" type="line"/>
    </contour>
  </outline>
</glyph>
<glyph name="B.2" format="1">
  <advance width="1313"/>
  <outline>
    <contour>
      <point x="70" y="1" type="line"/>
      <point x="711" y="1" type="line" smooth="yes"/>
      <point x="1013" y="1"/>
      <point x="1237" y="248"/>
      <point x="1237" y="527" type="curve" smooth="yes"/>
      <point x="1237" y="680"/>
      <point x="1171" y="824"/>
      <point x="1056" y="924" type="curve"/>
      <point x="1091" y="989"/>
      <point x="1108" y="1061"/>
      <point x="1108" y="1139" type="curve" smooth="yes"/>
      <point x="1108" y="1422"/>
      <point x="892" y="1612"/>
      <point x="647" y="1612" type="curve" smooth="yes"/>
      <point x="70" y="1613" type="line" name="hr01"/>
      <point x="70" y="1575" type="line"/>
      <point x="185" y="1575" type="line"/>
      <point x="185" y="39" type="line"/>
      <point x="70" y="39" type="line"/>
    </contour>
    <contour>
      <point x="223" y="39" type="line"/>
      <point x="223" y="1575" type="line"/>
      <point x="647" y="1575" type="line" smooth="yes"/>
      <point x="883" y="1575"/>
      <point x="1071" y="1373"/>
      <point x="1071" y="1139" type="curve" smooth="yes"/>
      <point x="1071" y="1074"/>
      <point x="1056" y="1010"/>
      <point x="1026" y="949" type="curve"/>
      <point x="924" y="1025"/>
      <point x="809" y="1069"/>
      <point x="694" y="1115" type="curve" smooth="yes"/>
      <point x="584" y="1158"/>
      <point x="474" y="1189"/>
      <point x="474" y="1255" type="curve" smooth="yes"/>
      <point x="474" y="1305"/>
      <point x="508" y="1350"/>
      <point x="558" y="1350" type="curve"/>
      <point x="564" y="1351" type="line"/>
      <point x="564" y="1388" type="line"/>
      <point x="486" y="1383"/>
      <point x="436" y="1329"/>
      <point x="436" y="1255" type="curve" smooth="yes"/>
      <point x="436" y="1172"/>
      <point x="541" y="1132"/>
      <point x="680" y="1079" type="curve" smooth="yes"/>
      <point x="941" y="980"/>
      <point x="1199" y="850"/>
      <point x="1199" y="527" type="curve" smooth="yes"/>
      <point x="1199" y="253"/>
      <point x="978" y="40"/>
      <point x="711" y="39" type="curve" smooth="yes"/>
    </contour>
  </outline>
</glyph>
<glyph name="B.3" format="1">
  <advance width="1321"/>
  <outline>
    <contour>
      <point x="70" y="-1" type="line" name="hr00"/>
      <point x="716" y="-1" type="line" smooth="yes"/>
      <point x="1002" y="-1"/>
      <point x="1245" y="241"/>
      <point x="1245" y="527" type="curve" smooth="yes"/>
      <point x="1245" y="680"/>
      <point x="1178" y="826"/>
      <point x="1062" y="927" type="curve"/>
      <point x="1098" y="995"/>
      <point x="1116" y="1067"/>
      <point x="1116" y="1143" type="curve" smooth="yes"/>
      <point x="1116" y="1396"/>
      <point x="898" y="1612"/>
      <point x="651" y="1612" type="curve" smooth="yes"/>
      <point x="70" y="1612" type="line"/>
      <point x="70" y="1574" type="line"/>
      <point x="187" y="1574" type="line"/>
      <point x="187" y="37" type="line"/>
      <point x="70" y="37" type="line"/>
    </contour>
    <contour>
      <point x="224" y="37" type="line"/>
      <point x="224" y="1573" type="line"/>
      <point x="651" y="1573" type="line" smooth="yes"/>
      <point x="888" y="1573"/>
      <point x="1078" y="1367"/>
      <point x="1078" y="1143" type="curve" smooth="yes"/>
      <point x="1078" y="1074"/>
      <point x="1063" y="1009"/>
      <point x="1032" y="950" type="curve"/>
      <point x="899" y="1034" type="line"/>
      <point x="927" y="1141" type="line"/>
      <point x="890" y="1151" type="line"/>
      <point x="828" y="910" type="line"/>
      <point x="864" y="900" type="line"/>
      <point x="889" y="995" type="line"/>
      <point x="1027" y="907" type="line"/>
      <point x="1142" y="814"/>
      <point x="1207" y="675"/>
      <point x="1207" y="527" type="curve" smooth="yes"/>
      <point x="1207" y="252"/>
      <point x="977" y="37"/>
      <point x="716" y="37" type="curve" smooth="yes"/>
    </contour>
  </outline>
</glyph>
<glyph name="C.2" format="1">
  <advance width="1171"/>
  <outline>
    <contour>
      <point x="80" y="798" type="curve" smooth="yes" name="hr00"/>
      <point x="80" y="424"/>
      <point x="289" y="-15"/>
      <point x="679" y="-15" type="curve" smooth="yes"/>
      <point x="840" y="-15"/>
      <point x="1003" y="79"/>
      <point x="1121" y="244" type="curve"/>
      <point x="911" y="421" type="line"/>
      <point x="886" y="395" type="line"/>
      <point x="1071" y="240" type="line"/>
      <point x="966" y="99"/>
      <point x="828" y="23"/>
      <point x="679" y="23" type="curve" smooth="yes"/>
      <point x="310" y="23"/>
      <point x="118" y="442"/>
      <point x="118" y="798" type="curve" smooth="yes"/>
      <point x="118" y="1149"/>
      <point x="309" y="1592"/>
      <point x="679" y="1592" type="curve" smooth="yes"/>
      <point x="805" y="1592"/>
      <point x="898" y="1553"/>
      <point x="975" y="1478" type="curve"/>
      <point x="939" y="1471"/>
      <point x="908" y="1455"/>
      <point x="879" y="1429" type="curve" smooth="yes"/>
      <point x="826" y="1382"/>
      <point x="799" y="1331"/>
      <point x="798" y="1274" type="curve" smooth="yes"/>
      <point x="797" y="1218"/>
      <point x="819" y="1168"/>
      <point x="864" y="1123" type="curve"/>
      <point x="890" y="1150" type="line"/>
      <point x="853" y="1187"/>
      <point x="835" y="1228"/>
      <point x="836" y="1273" type="curve" smooth="yes"/>
      <point x="838" y="1361"/>
      <point x="925" y="1450"/>
      <point x="1022" y="1446" type="curve"/>
      <point x="1035" y="1468" type="line"/>
      <point x="926" y="1587"/>
      <point x="812" y="1630"/>
      <point x="679" y="1630" type="curve" smooth="yes"/>
      <point x="273" y="1630"/>
      <point x="80" y="1154"/>
    </contour>
  </outline>
</glyph>
<glyph name="D.2" format="1">
  <advance width="1237"/>
  <outline>
    <contour>
      <point x="-328" y="1693" type="curve" smooth="yes"/>
      <point x="-328" y="1566"/>
      <point x="-123" y="1559"/>
      <point x="-39" y="1559" type="curve" smooth="yes"/>
      <point x="499" y="1559"/>
      <point x="1119" y="1286"/>
      <point x="1119" y="689" type="curve" smooth="yes"/>
      <point x="1119" y="406"/>
      <point x="999" y="33"/>
      <point x="672" y="33" type="curve" smooth="yes"/>
      <point x="225" y="31" type="line"/>
      <point x="225" y="1467" type="line"/>
      <point x="187" y="1467" type="line"/>
      <point x="187" y="31" type="line"/>
      <point x="73" y="30" type="line"/>
      <point x="73" y="-7" type="line"/>
      <point x="672" y="-5" type="line" smooth="yes" name="hr01"/>
      <point x="1036" y="-5"/>
      <point x="1157" y="407"/>
      <point x="1157" y="689" type="curve" smooth="yes"/>
      <point x="1157" y="1334"/>
      <point x="494" y="1596"/>
      <point x="-39" y="1596" type="curve" smooth="yes"/>
      <point x="-112" y="1596"/>
      <point x="-291" y="1601"/>
      <point x="-291" y="1696" type="curve" smooth="yes"/>
      <point x="-294" y="1754"/>
      <point x="-240" y="1813"/>
      <point x="-203" y="1849" type="curve"/>
      <point x="-229" y="1876" type="line"/>
      <point x="-296" y="1809"/>
      <point x="-329" y="1748"/>
    </contour>
  </outline>
</glyph>
<glyph name="E.2" format="1">
  <advance width="1169"/>
  <outline>
    <contour>
      <point x="675" y="834" type="line" name="hr00"/>
      <point x="119" y="834" type="line"/>
      <point x="118" y="822"/>
      <point x="118" y="810"/>
      <point x="118" y="798" type="curve" smooth="yes"/>
      <point x="118" y="419"/>
      <point x="321" y="23"/>
      <point x="679" y="23" type="curve" smooth="yes"/>
      <point x="828" y="23"/>
      <point x="969" y="102"/>
      <point x="1074" y="243" type="curve"/>
      <point x="883" y="394" type="line"/>
      <point x="906" y="423" type="line"/>
      <point x="1119" y="247" type="line"/>
      <point x="1007" y="87"/>
      <point x="840" y="-15"/>
      <point x="679" y="-15" type="curve" smooth="yes"/>
      <point x="289" y="-15"/>
      <point x="80" y="405"/>
      <point x="80" y="798" type="curve" smooth="yes"/>
      <point x="80" y="1154"/>
      <point x="273" y="1630"/>
      <point x="679" y="1630" type="curve" smooth="yes"/>
      <point x="811" y="1630"/>
      <point x="930" y="1576"/>
      <point x="1036" y="1468" type="curve" smooth="yes"/>
      <point x="1050" y="1454" type="line"/>
      <point x="864" y="1269" type="line"/>
      <point x="838" y="1296" type="line"/>
      <point x="996" y="1454" type="line"/>
      <point x="900" y="1546"/>
      <point x="794" y="1592"/>
      <point x="679" y="1592" type="curve" smooth="yes"/>
      <point x="335" y="1592"/>
      <point x="146" y="1210"/>
      <point x="121" y="875" type="curve"/>
      <point x="675" y="875" type="line"/>
      <point x="675" y="990" type="line"/>
      <point x="714" y="990" type="line"/>
      <point x="714" y="717" type="line"/>
      <point x="675" y="717" type="line"/>
    </contour>
  </outline>
</glyph>
<glyph name="E.3" format="1">
  <advance width="1333"/>
  <outline>
    <contour>
      <point x="70" y="0" type="line" name="hr00"/>
      <point x="70" y="38" type="line"/>
      <point x="187" y="38" type="line"/>
      <point x="187" y="1576" type="line"/>
      <point x="70" y="1576" type="line"/>
      <point x="70" y="1614" type="line"/>
      <point x="839" y="1614" type="line"/>
      <point x="772" y="1666" type="line"/>
      <point x="796" y="1696" type="line"/>
      <point x="1107" y="1454" type="line"/>
      <point x="1083" y="1424" type="line"/>
      <point x="888" y="1576" type="line"/>
      <point x="224" y="1576" type="line"/>
      <point x="224" y="846" type="line"/>
      <point x="753" y="985" type="line"/>
      <point x="725" y="1095" type="line"/>
      <point x="761" y="1104" type="line"/>
      <point x="824" y="864" type="line"/>
      <point x="787" y="854" type="line"/>
      <point x="762" y="949" type="line"/>
      <point x="224" y="807" type="line"/>
      <point x="224" y="38" type="line"/>
      <point x="1061" y="38" type="line"/>
      <point x="1267" y="238" type="line"/>
      <point x="1293" y="211" type="line"/>
      <point x="995" y="-78" type="line"/>
      <point x="968" y="-51" type="line"/>
      <point x="1021" y="0" type="line"/>
    </contour>
  </outline>
</glyph>
<glyph name="F.2" format="1">
  <advance width="1228"/>
  <outline>
    <contour>
      <point x="70" y="1" type="line" name="hr00"/>
      <point x="394" y="1" type="line"/>
      <point x="394" y="39" type="line"/>
      <point x="256" y="39" type="line"/>
      <point x="256" y="864" type="line"/>
      <point x="805" y="864" type="line"/>
      <point x="805" y="769" type="line"/>
      <point x="842" y="769" type="line"/>
      <point x="842" y="1016" type="line"/>
      <point x="805" y="1016" type="line"/>
      <point x="805" y="902" type="line"/>
      <point x="257" y="902" type="line"/>
      <point x="257" y="1246"/>
      <point x="480" y="1594"/>
      <point x="811" y="1594" type="curve" smooth="yes"/>
      <point x="926" y="1594"/>
      <point x="1030" y="1549"/>
      <point x="1125" y="1458" type="curve"/>
      <point x="968" y="1301" type="line"/>
      <point x="994" y="1274" type="line"/>
      <point x="1178" y="1458" type="line"/>
      <point x="1165" y="1471" type="line" smooth="yes"/>
      <point x="1060" y="1578"/>
      <point x="942" y="1631"/>
      <point x="811" y="1631" type="curve" smooth="yes"/>
      <point x="407" y="1631"/>
      <point x="218" y="1192"/>
      <point x="218" y="902" type="curve" smooth="yes"/>
      <point x="218" y="39" type="line"/>
      <point x="70" y="39" type="line"/>
    </contour>
  </outline>
</glyph>
<glyph name="F.3" format="1">
  <advance width="1210"/>
  <outline>
    <contour>
      <point x="70" y="0" type="line" name="hr00"/>
      <point x="70" y="38" type="line"/>
      <point x="207" y="38" type="line"/>
      <point x="207" y="1574" type="line"/>
      <point x="92" y="1574" type="line"/>
      <point x="92" y="1612" type="line"/>
      <point x="965" y="1612" type="line"/>
      <point x="1170" y="1452" type="line"/>
      <point x="1147" y="1422" type="line"/>
      <point x="952" y="1573" type="line"/>
      <point x="245" y="1573" type="line"/>
      <point x="245" y="846" type="line"/>
      <point x="775" y="985" type="line"/>
      <point x="747" y="1095" type="line"/>
      <point x="783" y="1104" type="line"/>
      <point x="846" y="864" type="line"/>
      <point x="809" y="854" type="line"/>
      <point x="785" y="949" type="line"/>
      <point x="245" y="806" type="line"/>
      <point x="245" y="38" type="line"/>
      <point x="396" y="38" type="line"/>
      <point x="396" y="0" type="line"/>
    </contour>
  </outline>
</glyph>
<glyph name="G.2" format="1">
  <advance width="1331"/>
  <outline>
    <contour>
      <point x="80" y="715" type="curve" smooth="yes"/>
      <point x="80" y="283"/>
      <point x="253" y="-15"/>
      <point x="673" y="-15" type="curve" smooth="yes"/>
      <point x="954" y="-15"/>
      <point x="1101" y="205"/>
      <point x="1142" y="467" type="curve"/>
      <point x="1142" y="0" type="line" name="hr01"/>
      <point x="1179" y="0" type="line"/>
      <point x="1179" y="695" type="line"/>
      <point x="1381" y="793" type="line"/>
      <point x="1364" y="827" type="line"/>
      <point x="934" y="617" type="line"/>
      <point x="951" y="583" type="line"/>
      <point x="1136" y="673" type="line"/>
      <point x="1109" y="359"/>
      <point x="1022" y="22"/>
      <point x="673" y="22" type="curve" smooth="yes"/>
      <point x="261" y="22"/>
      <point x="118" y="324"/>
      <point x="118" y="715" type="curve" smooth="yes"/>
      <point x="118" y="1162"/>
      <point x="254" y="1593"/>
      <point x="673" y="1593" type="curve" smooth="yes"/>
      <point x="838" y="1593"/>
      <point x="928" y="1548"/>
      <point x="1013" y="1413" type="curve"/>
      <point x="464" y="647" type="line" smooth="yes"/>
      <point x="427" y="596"/>
      <point x="412" y="548"/>
      <point x="412" y="506" type="curve" smooth="yes"/>
      <point x="412" y="389"/>
      <point x="523" y="362"/>
      <point x="616" y="362" type="curve"/>
      <point x="616" y="399" type="line"/>
      <point x="550" y="400"/>
      <point x="450" y="413"/>
      <point x="450" y="504" type="curve" smooth="yes"/>
      <point x="450" y="547"/>
      <point x="470" y="591"/>
      <point x="495" y="625" type="curve" smooth="yes"/>
      <point x="1142" y="1531" type="line"/>
      <point x="1111" y="1553" type="line"/>
      <point x="1036" y="1446" type="line"/>
      <point x="941" y="1590"/>
      <point x="835" y="1630"/>
      <point x="673" y="1630" type="curve" smooth="yes"/>
      <point x="209" y="1630"/>
      <point x="80" y="1135"/>
    </contour>
  </outline>
</glyph>
<glyph name="G.3" format="1">
  <advance width="1312"/>
  <outline>
    <contour>
      <point x="1152" y="120" type="line" name="hr00"/>
      <point x="1190" y="120" type="line"/>
      <point x="1190" y="712" type="line"/>
      <point x="1362" y="798" type="line"/>
      <point x="1345" y="832" type="line"/>
      <point x="912" y="620" type="line"/>
      <point x="928" y="586" type="line"/>
      <point x="1148" y="694" type="line"/>
      <point x="1148" y="622" type="line" smooth="yes"/>
      <point x="1148" y="293"/>
      <point x="953" y="22"/>
      <point x="679" y="22" type="curve" smooth="yes"/>
      <point x="260" y="22"/>
      <point x="118" y="310"/>
      <point x="118" y="706" type="curve" smooth="yes"/>
      <point x="118" y="1158"/>
      <point x="256" y="1592"/>
      <point x="679" y="1592" type="curve" smooth="yes"/>
      <point x="830" y="1592"/>
      <point x="968" y="1529"/>
      <point x="1024" y="1407" type="curve"/>
      <point x="903" y="1187" type="line"/>
      <point x="936" y="1169" type="line"/>
      <point x="1067" y="1408" type="line"/>
      <point x="988" y="1573"/>
      <point x="834" y="1630"/>
      <point x="679" y="1630" type="curve" smooth="yes"/>
      <point x="226" y="1630"/>
      <point x="80" y="1161"/>
      <point x="80" y="706" type="curve" smooth="yes"/>
      <point x="80" y="268"/>
      <point x="252" y="-16"/>
      <point x="679" y="-16" type="curve" smooth="yes"/>
      <point x="947" y="-16"/>
      <point x="1105" y="213"/>
      <point x="1152" y="400" type="curve"/>
    </contour>
  </outline>
</glyph>
<glyph name="H.2" format="1">
  <advance width="1450"/>
  <outline>
    <contour>
      <point x="70" y="1" type="line" name="hr00"/>
      <point x="394" y="1" type="line"/>
      <point x="394" y="39" type="line"/>
      <point x="244" y="39" type="line"/>
      <point x="244" y="421" type="line"/>
      <point x="245" y="421" type="line"/>
      <point x="343" y="640"/>
      <point x="586" y="743"/>
      <point x="794" y="808" type="curve" smooth="yes"/>
      <point x="925" y="849"/>
      <point x="1062" y="879"/>
      <point x="1206" y="898" type="curve"/>
      <point x="1206" y="39" type="line"/>
      <point x="1056" y="39" type="line"/>
      <point x="1056" y="1" type="line"/>
      <point x="1380" y="1" type="line"/>
      <point x="1380" y="39" type="line"/>
      <point x="1243" y="39" type="line"/>
      <point x="1243" y="1575" type="line"/>
      <point x="1380" y="1575" type="line"/>
      <point x="1380" y="1613" type="line"/>
      <point x="1056" y="1613" type="line"/>
      <point x="1056" y="1575" type="line"/>
      <point x="1206" y="1575" type="line"/>
      <point x="1206" y="935" type="line"/>
      <point x="1062" y="918"/>
      <point x="921" y="887"/>
      <point x="783" y="844" type="curve" smooth="yes"/>
      <point x="576" y="779"/>
      <point x="359" y="682"/>
      <point x="244" y="501" type="curve"/>
      <point x="244" y="1575" type="line"/>
      <point x="394" y="1575" type="line"/>
      <point x="394" y="1613" type="line"/>
      <point x="70" y="1613" type="line"/>
      <point x="70" y="1575" type="line"/>
      <point x="206" y="1575" type="line"/>
      <point x="206" y="39" type="line"/>
      <point x="70" y="39" type="line"/>
    </contour>
  </outline>
</glyph>
<glyph name="H.3" format="1">
  <advance width="1459"/>
  <outline>
    <contour>
      <point x="70" y="-1" type="line" name="hr00"/>
      <point x="396" y="-1" type="line"/>
      <point x="396" y="36" type="line"/>
      <point x="246" y="36" type="line"/>
      <point x="246" y="839" type="line"/>
      <point x="705" y="698" type="line"/>
      <point x="581" y="573" type="line"/>
      <point x="726" y="429" type="line"/>
      <point x="870" y="573" type="line"/>
      <point x="744" y="699" type="line"/>
      <point x="1214" y="842" type="line"/>
      <point x="1214" y="36" type="line"/>
      <point x="1063" y="36" type="line"/>
      <point x="1063" y="-1" type="line"/>
      <point x="1389" y="-1" type="line"/>
      <point x="1389" y="36" type="line"/>
      <point x="1252" y="36" type="line"/>
      <point x="1252" y="1577" type="line"/>
      <point x="1389" y="1577" type="line"/>
      <point x="1389" y="1614" type="line"/>
      <point x="1063" y="1614" type="line"/>
      <point x="1063" y="1577" type="line"/>
      <point x="1214" y="1577" type="line"/>
      <point x="1214" y="881" type="line"/>
      <point x="721" y="732" type="line"/>
      <point x="246" y="879" type="line"/>
      <point x="246" y="1577" type="line"/>
      <point x="396" y="1577" type="line"/>
      <point x="396" y="1614" type="line"/>
      <point x="70" y="1614" type="line"/>
      <point x="70" y="1577" type="line"/>
      <point x="207" y="1577" type="line"/>
      <point x="207" y="36" type="line"/>
      <point x="70" y="36" type="line"/>
    </contour>
    <contour>
      <point x="635" y="573" type="line"/>
      <point x="726" y="664" type="line"/>
      <point x="816" y="573" type="line"/>
      <point x="726" y="483" type="line"/>
    </contour>
  </outline>
</glyph>
<glyph name="I.2" format="1">
  <advance width="467"/>
  <outline>
    <contour>
      <point x="70" y="-2" type="line" name="hr00"/>
      <point x="70" y="36" type="line"/>
      <point x="215" y="36" type="line"/>
      <point x="215" y="1576" type="line"/>
      <point x="70" y="1576" type="line"/>
      <point x="70" y="1614" type="line"/>
      <point x="397" y="1614" type="line"/>
      <point x="397" y="1576" type="line"/>
      <point x="253" y="1576" type="line"/>
      <point x="253" y="36" type="line"/>
      <point x="397" y="36" type="line"/>
      <point x="397" y="-2" type="line"/>
    </contour>
  </outline>
</glyph>
<glyph name="I.3" format="1">
  <advance width="467"/>
  <outline>
    <contour>
      <point x="70" y="0" type="line" name="hr00"/>
      <point x="70" y="38" type="line"/>
      <point x="215" y="38" type="line"/>
      <point x="215" y="1576" type="line"/>
      <point x="70" y="1576" type="line"/>
      <point x="70" y="1614" type="line"/>
      <point x="397" y="1614" type="line"/>
      <point x="397" y="1576" type="line"/>
      <point x="253" y="1576" type="line"/>
      <point x="253" y="38" type="line"/>
      <point x="397" y="38" type="line"/>
      <point x="397" y="0" type="line"/>
    </contour>
  </outline>
</glyph>
